<svg xmlns:xlink="http://www.w3.org/1999/xlink" xmlns="http://www.w3.org/2000/svg" width="80px" height="80px" viewBox="0 0 80 80"><defs><path d="M0 0L80 0L80 80L0 80L0 0Z" id="path_1"></path><clipPath id="mask_1"><use xlink:href="#path_1"></use></clipPath></defs><g id="Calendar-icon"><path d="M0 0L80 0L80 80L0 80L0 0Z" id="Background" fill="none" fill-rule="evenodd" stroke="none"></path><g clip-path="url(#mask_1)"><path d="M15 5L15 10L12.5 10C8.37891 10 5 13.3789 5 17.5L5 62.5C5 66.6211 8.37891 70 12.5 70L62.5 70C66.6211 70 70 66.6211 70 62.5L70 17.5C70 13.3789 66.6211 10 62.5 10L60 10L60 5L55 5L55 10L20 10L20 5L15 5ZM12.5 15L15 15L15 20L20 20L20 15L55 15L55 20L60 20L60 15L62.5 15C63.9063 15 65 16.0938 65 17.5L65 25L10 25L10 17.5C10 16.0938 11.0938 15 12.5 15L12.5 15ZM10 30L65 30L65 62.5C65 63.9063 63.9063 65 62.5 65L12.5 65C11.0938 65 10 63.9063 10 62.5L10 30ZM25 35L25 40L30 40L30 35L25 35ZM35 35L35 40L40 40L40 35L35 35ZM45 35L45 40L50 40L50 35L45 35ZM55 35L55 40L60 40L60 35L55 35ZM15 45L15 50L20 50L20 45L15 45ZM25 45L25 50L30 50L30 45L25 45ZM35 45L35 50L40 50L40 45L35 45ZM45 45L45 50L50 50L50 45L45 45ZM55 45L55 50L60 50L60 45L55 45ZM15 55L15 60L20 60L20 55L15 55ZM25 55L25 60L30 60L30 55L25 55ZM35 55L35 60L40 60L40 55L35 55Z" id="Shape" fill="#959595" fill-rule="evenodd" stroke="none"></path></g></g></svg>