<svg xmlns:xlink="http://www.w3.org/1999/xlink" xmlns="http://www.w3.org/2000/svg" width="64px" height="64px" viewBox="0 0 64 64"><defs><path d="M0 0L64 0L64 64L0 64L0 0Z" id="path_1"></path><clipPath id="mask_1"><use xlink:href="#path_1"></use></clipPath></defs><g id="Facebook-Messenger-icon-5"><path d="M0 0L64 0L64 64L0 64L0 0Z" id="Background" fill="none" fill-rule="evenodd" stroke="none"></path><g clip-path="url(#mask_1)"><path d="M32 61.5C48.25 61.5 61.5 48.25 61.5 32C61.5 24.1 58.45 16.7 52.85 11.15C47.3 5.55 39.9 2.5 32 2.5C15.75 2.5 2.5 15.7 2.5 32C2.5 37.2 3.85 42.25 6.45 46.75L3.65 57.05C3.05 59.25 5.05 61.3 7.3 60.7L17.95 57.9C22.2 60.25 27.05 61.5 32 61.5L32 61.5L32 61.5Z" id="Shape" fill="#FFFFFF" stroke="none"></path><path d="M32 55.5C28.1 55.5 24.2 54.5 20.75 52.65C19.85 52.15 18.85 51.9 17.9 51.9C17.4 51.9 16.9 51.95 16.4 52.1L10.8 53.55L12.25 48.3C12.65 46.75 12.45 45.1 11.65 43.7C9.55 40.15 8.5 36.1 8.5 32C8.5 19 19.05 8.5 32 8.5C38.3 8.5 44.2 10.95 48.65 15.4C53.05 19.8 55.5 25.7 55.5 32C55.5 44.95 44.95 55.5 32 55.5L32 55.5L32 55.5Z" id="Shape" fill="#00B1FE" stroke="none"></path><path d="M53.95 10.1C48.1 4.25 40.3 1 32 1C14.9 1 1 14.9 1 32C1 37.25 2.3 42.4 4.85 46.95L2.2 56.65C1.75 58.2 2.2 59.8 3.35 60.95C4.5 62.1 6.1 62.55 7.65 62.15L17.75 59.5C22.15 61.8 27.05 63 32.05 63C49.15 63 63.05 49.1 63.05 32C63 23.75 59.8 15.95 53.95 10.1L53.95 10.1ZM32 60C27.35 60 22.7 58.8 18.6 56.6C18.4 56.5 18.15 56.4 17.9 56.4C17.75 56.4 17.65 56.4 17.5 56.45L6.85 59.25C6.1 59.45 5.6 59.05 5.4 58.85C5.2 58.65 4.8 58.15 5 57.4L7.8 47.1C7.9 46.7 7.85 46.3 7.65 45.95C5.25 41.75 4 36.9 4 32C4 16.55 16.55 4 32 4C39.5 4 46.55 6.9 51.8 12.2C57.1 17.5 60.05 24.55 60 32C60 47.45 47.45 60 32 60L32 60Z" id="Shape" fill="#444B54" fill-rule="evenodd" stroke="none"></path><g id="Group" transform="translate(14.880859 22.974487)"><path d="M0.269495 16.0255L8.1195 3.77553C9.7695 1.22553 13.2695 0.675529 15.5695 2.62553L20.7695 6.97553C21.4195 7.52553 22.3695 7.52553 23.0195 6.97553L31.3695 0.325531C32.6195 -0.674469 34.2695 0.825531 33.4695 2.17553L25.9695 14.3755C24.1695 17.2755 20.1695 17.8755 17.6195 15.5255L13.1195 11.3755C12.4695 10.7755 11.4195 10.7255 10.7195 11.3255L2.7195 18.1755C1.2695 19.4255 -0.730505 17.6255 0.269495 16.0255L0.269495 16.0255Z" id="Shape" fill="#FFFFFF" fill-rule="evenodd" stroke="none"></path></g></g></g></svg>