<svg xmlns:xlink="http://www.w3.org/1999/xlink" xmlns="http://www.w3.org/2000/svg" width="69px" height="69px" viewBox="0 0 69 69"><defs><linearGradient x1="0.149825" y1="0.149825" x2="0.915375" y2="0.915375" id="gradient_1"><stop offset="0%" stop-color="#2AA4F4"></stop><stop offset="100%" stop-color="#007AD9"></stop></linearGradient><path d="M0 0L68.5714 0L68.5714 68.5714L0 68.5714L0 0Z" id="path_1"></path><clipPath id="mask_1"><use xlink:href="#path_1"></use></clipPath></defs><g id="Facebook-icon-3"><path d="M0 0L68.5714 0L68.5714 68.5714L0 68.5714L0 0Z" id="Background" fill="none" fill-rule="evenodd" stroke="none"></path><g clip-path="url(#mask_1)"><path d="M34.2863 5.71423C18.5063 5.71423 5.71484 18.5057 5.71484 34.2857C5.71484 50.0657 18.5063 62.8571 34.2863 62.8571C50.0663 62.8571 62.8577 50.0657 62.8577 34.2857C62.8577 18.5057 50.0663 5.71423 34.2863 5.71423L34.2863 5.71423Z" id="Shape" fill="url(#gradient_1)" stroke="none"></path><path d="M38.1534 41.8587L45.5476 41.8587L46.7091 34.3472L38.1534 34.3472L38.1534 30.2415C38.1534 27.1215 39.1734 24.3544 42.0919 24.3544L46.7819 24.3544L46.7819 17.8001C45.9576 17.6887 44.2148 17.4458 40.9219 17.4458C34.0448 17.4458 30.0134 21.0772 30.0134 29.3515L30.0134 34.3487L22.9434 34.3487L22.9434 41.8601L30.0119 41.8601L30.0119 62.5058C31.4119 62.7144 32.8305 62.8572 34.2862 62.8572C35.6019 62.8572 36.8862 62.7372 38.1534 62.5658L38.1534 41.8587L38.1534 41.8587Z" id="Shape" fill="#FFFFFF" stroke="none"></path></g></g></svg>