<svg xmlns="http://www.w3.org/2000/svg" xmlns:xlink="http://www.w3.org/1999/xlink" width="1024px" height="768px" style="shape-rendering:geometricPrecision; text-rendering:geometricPrecision; image-rendering:optimizeQuality; fill-rule:evenodd; clip-rule:evenodd"><g><path style="opacity:0.999" fill="#168dc8" d="M 502.5,117.5 C 525.108,116.537 545.774,122.37 564.5,135C 586.847,150.676 606.681,169.176 624,190.5C 652.463,225.644 677.796,262.977 700,302.5C 749.69,390.862 756.023,482.195 719,576.5C 708.856,601.307 694.356,623.14 675.5,642C 646.312,667.39 612.312,677.724 573.5,673C 538.538,668.926 505.205,659.26 473.5,644C 417.033,617.68 368.533,580.847 328,533.5C 309.718,510.269 296.718,484.269 289,455.5C 283.519,427.193 284.852,399.193 293,371.5C 304.735,336.033 320.735,302.7 341,271.5C 367.57,228.262 399.07,188.762 435.5,153C 454.743,135.24 477.076,123.406 502.5,117.5 Z"></path></g><g><path style="opacity:1" fill="#232123" d="M 473.5,257.5 C 478.167,257.5 482.833,257.5 487.5,257.5C 487.5,258.833 487.5,260.167 487.5,261.5C 487.511,263.017 488.177,264.184 489.5,265C 495.515,265.535 501.515,266.201 507.5,267C 510.072,269.287 513.072,270.453 516.5,270.5C 518.674,270.75 520.341,271.75 521.5,273.5C 526.203,277.959 530.203,282.959 533.5,288.5C 533.813,291.247 533.48,293.914 532.5,296.5C 531.817,296.137 531.15,295.804 530.5,295.5C 529.347,293.364 528.014,291.364 526.5,289.5C 525.937,286.705 524.604,284.372 522.5,282.5C 522.141,280.629 521.141,279.129 519.5,278C 516.268,276.77 513.601,274.77 511.5,272C 503.833,271.333 496.167,271.333 488.5,272C 487.743,273.512 486.743,274.846 485.5,276C 481.5,276.667 477.5,276.667 473.5,276C 471.941,274.004 471.274,271.671 471.5,269C 471.727,265.064 472.393,261.23 473.5,257.5 Z"></path></g><g><path style="opacity:1" fill="#196993" d="M 489.5,257.5 C 490.5,257.5 491.5,257.5 492.5,257.5C 492.33,258.822 492.663,259.989 493.5,261C 498.5,261.333 503.5,261.667 508.5,262C 514.24,265.189 520.24,267.689 526.5,269.5C 526.433,270.959 526.766,272.292 527.5,273.5C 521.189,270.344 514.855,267.178 508.5,264C 502.833,263.667 497.167,263.333 491.5,263C 489.845,261.556 489.178,259.722 489.5,257.5 Z"></path></g><g><path style="opacity:1" fill="#17709d" d="M 425.5,257.5 C 425.714,259.144 425.38,260.644 424.5,262C 417.321,261.943 410.321,262.943 403.5,265C 401.255,267.087 398.588,268.421 395.5,269C 392.269,272.073 388.936,274.906 385.5,277.5C 386.048,275.606 387.048,273.94 388.5,272.5C 394.569,268.532 400.903,265.032 407.5,262C 412.823,261.501 418.156,261.334 423.5,261.5C 423.157,259.517 423.824,258.183 425.5,257.5 Z"></path></g><g><path style="opacity:1" fill="#1d516d" d="M 469.5,257.5 C 470.167,257.5 470.833,257.5 471.5,257.5C 469.419,263.733 469.085,270.066 470.5,276.5C 469.85,276.196 469.183,275.863 468.5,275.5C 468.167,273.5 467.833,271.5 467.5,269.5C 467.577,265.368 468.244,261.368 469.5,257.5 Z"></path></g><g><path style="opacity:1" fill="#1e475d" d="M 445.5,257.5 C 446.167,257.5 446.833,257.5 447.5,257.5C 448.163,261.49 448.83,265.49 449.5,269.5C 449.383,272.05 448.383,274.05 446.5,275.5C 446.64,269.464 446.307,263.464 445.5,257.5 Z"></path></g><g><path style="opacity:1" fill="#203541" d="M 487.5,261.5 C 488.627,262.122 489.627,262.955 490.5,264C 500.131,263.024 508.798,265.191 516.5,270.5C 513.072,270.453 510.072,269.287 507.5,267C 501.515,266.201 495.515,265.535 489.5,265C 488.177,264.184 487.511,263.017 487.5,261.5 Z"></path></g><g><path style="opacity:1" fill="#1d4b65" d="M 487.5,257.5 C 488.167,257.5 488.833,257.5 489.5,257.5C 489.178,259.722 489.845,261.556 491.5,263C 497.167,263.333 502.833,263.667 508.5,264C 514.855,267.178 521.189,270.344 527.5,273.5C 530.385,276.835 532.719,280.501 534.5,284.5C 531.188,281.854 528.188,278.854 525.5,275.5C 524.378,274.37 523.044,273.703 521.5,273.5C 520.341,271.75 518.674,270.75 516.5,270.5C 508.798,265.191 500.131,263.024 490.5,264C 489.627,262.955 488.627,262.122 487.5,261.5C 487.5,260.167 487.5,258.833 487.5,257.5 Z"></path></g><g><path style="opacity:1" fill="#196e9a" d="M 469.5,257.5 C 468.244,261.368 467.577,265.368 467.5,269.5C 467.833,271.5 468.167,273.5 468.5,275.5C 469.183,275.863 469.85,276.196 470.5,276.5C 470.574,278.411 471.574,279.578 473.5,280C 478.155,280.499 482.821,280.666 487.5,280.5C 468.278,285.61 461.611,278.61 467.5,259.5C 467.747,258.287 468.414,257.62 469.5,257.5 Z"></path></g><g><path style="opacity:1" fill="#21313c" d="M 429.5,257.5 C 434.833,257.5 440.167,257.5 445.5,257.5C 446.307,263.464 446.64,269.464 446.5,275.5C 446.586,276.496 446.252,277.329 445.5,278C 440.5,278.667 435.5,278.667 430.5,278C 429.122,276.287 427.455,274.953 425.5,274C 420.167,273.333 414.833,273.333 409.5,274C 408.944,274.383 408.611,274.883 408.5,275.5C 405.673,275.584 403.006,276.25 400.5,277.5C 402.764,275.686 405.097,273.853 407.5,272C 414.198,271.243 420.864,271.409 427.5,272.5C 429.064,273.769 430.731,274.936 432.5,276C 436.423,276.793 440.256,276.626 444,275.5C 444.167,273.167 444.333,270.833 444.5,268.5C 444.426,265.713 443.76,263.213 442.5,261C 436.617,259.408 431.617,260.741 427.5,265C 420.695,265.062 414.028,265.896 407.5,267.5C 408.347,266.034 409.68,265.2 411.5,265C 416.5,264.667 421.5,264.333 426.5,264C 428.919,262.491 429.919,260.325 429.5,257.5 Z"></path></g><g><path style="opacity:1" fill="#1b5574" d="M 425.5,257.5 C 426.833,257.5 428.167,257.5 429.5,257.5C 429.919,260.325 428.919,262.491 426.5,264C 421.5,264.333 416.5,264.667 411.5,265C 409.68,265.2 408.347,266.034 407.5,267.5C 405.901,267.232 404.568,267.566 403.5,268.5C 398.451,268.405 394.451,270.405 391.5,274.5C 387.471,280.03 383.638,285.697 380,291.5C 379.505,293.473 379.338,295.473 379.5,297.5C 378.5,297.5 377.5,297.5 376.5,297.5C 376.5,294.833 376.5,292.167 376.5,289.5C 377.675,289.719 378.675,289.386 379.5,288.5C 381.258,284.646 383.258,280.979 385.5,277.5C 388.936,274.906 392.269,272.073 395.5,269C 398.588,268.421 401.255,267.087 403.5,265C 410.321,262.943 417.321,261.943 424.5,262C 425.38,260.644 425.714,259.144 425.5,257.5 Z"></path></g><g><path style="opacity:1" fill="#21313c" d="M 471.5,257.5 C 472.167,257.5 472.833,257.5 473.5,257.5C 472.393,261.23 471.727,265.064 471.5,269C 471.274,271.671 471.941,274.004 473.5,276C 477.5,276.667 481.5,276.667 485.5,276C 486.743,274.846 487.743,273.512 488.5,272C 496.167,271.333 503.833,271.333 511.5,272C 513.601,274.77 516.268,276.77 519.5,278C 521.141,279.129 522.141,280.629 522.5,282.5C 517.596,278.881 512.262,276.048 506.5,274C 501.167,273.333 495.833,273.333 490.5,274C 484.376,278.972 477.71,279.805 470.5,276.5C 469.085,270.066 469.419,263.733 471.5,257.5 Z"></path></g><g><path style="opacity:1" fill="#1772a1" d="M 385.5,277.5 C 383.258,280.979 381.258,284.646 379.5,288.5C 378.675,289.386 377.675,289.719 376.5,289.5C 376.5,288.167 376.5,286.833 376.5,285.5C 377.675,285.719 378.675,285.386 379.5,284.5C 380.856,281.487 382.856,279.153 385.5,277.5 Z"></path></g><g><path style="opacity:1" fill="#177db0" d="M 449.5,257.5 C 450.5,257.5 451.5,257.5 452.5,257.5C 452.666,264.508 452.5,271.508 452,278.5C 450.764,280.538 448.931,281.705 446.5,282C 440.5,282.667 434.5,282.667 428.5,282C 426.395,280.807 424.728,279.14 423.5,277C 420.833,276.333 418.167,276.333 415.5,277C 411.674,279.178 407.674,280.845 403.5,282C 395.757,286.422 392.424,293.089 393.5,302C 394.115,313.495 394.615,324.995 395,336.5C 398.673,347.875 400.173,359.542 399.5,371.5C 398.585,360.154 396.751,348.821 394,337.5C 392.858,324.488 391.692,311.488 390.5,298.5C 395.8,282.053 407.134,274.553 424.5,276C 425.833,277.333 427.167,278.667 428.5,280C 434.167,280.667 439.833,280.667 445.5,280C 447.359,278.442 448.859,276.609 450,274.5C 450.469,268.818 450.302,263.152 449.5,257.5 Z"></path></g><g><path style="opacity:1" fill="#1c5878" d="M 522.5,282.5 C 524.604,284.372 525.937,286.705 526.5,289.5C 528.507,294.218 529.507,299.218 529.5,304.5C 526.998,324.858 524.331,345.191 521.5,365.5C 520.833,368.167 520.167,370.833 519.5,373.5C 520.406,363.159 521.406,352.825 522.5,342.5C 522.5,341.833 522.5,341.167 522.5,340.5C 523.268,339.737 523.768,338.737 524,337.5C 524.214,325.943 525.048,314.443 526.5,303C 526.677,297.99 525.844,293.156 524,288.5C 520.535,286.037 517.369,283.204 514.5,280C 511.311,279.158 508.311,277.825 505.5,276C 501.167,275.333 496.833,275.333 492.5,276C 490.382,277.049 488.716,278.549 487.5,280.5C 482.821,280.666 478.155,280.499 473.5,280C 471.574,279.578 470.574,278.411 470.5,276.5C 477.71,279.805 484.376,278.972 490.5,274C 495.833,273.333 501.167,273.333 506.5,274C 512.262,276.048 517.596,278.881 522.5,282.5 Z"></path></g><g><path style="opacity:1" fill="#232224" d="M 400.5,277.5 C 397.167,281.167 393.833,284.833 390.5,288.5C 385.681,292.441 383.681,297.608 384.5,304C 385.811,313.845 387.311,323.678 389,333.5C 389.667,339.833 389.667,346.167 389,352.5C 387.307,348.001 385.474,343.668 383.5,339.5C 383.261,327.274 382.261,315.108 380.5,303C 380.912,298.428 381.745,293.928 383,289.5C 385.576,285.359 388.41,281.359 391.5,277.5C 395.564,274.416 399.564,271.416 403.5,268.5C 404.568,267.566 405.901,267.232 407.5,267.5C 414.028,265.896 420.695,265.062 427.5,265C 431.617,260.741 436.617,259.408 442.5,261C 443.76,263.213 444.426,265.713 444.5,268.5C 444.333,270.833 444.167,273.167 444,275.5C 440.256,276.626 436.423,276.793 432.5,276C 430.731,274.936 429.064,273.769 427.5,272.5C 420.864,271.409 414.198,271.243 407.5,272C 405.097,273.853 402.764,275.686 400.5,277.5 Z"></path></g><g><path style="opacity:1" fill="#1b6084" d="M 447.5,257.5 C 448.167,257.5 448.833,257.5 449.5,257.5C 450.302,263.152 450.469,268.818 450,274.5C 448.859,276.609 447.359,278.442 445.5,280C 439.833,280.667 434.167,280.667 428.5,280C 427.167,278.667 425.833,277.333 424.5,276C 407.134,274.553 395.8,282.053 390.5,298.5C 389.527,300.948 389.194,303.615 389.5,306.5C 388.357,303.024 388.19,299.358 389,295.5C 390.908,292.785 392.241,289.785 393,286.5C 398.069,282.582 403.236,278.915 408.5,275.5C 408.611,274.883 408.944,274.383 409.5,274C 414.833,273.333 420.167,273.333 425.5,274C 427.455,274.953 429.122,276.287 430.5,278C 435.5,278.667 440.5,278.667 445.5,278C 446.252,277.329 446.586,276.496 446.5,275.5C 448.383,274.05 449.383,272.05 449.5,269.5C 448.83,265.49 448.163,261.49 447.5,257.5 Z"></path></g><g><path style="opacity:1" fill="#22282e" d="M 533.5,288.5 C 535.813,292.786 537.147,297.453 537.5,302.5C 535.307,313.866 533.974,325.2 533.5,336.5C 533.817,330.091 533.317,323.757 532,317.5C 531.302,320.004 530.469,322.337 529.5,324.5C 530.148,314.847 530.482,305.18 530.5,295.5C 531.15,295.804 531.817,296.137 532.5,296.5C 533.48,293.914 533.813,291.247 533.5,288.5 Z"></path></g><g><path style="opacity:1" fill="#203644" d="M 403.5,268.5 C 399.564,271.416 395.564,274.416 391.5,277.5C 388.41,281.359 385.576,285.359 383,289.5C 381.745,293.928 380.912,298.428 380.5,303C 382.261,315.108 383.261,327.274 383.5,339.5C 383.167,339.5 382.833,339.5 382.5,339.5C 382.5,338.833 382.5,338.167 382.5,337.5C 381.311,324.177 380.311,310.843 379.5,297.5C 379.338,295.473 379.505,293.473 380,291.5C 383.638,285.697 387.471,280.03 391.5,274.5C 394.451,270.405 398.451,268.405 403.5,268.5 Z"></path></g><g><path style="opacity:1" fill="#177aac" d="M 522.5,340.5 C 523.202,328.014 523.869,315.514 524.5,303C 523.8,289.295 516.8,280.628 503.5,277C 500.167,276.333 496.833,276.333 493.5,277C 491.609,278.442 489.609,279.609 487.5,280.5C 488.716,278.549 490.382,277.049 492.5,276C 496.833,275.333 501.167,275.333 505.5,276C 508.311,277.825 511.311,279.158 514.5,280C 517.369,283.204 520.535,286.037 524,288.5C 525.844,293.156 526.677,297.99 526.5,303C 525.048,314.443 524.214,325.943 524,337.5C 523.768,338.737 523.268,339.737 522.5,340.5 Z"></path></g><g><path style="opacity:1" fill="#186b95" d="M 527.5,273.5 C 534.256,276.607 537.922,281.941 538.5,289.5C 542.079,298.472 542.412,307.472 539.5,316.5C 540.002,310.495 540.168,304.495 540,298.5C 538.815,293.745 536.982,289.412 534.5,285.5C 534.5,285.167 534.5,284.833 534.5,284.5C 532.719,280.501 530.385,276.835 527.5,273.5 Z"></path></g><g><path style="opacity:1" fill="#203b4b" d="M 521.5,273.5 C 523.044,273.703 524.378,274.37 525.5,275.5C 528.188,278.854 531.188,281.854 534.5,284.5C 534.5,284.833 534.5,285.167 534.5,285.5C 537.288,291.868 538.622,298.535 538.5,305.5C 537.114,323.313 534.78,340.98 531.5,358.5C 530.044,362.732 529.044,367.065 528.5,371.5C 528.545,359.569 530.212,347.902 533.5,336.5C 533.974,325.2 535.307,313.866 537.5,302.5C 537.147,297.453 535.813,292.786 533.5,288.5C 530.203,282.959 526.203,277.959 521.5,273.5 Z"></path></g><g><path style="opacity:1" fill="#1b5d7f" d="M 376.5,314.5 C 377.5,314.5 378.5,314.5 379.5,314.5C 379.916,319.493 380.249,324.493 380.5,329.5C 379.686,327.369 379.186,325.036 379,322.5C 378.329,321.748 377.496,321.414 376.5,321.5C 376.5,319.167 376.5,316.833 376.5,314.5 Z"></path></g><g><path style="opacity:1" fill="#1e4860" d="M 376.5,297.5 C 377.5,297.5 378.5,297.5 379.5,297.5C 380.311,310.843 381.311,324.177 382.5,337.5C 381.833,335.5 381.167,333.5 380.5,331.5C 380.5,330.833 380.5,330.167 380.5,329.5C 380.249,324.493 379.916,319.493 379.5,314.5C 378.5,314.5 377.5,314.5 376.5,314.5C 376.5,308.833 376.5,303.167 376.5,297.5 Z"></path></g><g><path style="opacity:1" fill="#1d4b64" d="M 408.5,275.5 C 403.236,278.915 398.069,282.582 393,286.5C 392.241,289.785 390.908,292.785 389,295.5C 388.19,299.358 388.357,303.024 389.5,306.5C 391.556,329.676 394.556,352.676 398.5,375.5C 398.467,379.869 398.8,384.202 399.5,388.5C 397.792,384.627 396.458,380.627 395.5,376.5C 395.677,372.766 395.344,369.099 394.5,365.5C 392.767,353.924 391.601,342.257 391,330.5C 387.449,319.079 386.115,307.413 387,295.5C 388.267,293.186 389.434,290.852 390.5,288.5C 393.833,284.833 397.167,281.167 400.5,277.5C 403.006,276.25 405.673,275.584 408.5,275.5 Z"></path></g><g><path style="opacity:1" fill="#1e4b63" d="M 658.5,324.5 C 667.914,326.703 674.914,332.036 679.5,340.5C 675.718,336.377 671.385,333.043 666.5,330.5C 663.735,328.617 661.069,326.617 658.5,324.5 Z"></path></g><g><path style="opacity:1" fill="#203f51" d="M 659.5,333.5 C 668.272,337.106 674.105,343.439 677,352.5C 678,353.5 679,354.5 680,355.5C 680.667,360.5 680.667,365.5 680,370.5C 679.617,371.056 679.117,371.389 678.5,371.5C 678.666,366.821 678.499,362.155 678,357.5C 677.8,355.68 676.966,354.347 675.5,353.5C 674.944,348.324 672.61,344.158 668.5,341C 663.404,337.785 658.071,335.119 652.5,333C 647.096,332.228 641.762,332.561 636.5,334C 632.833,336.333 629.167,338.667 625.5,341C 621.921,344.904 618.755,349.071 616,353.5C 613.688,362.418 614.354,371.085 618,379.5C 622.364,385.03 627.198,390.03 632.5,394.5C 631.833,394.5 631.167,394.5 630.5,394.5C 625.19,389.359 619.69,384.359 614,379.5C 613.333,371.167 613.333,362.833 614,354.5C 614.471,352.754 615.138,351.087 616,349.5C 618.706,347.129 621.039,344.463 623,341.5C 626.692,338.635 630.192,335.635 633.5,332.5C 642.31,330.901 650.977,331.234 659.5,333.5 Z"></path></g><g><path style="opacity:1" fill="#1589c3" d="M 667.5,344.5 C 668.031,346.544 669.198,348.211 671,349.5C 674.386,357.914 675.219,366.581 673.5,375.5C 673.5,376.167 673.5,376.833 673.5,377.5C 670.399,380.835 667.399,384.335 664.5,388C 659.449,388.669 654.782,390.335 650.5,393C 646.833,393.667 643.167,393.667 639.5,393C 633.95,390.997 628.95,388.164 624.5,384.5C 612.2,367.399 614.2,352.232 630.5,339C 633.557,339.107 635.891,337.94 637.5,335.5C 642.131,334.338 646.798,334.172 651.5,335C 655.643,337.05 659.976,338.716 664.5,340C 666.141,341.129 667.141,342.629 667.5,344.5 Z"></path></g><g><path style="opacity:1" fill="#1f4053" d="M 658.5,324.5 C 652.017,323.324 645.683,323.324 639.5,324.5C 632.488,327.001 625.822,330.167 619.5,334C 617.707,336.795 615.54,339.295 613,341.5C 611.843,345.971 609.843,349.971 607,353.5C 606.302,361.528 606.468,369.528 607.5,377.5C 606.833,376.833 606.167,376.167 605.5,375.5C 605.334,367.826 605.5,360.159 606,352.5C 608.843,348.971 610.843,344.971 612,340.5C 614.04,338.63 615.873,336.63 617.5,334.5C 619.294,332.203 621.294,330.037 623.5,328C 633.935,322.851 644.935,321.184 656.5,323C 657.416,323.278 658.082,323.778 658.5,324.5 Z"></path></g><g><path style="opacity:1" fill="#167aac" d="M 662.5,323.5 C 648.752,319.972 635.418,321.139 622.5,327C 619.579,329.749 616.912,332.583 614.5,335.5C 612.629,335.859 611.129,336.859 610,338.5C 606.14,344.933 603.973,351.933 603.5,359.5C 602.521,362.625 602.187,365.958 602.5,369.5C 600.776,357.865 602.943,346.865 609,336.5C 613.752,333.752 617.919,330.252 621.5,326C 624.864,324.318 628.198,322.651 631.5,321C 640.833,320.333 650.167,320.333 659.5,321C 660.942,321.377 661.942,322.21 662.5,323.5 Z"></path></g><g><path style="opacity:1" fill="#203543" d="M 666.5,330.5 C 671.385,333.043 675.718,336.377 679.5,340.5C 681.587,341.585 682.92,343.251 683.5,345.5C 686.658,356.312 687.324,367.312 685.5,378.5C 685.5,378.833 685.5,379.167 685.5,379.5C 684.833,380.167 684.167,380.833 683.5,381.5C 683.564,376.061 684.23,370.728 685.5,365.5C 684.386,360.247 683.552,354.914 683,349.5C 678.752,342.085 673.252,335.752 666.5,330.5 Z"></path></g><g><path style="opacity:1" fill="#177eb3" d="M 538.5,289.5 C 539.794,290.29 540.961,291.29 542,292.5C 542.667,304.167 542.667,315.833 542,327.5C 540.629,330.66 539.629,333.994 539,337.5C 538.665,345.529 537.998,353.529 537,361.5C 535.541,363.432 534.375,365.432 533.5,367.5C 533.5,365.833 533.5,364.167 533.5,362.5C 534.858,347.073 536.858,331.74 539.5,316.5C 542.412,307.472 542.079,298.472 538.5,289.5 Z"></path></g><g><path style="opacity:1" fill="#196790" d="M 662.5,323.5 C 668.048,324.694 672.881,327.361 677,331.5C 679.422,335.344 682.089,339.01 685,342.5C 686.128,344.345 686.628,346.345 686.5,348.5C 685.728,347.306 684.728,346.306 683.5,345.5C 682.92,343.251 681.587,341.585 679.5,340.5C 674.914,332.036 667.914,326.703 658.5,324.5C 658.082,323.778 657.416,323.278 656.5,323C 644.935,321.184 633.935,322.851 623.5,328C 621.294,330.037 619.294,332.203 617.5,334.5C 616.391,334.557 615.391,334.89 614.5,335.5C 616.912,332.583 619.579,329.749 622.5,327C 635.418,321.139 648.752,319.972 662.5,323.5 Z"></path></g><g><path style="opacity:1" fill="#222c34" d="M 639.5,324.5 C 645.683,323.324 652.017,323.324 658.5,324.5C 661.069,326.617 663.735,328.617 666.5,330.5C 663.823,329.386 661.156,329.386 658.5,330.5C 659.127,331.417 659.461,332.417 659.5,333.5C 650.977,331.234 642.31,330.901 633.5,332.5C 633.804,331.85 634.137,331.183 634.5,330.5C 642.167,329.833 649.833,329.167 657.5,328.5C 656.5,327.667 655.5,326.833 654.5,326C 649.566,324.84 644.566,324.34 639.5,324.5 Z"></path></g><g><path style="opacity:1" fill="#1c5a7a" d="M 534.5,285.5 C 536.982,289.412 538.815,293.745 540,298.5C 540.168,304.495 540.002,310.495 539.5,316.5C 536.858,331.74 534.858,347.073 533.5,362.5C 532.833,362.5 532.167,362.5 531.5,362.5C 531.5,361.167 531.5,359.833 531.5,358.5C 534.78,340.98 537.114,323.313 538.5,305.5C 538.622,298.535 537.288,291.868 534.5,285.5 Z"></path></g><g><path style="opacity:1" fill="#1876a7" d="M 654.5,346.5 C 650.192,345.632 645.859,345.466 641.5,346C 638.36,346.991 636.026,348.824 634.5,351.5C 632.086,352.911 630.419,354.911 629.5,357.5C 628.833,357.833 628.167,358.167 627.5,358.5C 627.343,357.127 627.51,355.793 628,354.5C 633.74,346.363 641.573,342.863 651.5,344C 652.942,344.377 653.942,345.21 654.5,346.5 Z"></path></g><g><path style="opacity:1" fill="#1878aa" d="M 376.5,321.5 C 377.496,321.414 378.329,321.748 379,322.5C 379.186,325.036 379.686,327.369 380.5,329.5C 380.5,330.167 380.5,330.833 380.5,331.5C 379.543,343.195 381.043,354.529 385,365.5C 385.378,373.848 385.878,382.181 386.5,390.5C 384.84,384.092 384.007,377.425 384,370.5C 380.201,358.144 378.701,345.477 379.5,332.5C 378.5,332.5 377.5,332.5 376.5,332.5C 376.5,328.833 376.5,325.167 376.5,321.5 Z"></path></g><g><path style="opacity:1" fill="#212c34" d="M 390.5,288.5 C 389.434,290.852 388.267,293.186 387,295.5C 386.115,307.413 387.449,319.079 391,330.5C 391.601,342.257 392.767,353.924 394.5,365.5C 392.984,362.62 391.484,359.62 390,356.5C 389.501,362.157 389.334,367.824 389.5,373.5C 386.894,362.38 384.894,351.046 383.5,339.5C 385.474,343.668 387.307,348.001 389,352.5C 389.667,346.167 389.667,339.833 389,333.5C 387.311,323.678 385.811,313.845 384.5,304C 383.681,297.608 385.681,292.441 390.5,288.5 Z"></path></g><g><path style="opacity:1" fill="#1a6085" d="M 654.5,346.5 C 657.771,349.268 660.938,352.268 664,355.5C 664.814,360.02 664.647,364.354 663.5,368.5C 663.813,364.958 663.479,361.625 662.5,358.5C 660.698,353.229 657.032,349.729 651.5,348C 645.246,346.685 639.58,347.852 634.5,351.5C 636.026,348.824 638.36,346.991 641.5,346C 645.859,345.466 650.192,345.632 654.5,346.5 Z"></path></g><g><path style="opacity:1" fill="#1879ab" d="M 654.5,346.5 C 655.873,346.343 657.207,346.51 658.5,347C 667.056,355.041 668.89,364.541 664,375.5C 662.549,378.303 660.382,380.303 657.5,381.5C 660.217,379.091 662.217,376.091 663.5,372.5C 663.5,371.167 663.5,369.833 663.5,368.5C 664.647,364.354 664.814,360.02 664,355.5C 660.938,352.268 657.771,349.268 654.5,346.5 Z"></path></g><g><path style="opacity:1" fill="#1f4154" d="M 662.5,358.5 C 662.666,362.846 662.499,367.179 662,371.5C 660.951,373.618 659.451,375.284 657.5,376.5C 658.471,374.517 659.471,372.517 660.5,370.5C 661.527,366.554 661.694,362.554 661,358.5C 658.719,355.097 655.886,352.263 652.5,350C 648.167,349.333 643.833,349.333 639.5,350C 637.285,351.379 635.619,353.213 634.5,355.5C 633.542,355.953 632.708,356.619 632,357.5C 631.501,361.486 631.334,365.486 631.5,369.5C 630.25,369.423 629.417,368.756 629,367.5C 628.341,364.112 628.508,360.779 629.5,357.5C 630.419,354.911 632.086,352.911 634.5,351.5C 639.58,347.852 645.246,346.685 651.5,348C 657.032,349.729 660.698,353.229 662.5,358.5 Z"></path></g><g><path style="opacity:1" fill="#1f4054" d="M 654.5,367.5 C 654.631,370.367 653.297,372.033 650.5,372.5C 647.813,372.664 645.146,372.497 642.5,372C 641.347,370.117 639.681,369.284 637.5,369.5C 636.157,359.342 640.49,355.175 650.5,357C 654.048,359.591 655.382,363.091 654.5,367.5 Z"></path></g><g><path style="opacity:1" fill="#1b597a" d="M 617.5,334.5 C 615.873,336.63 614.04,338.63 612,340.5C 610.843,344.971 608.843,348.971 606,352.5C 605.5,360.159 605.334,367.826 605.5,375.5C 603.74,370.447 603.073,365.114 603.5,359.5C 603.973,351.933 606.14,344.933 610,338.5C 611.129,336.859 612.629,335.859 614.5,335.5C 615.391,334.89 616.391,334.557 617.5,334.5 Z"></path></g><g><path style="opacity:1" fill="#203949" d="M 526.5,289.5 C 528.014,291.364 529.347,293.364 530.5,295.5C 530.482,305.18 530.148,314.847 529.5,324.5C 528.732,325.263 528.232,326.263 528,327.5C 528.065,339.013 526.732,350.346 524,361.5C 523.392,363.066 522.558,364.4 521.5,365.5C 524.331,345.191 526.998,324.858 529.5,304.5C 529.507,299.218 528.507,294.218 526.5,289.5 Z"></path></g><g><path style="opacity:1" fill="#1b516e" d="M 675.5,353.5 C 676.966,354.347 677.8,355.68 678,357.5C 678.499,362.155 678.666,366.821 678.5,371.5C 677.127,374.343 676.127,377.343 675.5,380.5C 674.167,381.5 672.833,382.5 671.5,383.5C 672.167,381.5 672.833,379.5 673.5,377.5C 673.5,376.833 673.5,376.167 673.5,375.5C 675.659,372.054 676.992,368.221 677.5,364C 677.519,360.281 676.852,356.781 675.5,353.5 Z"></path></g><g><path style="opacity:1" fill="#1b5b7d" d="M 652.5,367.5 C 651.907,359.429 648.074,357.429 641,361.5C 640.506,368.16 643.673,370.826 650.5,369.5C 650.389,370.117 650.056,370.617 649.5,371C 647.5,371.667 645.5,371.667 643.5,371C 637.282,367.043 636.948,362.709 642.5,358C 646.898,356.622 650.398,357.788 653,361.5C 653.789,363.712 653.622,365.712 652.5,367.5 Z"></path></g><g><path style="opacity:1" fill="#1d4b64" d="M 683.5,345.5 C 684.728,346.306 685.728,347.306 686.5,348.5C 687.287,350.104 688.62,350.771 690.5,350.5C 690.5,358.833 690.5,367.167 690.5,375.5C 688.041,375.31 686.374,376.31 685.5,378.5C 687.324,367.312 686.658,356.312 683.5,345.5 Z"></path></g><g><path style="opacity:1" fill="#1973a3" d="M 667.5,344.5 C 670.936,346.929 673.603,349.929 675.5,353.5C 676.852,356.781 677.519,360.281 677.5,364C 676.992,368.221 675.659,372.054 673.5,375.5C 675.219,366.581 674.386,357.914 671,349.5C 669.198,348.211 668.031,346.544 667.5,344.5 Z"></path></g><g><path style="opacity:1" fill="#1a6c99" d="M 522.5,342.5 C 521.406,352.825 520.406,363.159 519.5,373.5C 519.5,374.167 519.5,374.833 519.5,375.5C 518.833,376.167 518.167,376.833 517.5,377.5C 518.006,366.435 519.173,355.435 521,344.5C 521.278,343.584 521.778,342.918 522.5,342.5 Z"></path></g><g><path style="opacity:1" fill="#222327" d="M 533.5,336.5 C 530.212,347.902 528.545,359.569 528.5,371.5C 526.19,383.056 524.523,394.723 523.5,406.5C 520.134,416.243 516.3,425.91 512,435.5C 507.976,441.082 502.81,445.082 496.5,447.5C 492.951,447.439 489.618,448.273 486.5,450C 479.5,450.333 472.5,450.667 465.5,451C 463.671,451.273 462.171,452.107 461,453.5C 460.333,475.833 460.333,498.167 461,520.5C 462.669,527.841 464.335,535.174 466,542.5C 468.82,549.411 472.654,555.745 477.5,561.5C 482.645,564.811 486.978,568.978 490.5,574C 492.134,574.494 493.801,574.66 495.5,574.5C 500.172,577.671 505.172,580.004 510.5,581.5C 511.347,582.966 512.68,583.8 514.5,584C 539.833,584.667 565.167,584.667 590.5,584C 595.125,580.901 600.125,578.568 605.5,577C 606.71,575.961 607.71,574.794 608.5,573.5C 609.391,572.89 610.391,572.557 611.5,572.5C 612.552,572.649 613.552,572.483 614.5,572C 615.103,569.929 616.436,568.762 618.5,568.5C 617.496,569.683 616.662,571.016 616,572.5C 612.388,574.019 609.888,576.019 608.5,578.5C 610.898,579.724 613.231,579.558 615.5,578C 622.351,572.315 628.684,566.148 634.5,559.5C 631.565,564.765 627.899,569.432 623.5,573.5C 621.142,575.529 618.808,577.529 616.5,579.5C 612.183,580.101 608.516,581.935 605.5,585C 599.929,585.227 594.595,586.394 589.5,588.5C 590.058,587.21 591.058,586.377 592.5,586C 566.835,585.5 541.169,585.333 515.5,585.5C 516.077,588.645 518.077,590.145 521.5,590C 542.524,590.788 563.524,590.621 584.5,589.5C 583.791,590.404 582.791,590.737 581.5,590.5C 581.5,591.5 581.5,592.5 581.5,593.5C 559.167,593.5 536.833,593.5 514.5,593.5C 514.579,592.07 514.246,590.736 513.5,589.5C 508.904,588.104 504.237,586.937 499.5,586C 498.743,584.488 497.743,583.154 496.5,582C 492.502,580.663 489.168,578.33 486.5,575C 485.207,574.51 483.873,574.343 482.5,574.5C 478.726,571.062 475.726,567.062 473.5,562.5C 472.103,560.763 470.436,559.429 468.5,558.5C 466.833,555.833 465.167,553.167 463.5,550.5C 462.571,545.422 460.737,540.755 458,536.5C 457.103,530.194 456.603,523.861 456.5,517.5C 456.667,496.831 456.5,476.164 456,455.5C 455.583,454.244 454.75,453.577 453.5,453.5C 453.389,452.883 453.056,452.383 452.5,452C 440.443,452.641 428.777,450.974 417.5,447C 411.44,442.286 406.94,436.452 404,429.5C 402.187,427.375 400.353,425.375 398.5,423.5C 398.5,423.167 398.5,422.833 398.5,422.5C 397.898,418.636 396.732,414.969 395,411.5C 393.398,398.784 391.564,386.117 389.5,373.5C 389.334,367.824 389.501,362.157 390,356.5C 391.484,359.62 392.984,362.62 394.5,365.5C 395.344,369.099 395.677,372.766 395.5,376.5C 396.831,391.824 399.664,406.824 404,421.5C 404.671,422.252 405.504,422.586 406.5,422.5C 406.215,424.288 406.548,425.955 407.5,427.5C 411.5,431.833 415.5,436.167 419.5,440.5C 420.689,441.429 422.022,441.762 423.5,441.5C 424.749,443.136 426.416,444.303 428.5,445C 446.833,445.667 465.167,445.667 483.5,445C 488.118,444.431 492.451,443.098 496.5,441C 498.43,437.947 500.93,435.447 504,433.5C 507.981,427.649 511.481,421.649 514.5,415.5C 515.222,415.082 515.722,414.416 516,413.5C 516.333,408.5 516.667,403.5 517,398.5C 521.055,388.013 522.555,377.013 521.5,365.5C 522.558,364.4 523.392,363.066 524,361.5C 526.732,350.346 528.065,339.013 528,327.5C 528.232,326.263 528.732,325.263 529.5,324.5C 530.469,322.337 531.302,320.004 532,317.5C 533.317,323.757 533.817,330.091 533.5,336.5 Z"></path></g><g><path style="opacity:1" fill="#18668e" d="M 531.5,362.5 C 532.167,362.5 532.833,362.5 533.5,362.5C 533.5,364.167 533.5,365.833 533.5,367.5C 532.253,373.63 531.586,379.963 531.5,386.5C 529.25,390.624 527.584,394.957 526.5,399.5C 528.264,387.043 529.931,374.71 531.5,362.5 Z"></path></g><g><path style="opacity:1" fill="#222a31" d="M 654.5,367.5 C 655.382,363.091 654.048,359.591 650.5,357C 640.49,355.175 636.157,359.342 637.5,369.5C 639.681,369.284 641.347,370.117 642.5,372C 645.146,372.497 647.813,372.664 650.5,372.5C 649.223,373.898 647.557,374.564 645.5,374.5C 642.563,373.53 639.563,372.863 636.5,372.5C 636.297,374.39 636.963,375.89 638.5,377C 643.833,377.667 649.167,377.667 654.5,377C 656.041,375.421 657.208,373.587 658,371.5C 658.671,370.748 659.504,370.414 660.5,370.5C 659.471,372.517 658.471,374.517 657.5,376.5C 656.317,377.504 654.984,378.338 653.5,379C 643.069,382.298 635.736,379.132 631.5,369.5C 631.334,365.486 631.501,361.486 632,357.5C 632.708,356.619 633.542,355.953 634.5,355.5C 633.61,357.782 633.444,360.115 634,362.5C 636.537,359.628 639.37,357.128 642.5,355C 652.402,354.059 656.402,358.225 654.5,367.5 Z"></path></g><g><path style="opacity:1" fill="#222428" d="M 666.5,330.5 C 673.252,335.752 678.752,342.085 683,349.5C 683.552,354.914 684.386,360.247 685.5,365.5C 684.23,370.728 683.564,376.061 683.5,381.5C 680.313,384.531 677.647,388.031 675.5,392C 671.704,393.662 668.37,395.829 665.5,398.5C 663.833,398.5 662.167,398.5 660.5,398.5C 660.5,397.5 660.5,396.5 660.5,395.5C 667.16,392.173 672.16,387.173 675.5,380.5C 676.127,377.343 677.127,374.343 678.5,371.5C 679.117,371.389 679.617,371.056 680,370.5C 680.667,365.5 680.667,360.5 680,355.5C 679,354.5 678,353.5 677,352.5C 674.105,343.439 668.272,337.106 659.5,333.5C 659.461,332.417 659.127,331.417 658.5,330.5C 661.156,329.386 663.823,329.386 666.5,330.5 Z"></path></g><g><path style="opacity:1" fill="#222123" d="M 660.5,370.5 C 659.504,370.414 658.671,370.748 658,371.5C 657.208,373.587 656.041,375.421 654.5,377C 649.167,377.667 643.833,377.667 638.5,377C 636.963,375.89 636.297,374.39 636.5,372.5C 639.563,372.863 642.563,373.53 645.5,374.5C 647.557,374.564 649.223,373.898 650.5,372.5C 653.297,372.033 654.631,370.367 654.5,367.5C 656.402,358.225 652.402,354.059 642.5,355C 639.37,357.128 636.537,359.628 634,362.5C 633.444,360.115 633.61,357.782 634.5,355.5C 635.619,353.213 637.285,351.379 639.5,350C 643.833,349.333 648.167,349.333 652.5,350C 655.886,352.263 658.719,355.097 661,358.5C 661.694,362.554 661.527,366.554 660.5,370.5 Z"></path></g><g><path style="opacity:1" fill="#1a6a92" d="M 663.5,372.5 C 662.217,376.091 660.217,379.091 657.5,381.5C 654.058,382.634 650.558,383.634 647,384.5C 643.592,384.755 640.759,383.755 638.5,381.5C 649.035,383.96 657.368,380.96 663.5,372.5 Z"></path></g><g><path style="opacity:1" fill="#1c5878" d="M 519.5,375.5 C 518.345,381.443 517.512,387.443 517,393.5C 516.722,394.416 516.222,395.082 515.5,395.5C 516.021,389.81 516.688,384.144 517.5,378.5C 517.5,378.167 517.5,377.833 517.5,377.5C 518.167,376.833 518.833,376.167 519.5,375.5 Z"></path></g><g><path style="opacity:1" fill="#203847" d="M 521.5,365.5 C 522.555,377.013 521.055,388.013 517,398.5C 516.667,403.5 516.333,408.5 516,413.5C 515.722,414.416 515.222,415.082 514.5,415.5C 514.5,412.833 514.5,410.167 514.5,407.5C 515.43,403.6 515.763,399.6 515.5,395.5C 516.222,395.082 516.722,394.416 517,393.5C 517.512,387.443 518.345,381.443 519.5,375.5C 519.5,374.833 519.5,374.167 519.5,373.5C 520.167,370.833 520.833,368.167 521.5,365.5 Z"></path></g><g><path style="opacity:1" fill="#232428" d="M 639.5,324.5 C 644.566,324.34 649.566,324.84 654.5,326C 655.5,326.833 656.5,327.667 657.5,328.5C 649.833,329.167 642.167,329.833 634.5,330.5C 634.137,331.183 633.804,331.85 633.5,332.5C 630.192,335.635 626.692,338.635 623,341.5C 621.039,344.463 618.706,347.129 616,349.5C 615.138,351.087 614.471,352.754 614,354.5C 613.333,362.833 613.333,371.167 614,379.5C 619.69,384.359 625.19,389.359 630.5,394.5C 631.234,395.708 631.567,397.041 631.5,398.5C 629.833,398.5 628.167,398.5 626.5,398.5C 621.407,394.957 616.74,390.957 612.5,386.5C 612.525,382.86 610.858,380.527 607.5,379.5C 607.5,378.833 607.5,378.167 607.5,377.5C 606.468,369.528 606.302,361.528 607,353.5C 609.843,349.971 611.843,345.971 613,341.5C 615.54,339.295 617.707,336.795 619.5,334C 625.822,330.167 632.488,327.001 639.5,324.5 Z"></path></g><g><path style="opacity:1" fill="#1e516c" d="M 629.5,357.5 C 628.508,360.779 628.341,364.112 629,367.5C 629.417,368.756 630.25,369.423 631.5,369.5C 635.736,379.132 643.069,382.298 653.5,379C 654.984,378.338 656.317,377.504 657.5,376.5C 659.451,375.284 660.951,373.618 662,371.5C 662.499,367.179 662.666,362.846 662.5,358.5C 663.479,361.625 663.813,364.958 663.5,368.5C 663.5,369.833 663.5,371.167 663.5,372.5C 657.368,380.96 649.035,383.96 638.5,381.5C 635.805,381.067 633.638,379.734 632,377.5C 630.333,374.167 628.667,370.833 627,367.5C 626.366,364.445 626.532,361.445 627.5,358.5C 628.167,358.167 628.833,357.833 629.5,357.5 Z"></path></g><g><path style="opacity:1" fill="#1877a8" d="M 652.5,367.5 C 652.167,368.5 651.5,369.167 650.5,369.5C 643.673,370.826 640.506,368.16 641,361.5C 648.074,357.429 651.907,359.429 652.5,367.5 Z"></path></g><g><path style="opacity:1" fill="#158cc8" d="M 644.5,361.5 C 649.5,360.5 651.5,362.5 650.5,367.5C 648.167,367.5 645.833,367.5 643.5,367.5C 643.325,365.379 643.659,363.379 644.5,361.5 Z"></path></g><g><path style="opacity:1" fill="#1a597a" d="M 398.5,375.5 C 401.548,384.78 403.214,394.447 403.5,404.5C 402.999,400.866 401.666,397.532 399.5,394.5C 399.5,392.5 399.5,390.5 399.5,388.5C 398.8,384.202 398.467,379.869 398.5,375.5 Z"></path></g><g><path style="opacity:1" fill="#1b6185" d="M 675.5,353.5 C 673.603,349.929 670.936,346.929 667.5,344.5C 667.141,342.629 666.141,341.129 664.5,340C 659.976,338.716 655.643,337.05 651.5,335C 646.798,334.172 642.131,334.338 637.5,335.5C 635.891,337.94 633.557,339.107 630.5,339C 614.2,352.232 612.2,367.399 624.5,384.5C 633.322,395.011 644.322,398.011 657.5,393.5C 656.653,394.966 655.32,395.8 653.5,396C 648.845,396.499 644.179,396.666 639.5,396.5C 637.079,396.122 634.746,395.455 632.5,394.5C 627.198,390.03 622.364,385.03 618,379.5C 614.354,371.085 613.688,362.418 616,353.5C 618.755,349.071 621.921,344.904 625.5,341C 629.167,338.667 632.833,336.333 636.5,334C 641.762,332.561 647.096,332.228 652.5,333C 658.071,335.119 663.404,337.785 668.5,341C 672.61,344.158 674.944,348.324 675.5,353.5 Z"></path></g><g><path style="opacity:1" fill="#20323d" d="M 395.5,376.5 C 396.458,380.627 397.792,384.627 399.5,388.5C 399.5,390.5 399.5,392.5 399.5,394.5C 400.894,401.083 402.061,407.749 403,414.5C 403.2,416.32 404.034,417.653 405.5,418.5C 406.434,419.568 406.768,420.901 406.5,422.5C 405.504,422.586 404.671,422.252 404,421.5C 399.664,406.824 396.831,391.824 395.5,376.5 Z"></path></g><g><path style="opacity:1" fill="#186b95" d="M 390.5,298.5 C 391.692,311.488 392.858,324.488 394,337.5C 396.751,348.821 398.585,360.154 399.5,371.5C 400.471,377.682 401.971,383.682 404,389.5C 404.169,397.884 404.836,406.218 406,414.5C 408.646,418.744 411.146,423.077 413.5,427.5C 413.5,428.167 413.5,428.833 413.5,429.5C 411.167,427.167 408.833,424.833 406.5,422.5C 406.768,420.901 406.434,419.568 405.5,418.5C 403.887,413.993 403.221,409.327 403.5,404.5C 403.214,394.447 401.548,384.78 398.5,375.5C 394.556,352.676 391.556,329.676 389.5,306.5C 389.194,303.615 389.527,300.948 390.5,298.5 Z"></path></g><g><path style="opacity:1" fill="#1d4860" d="M 531.5,358.5 C 531.5,359.833 531.5,361.167 531.5,362.5C 529.931,374.71 528.264,387.043 526.5,399.5C 525.728,403.75 525.228,408.083 525,412.5C 522.772,417.595 520.605,422.595 518.5,427.5C 520.349,420.604 522.015,413.604 523.5,406.5C 524.523,394.723 526.19,383.056 528.5,371.5C 529.044,367.065 530.044,362.732 531.5,358.5 Z"></path></g><g><path style="opacity:1" fill="#187caf" d="M 690.5,375.5 C 690.5,378.167 690.5,380.833 690.5,383.5C 689.448,383.351 688.448,383.517 687.5,384C 685.502,390.497 681.502,395.33 675.5,398.5C 676.451,396.38 677.951,394.714 680,393.5C 682.067,388.93 683.9,384.264 685.5,379.5C 685.5,379.167 685.5,378.833 685.5,378.5C 686.374,376.31 688.041,375.31 690.5,375.5 Z"></path></g><g><path style="opacity:1" fill="#1a6890" d="M 380.5,331.5 C 381.167,333.5 381.833,335.5 382.5,337.5C 382.5,338.167 382.5,338.833 382.5,339.5C 385.67,364.18 389.17,388.847 393,413.5C 394.194,416.953 396.027,419.953 398.5,422.5C 398.5,422.833 398.5,423.167 398.5,423.5C 399.466,427.407 400.799,431.073 402.5,434.5C 405.434,438.773 408.767,442.773 412.5,446.5C 408.728,443.906 405.061,441.073 401.5,438C 393.683,427.211 389.85,415.044 390,401.5C 389.591,397.509 388.424,393.843 386.5,390.5C 385.878,382.181 385.378,373.848 385,365.5C 381.043,354.529 379.543,343.195 380.5,331.5 Z"></path></g><g><path style="opacity:1" fill="#21343f" d="M 612.5,386.5 C 616.74,390.957 621.407,394.957 626.5,398.5C 626.5,398.833 626.5,399.167 626.5,399.5C 621.372,397.153 616.872,393.82 613,389.5C 612.517,388.552 612.351,387.552 612.5,386.5 Z"></path></g><g><path style="opacity:1" fill="#18709c" d="M 673.5,377.5 C 672.833,379.5 672.167,381.5 671.5,383.5C 667.576,387.802 662.909,391.136 657.5,393.5C 644.322,398.011 633.322,395.011 624.5,384.5C 628.95,388.164 633.95,390.997 639.5,393C 643.167,393.667 646.833,393.667 650.5,393C 654.782,390.335 659.449,388.669 664.5,388C 667.399,384.335 670.399,380.835 673.5,377.5 Z"></path></g><g><path style="opacity:1" fill="#1f4357" d="M 675.5,380.5 C 672.16,387.173 667.16,392.173 660.5,395.5C 653.491,397.678 646.491,398.011 639.5,396.5C 644.179,396.666 648.845,396.499 653.5,396C 655.32,395.8 656.653,394.966 657.5,393.5C 662.909,391.136 667.576,387.802 671.5,383.5C 672.833,382.5 674.167,381.5 675.5,380.5 Z"></path></g><g><path style="opacity:1" fill="#1f4357" d="M 382.5,339.5 C 382.833,339.5 383.167,339.5 383.5,339.5C 384.894,351.046 386.894,362.38 389.5,373.5C 391.564,386.117 393.398,398.784 395,411.5C 396.732,414.969 397.898,418.636 398.5,422.5C 396.027,419.953 394.194,416.953 393,413.5C 389.17,388.847 385.67,364.18 382.5,339.5 Z"></path></g><g><path style="opacity:1" fill="#1c648a" d="M 517.5,378.5 C 516.688,384.144 516.021,389.81 515.5,395.5C 515.763,399.6 515.43,403.6 514.5,407.5C 514.02,410.078 513.02,412.412 511.5,414.5C 511.833,411.833 512.167,409.167 512.5,406.5C 513.31,398.552 514.143,390.552 515,382.5C 515.608,380.934 516.442,379.6 517.5,378.5 Z"></path></g><g><path style="opacity:1" fill="#1d485f" d="M 607.5,379.5 C 610.858,380.527 612.525,382.86 612.5,386.5C 612.351,387.552 612.517,388.552 613,389.5C 616.872,393.82 621.372,397.153 626.5,399.5C 632,401.501 637.167,404.168 642,407.5C 642.667,447.167 642.667,486.833 642,526.5C 641.395,530.369 640.229,534.035 638.5,537.5C 637.734,542.36 635.4,546.36 631.5,549.5C 634.878,544.051 637.211,538.051 638.5,531.5C 640.011,529.524 640.844,527.191 641,524.5C 641.667,485.833 641.667,447.167 641,408.5C 639.871,406.859 638.371,405.859 636.5,405.5C 633.136,406.211 630.803,405.044 629.5,402C 627.167,401.667 624.833,401.333 622.5,401C 618.667,397.167 614.833,393.333 611,389.5C 609.224,386.403 608.057,383.07 607.5,379.5 Z"></path></g><g><path style="opacity:1" fill="#212e38" d="M 630.5,394.5 C 631.167,394.5 631.833,394.5 632.5,394.5C 634.746,395.455 637.079,396.122 639.5,396.5C 646.491,398.011 653.491,397.678 660.5,395.5C 660.5,396.5 660.5,397.5 660.5,398.5C 662.167,398.5 663.833,398.5 665.5,398.5C 661.915,400.959 657.915,402.959 653.5,404.5C 654.174,402.976 655.174,401.642 656.5,400.5C 649.532,399.503 642.532,399.17 635.5,399.5C 635.5,400.5 635.5,401.5 635.5,402.5C 639.138,402.738 641.971,404.404 644,407.5C 644.667,445.167 644.667,482.833 644,520.5C 643.497,525.19 642.83,529.857 642,534.5C 640.209,537.35 639.042,540.35 638.5,543.5C 638.5,541.5 638.5,539.5 638.5,537.5C 640.229,534.035 641.395,530.369 642,526.5C 642.667,486.833 642.667,447.167 642,407.5C 637.167,404.168 632,401.501 626.5,399.5C 626.5,399.167 626.5,398.833 626.5,398.5C 628.167,398.5 629.833,398.5 631.5,398.5C 631.567,397.041 631.234,395.708 630.5,394.5 Z"></path></g><g><path style="opacity:1" fill="#212c34" d="M 651.5,404.5 C 651.217,405.289 650.717,405.956 650,406.5C 649.667,445.5 649.333,484.5 649,523.5C 648.452,527.17 647.952,530.837 647.5,534.5C 647.59,537.152 646.924,539.485 645.5,541.5C 645.846,535.112 646.679,528.778 648,522.5C 648.333,483.5 648.667,444.5 649,405.5C 649.671,404.748 650.504,404.414 651.5,404.5 Z"></path></g><g><path style="opacity:1" fill="#1f3948" d="M 651.5,404.5 C 652.167,404.5 652.833,404.5 653.5,404.5C 652.878,405.627 652.045,406.627 651,407.5C 650.5,446.165 650.333,484.832 650.5,523.5C 650.5,525.5 650.5,527.5 650.5,529.5C 649.687,531.261 648.687,532.928 647.5,534.5C 647.952,530.837 648.452,527.17 649,523.5C 649.333,484.5 649.667,445.5 650,406.5C 650.717,405.956 651.217,405.289 651.5,404.5 Z"></path></g><g><path style="opacity:1" fill="#1b5777" d="M 636.5,405.5 C 638.371,405.859 639.871,406.859 641,408.5C 641.667,447.167 641.667,485.833 641,524.5C 640.844,527.191 640.011,529.524 638.5,531.5C 638.672,527.466 639.172,523.466 640,519.5C 640.667,482.833 640.667,446.167 640,409.5C 638.28,408.616 637.114,407.283 636.5,405.5 Z"></path></g><g><path style="opacity:1" fill="#232123" d="M 653.5,404.5 C 652.833,404.5 652.167,404.5 651.5,404.5C 650.504,404.414 649.671,404.748 649,405.5C 648.667,444.5 648.333,483.5 648,522.5C 646.679,528.778 645.846,535.112 645.5,541.5C 644.89,542.391 644.557,543.391 644.5,544.5C 643.417,544.539 642.417,544.873 641.5,545.5C 640.604,548.144 639.771,550.81 639,553.5C 636.763,554.985 635.263,556.985 634.5,559.5C 628.684,566.148 622.351,572.315 615.5,578C 613.231,579.558 610.898,579.724 608.5,578.5C 609.888,576.019 612.388,574.019 616,572.5C 616.662,571.016 617.496,569.683 618.5,568.5C 623.105,564.398 627.605,560.064 632,555.5C 633.144,550.863 635.31,546.863 638.5,543.5C 639.042,540.35 640.209,537.35 642,534.5C 642.83,529.857 643.497,525.19 644,520.5C 644.667,482.833 644.667,445.167 644,407.5C 641.971,404.404 639.138,402.738 635.5,402.5C 635.5,401.5 635.5,400.5 635.5,399.5C 642.532,399.17 649.532,399.503 656.5,400.5C 655.174,401.642 654.174,402.976 653.5,404.5 Z"></path></g><g><path style="opacity:1" fill="#1b5877" d="M 652.5,408.5 C 652.667,447.168 652.5,485.835 652,524.5C 651.802,526.382 651.302,528.048 650.5,529.5C 650.5,527.5 650.5,525.5 650.5,523.5C 651.167,485.167 651.833,446.833 652.5,408.5 Z"></path></g><g><path style="opacity:1" fill="#1c475e" d="M 399.5,394.5 C 401.666,397.532 402.999,400.866 403.5,404.5C 403.221,409.327 403.887,413.993 405.5,418.5C 404.034,417.653 403.2,416.32 403,414.5C 402.061,407.749 400.894,401.083 399.5,394.5 Z"></path></g><g><path style="opacity:1" fill="#1e465b" d="M 683.5,381.5 C 683.649,382.552 683.483,383.552 683,384.5C 680.132,387.736 677.632,391.236 675.5,395C 671.984,396.256 668.984,398.256 666.5,401C 661.294,402.766 656.627,405.266 652.5,408.5C 651.833,446.833 651.167,485.167 650.5,523.5C 650.333,484.832 650.5,446.165 651,407.5C 652.045,406.627 652.878,405.627 653.5,404.5C 657.915,402.959 661.915,400.959 665.5,398.5C 668.37,395.829 671.704,393.662 675.5,392C 677.647,388.031 680.313,384.531 683.5,381.5 Z"></path></g><g><path style="opacity:1" fill="#1a6389" d="M 685.5,379.5 C 683.9,384.264 682.067,388.93 680,393.5C 677.951,394.714 676.451,396.38 675.5,398.5C 668.32,401.671 661.154,405.005 654,408.5C 653.667,447.5 653.333,486.5 653,525.5C 650.83,532.356 648.83,539.356 647,546.5C 645.241,549.069 643.407,551.403 641.5,553.5C 642.828,550.644 643.828,547.644 644.5,544.5C 644.557,543.391 644.89,542.391 645.5,541.5C 646.924,539.485 647.59,537.152 647.5,534.5C 648.687,532.928 649.687,531.261 650.5,529.5C 651.302,528.048 651.802,526.382 652,524.5C 652.5,485.835 652.667,447.168 652.5,408.5C 656.627,405.266 661.294,402.766 666.5,401C 668.984,398.256 671.984,396.256 675.5,395C 677.632,391.236 680.132,387.736 683,384.5C 683.483,383.552 683.649,382.552 683.5,381.5C 684.167,380.833 684.833,380.167 685.5,379.5 Z"></path></g><g><path style="opacity:1" fill="#167eb3" d="M 638.5,415.5 C 638.667,449.835 638.5,484.168 638,518.5C 637.568,525.43 636.402,532.097 634.5,538.5C 634.817,531.446 635.65,524.446 637,517.5C 637.168,483.331 637.668,449.331 638.5,415.5 Z"></path></g><g><path style="opacity:1" fill="#18719f" d="M 603.5,359.5 C 603.073,365.114 603.74,370.447 605.5,375.5C 606.167,376.167 606.833,376.833 607.5,377.5C 607.5,378.167 607.5,378.833 607.5,379.5C 608.057,383.07 609.224,386.403 611,389.5C 614.833,393.333 618.667,397.167 622.5,401C 624.833,401.333 627.167,401.667 629.5,402C 630.803,405.044 633.136,406.211 636.5,405.5C 637.114,407.283 638.28,408.616 640,409.5C 640.667,446.167 640.667,482.833 640,519.5C 639.172,523.466 638.672,527.466 638.5,531.5C 637.211,538.051 634.878,544.051 631.5,549.5C 621.945,560.407 611.279,569.74 599.5,577.5C 592.563,578.977 585.563,580.144 578.5,581C 560.836,581.5 543.17,581.667 525.5,581.5C 521.818,581.665 518.152,581.499 514.5,581C 511.315,579.045 507.815,577.878 504,577.5C 502.69,576.87 501.856,575.87 501.5,574.5C 506.935,575.807 512.268,577.641 517.5,580C 537.671,580.829 557.671,580.662 577.5,579.5C 580.187,579.664 582.854,579.497 585.5,579C 589.732,575.367 594.732,573.7 600.5,574C 602.958,570.551 606.291,568.551 610.5,568C 614.915,564.591 619.081,560.758 623,556.5C 623.471,554.754 624.138,553.087 625,551.5C 628.376,547.295 631.543,542.961 634.5,538.5C 636.402,532.097 637.568,525.43 638,518.5C 638.5,484.168 638.667,449.835 638.5,415.5C 638.5,413.5 638.5,411.5 638.5,409.5C 626.828,406.691 616.995,400.691 609,391.5C 608.139,387.447 606.473,383.78 604,380.5C 603.281,376.855 602.781,373.188 602.5,369.5C 602.187,365.958 602.521,362.625 603.5,359.5 Z"></path></g><g><path style="opacity:1" fill="#1778a9" d="M 675.5,398.5 C 673.992,403.267 670.659,405.434 665.5,405C 662.75,408.707 659.084,410.207 654.5,409.5C 654.667,450.501 654.5,491.501 654,532.5C 652.92,534.996 651.586,537.33 650,539.5C 649.667,542.167 649.333,544.833 649,547.5C 646.22,549.801 644.553,552.801 644,556.5C 642.385,557.386 640.885,558.386 639.5,559.5C 640.167,557.5 640.833,555.5 641.5,553.5C 643.407,551.403 645.241,549.069 647,546.5C 648.83,539.356 650.83,532.356 653,525.5C 653.333,486.5 653.667,447.5 654,408.5C 661.154,405.005 668.32,401.671 675.5,398.5 Z"></path></g><g><path style="opacity:1" fill="#1b5e81" d="M 413.5,430.5 C 415.963,432.461 418.297,434.628 420.5,437C 422.5,437.667 424.5,438.333 426.5,439C 427.252,439.671 427.586,440.504 427.5,441.5C 426.167,441.5 424.833,441.5 423.5,441.5C 419.568,438.56 416.235,434.893 413.5,430.5 Z"></path></g><g><path style="opacity:1" fill="#1f4155" d="M 406.5,422.5 C 408.833,424.833 411.167,427.167 413.5,429.5C 413.5,429.833 413.5,430.167 413.5,430.5C 416.235,434.893 419.568,438.56 423.5,441.5C 422.022,441.762 420.689,441.429 419.5,440.5C 415.5,436.167 411.5,431.833 407.5,427.5C 406.548,425.955 406.215,424.288 406.5,422.5 Z"></path></g><g><path style="opacity:1" fill="#1b6085" d="M 508.5,422.5 C 505.9,430.766 500.566,436.433 492.5,439.5C 495.476,436.698 498.642,434.031 502,431.5C 504.188,428.433 506.355,425.433 508.5,422.5 Z"></path></g><g><path style="opacity:1" fill="#177aab" d="M 512.5,406.5 C 512.167,409.167 511.833,411.833 511.5,414.5C 510.249,417.132 509.249,419.799 508.5,422.5C 506.355,425.433 504.188,428.433 502,431.5C 498.642,434.031 495.476,436.698 492.5,439.5C 492.167,439.5 491.833,439.5 491.5,439.5C 490.078,439.709 488.745,440.209 487.5,441C 467.503,441.5 447.503,441.667 427.5,441.5C 427.586,440.504 427.252,439.671 426.5,439C 424.5,438.333 422.5,437.667 420.5,437C 418.297,434.628 415.963,432.461 413.5,430.5C 413.5,430.167 413.5,429.833 413.5,429.5C 413.5,428.833 413.5,428.167 413.5,427.5C 418.843,434.805 426.176,438.638 435.5,439C 451.833,439.667 468.167,439.667 484.5,439C 491.125,438.244 496.625,435.41 501,430.5C 501.973,428.608 502.64,426.608 503,424.5C 505,423.833 506.333,422.5 507,420.5C 508.354,415.597 510.187,410.93 512.5,406.5 Z"></path></g><g><path style="opacity:1" fill="#1a658b" d="M 491.5,439.5 C 490.251,441.136 488.584,442.303 486.5,443C 467.167,443.667 447.833,443.667 428.5,443C 427.944,442.617 427.611,442.117 427.5,441.5C 447.503,441.667 467.503,441.5 487.5,441C 488.745,440.209 490.078,439.709 491.5,439.5 Z"></path></g><g><path style="opacity:1" fill="#203846" d="M 398.5,423.5 C 400.353,425.375 402.187,427.375 404,429.5C 406.94,436.452 411.44,442.286 417.5,447C 428.777,450.974 440.443,452.641 452.5,452C 453.056,452.383 453.389,452.883 453.5,453.5C 444.887,452.558 436.221,452.225 427.5,452.5C 424.098,450.528 420.431,449.028 416.5,448C 411.965,443.297 407.298,438.797 402.5,434.5C 400.799,431.073 399.466,427.407 398.5,423.5 Z"></path></g><g><path style="opacity:1" fill="#1e465c" d="M 514.5,407.5 C 514.5,410.167 514.5,412.833 514.5,415.5C 511.481,421.649 507.981,427.649 504,433.5C 500.93,435.447 498.43,437.947 496.5,441C 492.451,443.098 488.118,444.431 483.5,445C 465.167,445.667 446.833,445.667 428.5,445C 426.416,444.303 424.749,443.136 423.5,441.5C 424.833,441.5 426.167,441.5 427.5,441.5C 427.611,442.117 427.944,442.617 428.5,443C 447.833,443.667 467.167,443.667 486.5,443C 488.584,442.303 490.251,441.136 491.5,439.5C 491.833,439.5 492.167,439.5 492.5,439.5C 500.566,436.433 505.9,430.766 508.5,422.5C 509.249,419.799 510.249,417.132 511.5,414.5C 513.02,412.412 514.02,410.078 514.5,407.5 Z"></path></g><g><path style="opacity:1" fill="#1777a7" d="M 531.5,386.5 C 531.264,391.442 530.098,396.109 528,400.5C 527.789,407.551 527.122,414.551 526,421.5C 523.409,427.966 520.076,433.966 516,439.5C 511.841,442.659 508.008,446.159 504.5,450C 500.325,451.616 496.325,453.616 492.5,456C 484.507,456.5 476.507,456.666 468.5,456.5C 475.167,455.833 481.833,455.167 488.5,454.5C 492.437,452.012 496.77,450.179 501.5,449C 503.305,446.597 505.638,444.93 508.5,444C 510.293,441.205 512.46,438.705 515,436.5C 516.915,433.765 518.082,430.765 518.5,427.5C 520.605,422.595 522.772,417.595 525,412.5C 525.228,408.083 525.728,403.75 526.5,399.5C 527.584,394.957 529.25,390.624 531.5,386.5 Z"></path></g><g><path style="opacity:1" fill="#1f3c4d" d="M 523.5,406.5 C 522.015,413.604 520.349,420.604 518.5,427.5C 515.26,429.113 513.76,431.78 514,435.5C 511.957,437.208 510.29,439.208 509,441.5C 496.884,451.034 483.051,455.034 467.5,453.5C 473.758,451.7 480.425,450.867 487.5,451C 490.718,450.1 493.718,448.933 496.5,447.5C 502.81,445.082 507.976,441.082 512,435.5C 516.3,425.91 520.134,416.243 523.5,406.5 Z"></path></g><g><path style="opacity:1" fill="#1b5d80" d="M 402.5,434.5 C 407.298,438.797 411.965,443.297 416.5,448C 420.431,449.028 424.098,450.528 427.5,452.5C 434.655,453.329 441.989,453.829 449.5,454C 450.381,454.708 451.047,455.542 451.5,456.5C 437.645,457.418 424.645,454.752 412.5,448.5C 412.5,447.833 412.5,447.167 412.5,446.5C 408.767,442.773 405.434,438.773 402.5,434.5 Z"></path></g><g><path style="opacity:1" fill="#1f3c4d" d="M 454.5,457.5 C 455.167,477.5 455.833,497.5 456.5,517.5C 456.603,523.861 457.103,530.194 458,536.5C 460.737,540.755 462.571,545.422 463.5,550.5C 461.492,547.415 459.492,544.415 457.5,541.5C 456.992,537.803 456.326,534.136 455.5,530.5C 454.631,506.178 454.298,481.845 454.5,457.5 Z"></path></g><g><path style="opacity:1" fill="#21323e" d="M 496.5,447.5 C 493.718,448.933 490.718,450.1 487.5,451C 480.425,450.867 473.758,451.7 467.5,453.5C 467.167,453.5 466.833,453.5 466.5,453.5C 464.983,453.511 463.816,454.177 463,455.5C 462.171,477.004 462.337,498.337 463.5,519.5C 463.014,526.01 464.347,532.01 467.5,537.5C 467.427,539.027 468.094,540.027 469.5,540.5C 469.343,541.873 469.51,543.207 470,544.5C 471.801,549.435 474.134,554.102 477,558.5C 481.335,561.669 485.168,565.336 488.5,569.5C 490.564,571.589 492.897,573.256 495.5,574.5C 493.801,574.66 492.134,574.494 490.5,574C 486.978,568.978 482.645,564.811 477.5,561.5C 472.654,555.745 468.82,549.411 466,542.5C 464.335,535.174 462.669,527.841 461,520.5C 460.333,498.167 460.333,475.833 461,453.5C 462.171,452.107 463.671,451.273 465.5,451C 472.5,450.667 479.5,450.333 486.5,450C 489.618,448.273 492.951,447.439 496.5,447.5 Z"></path></g><g><path style="opacity:1" fill="#1d485f" d="M 466.5,453.5 C 465.878,454.627 465.045,455.627 464,456.5C 463.5,477.497 463.333,498.497 463.5,519.5C 462.337,498.337 462.171,477.004 463,455.5C 463.816,454.177 464.983,453.511 466.5,453.5 Z"></path></g><g><path style="opacity:1" fill="#1a6186" d="M 451.5,456.5 C 452.117,456.611 452.617,456.944 453,457.5C 453.333,479.833 453.667,502.167 454,524.5C 454.191,526.708 454.691,528.708 455.5,530.5C 456.326,534.136 456.992,537.803 457.5,541.5C 459.031,545.426 460.364,549.426 461.5,553.5C 459.986,551.636 458.653,549.636 457.5,547.5C 455.542,542.335 454.209,537.001 453.5,531.5C 453.048,527.837 452.548,524.17 452,520.5C 451.5,499.169 451.333,477.836 451.5,456.5 Z"></path></g><g><path style="opacity:1" fill="#21313b" d="M 453.5,453.5 C 454.75,453.577 455.583,454.244 456,455.5C 456.5,476.164 456.667,496.831 456.5,517.5C 455.833,497.5 455.167,477.5 454.5,457.5C 454.567,456.041 454.234,454.708 453.5,453.5 Z"></path></g><g><path style="opacity:1" fill="#1c5573" d="M 518.5,427.5 C 518.082,430.765 516.915,433.765 515,436.5C 512.46,438.705 510.293,441.205 508.5,444C 505.638,444.93 503.305,446.597 501.5,449C 496.77,450.179 492.437,452.012 488.5,454.5C 481.492,454.334 474.492,454.5 467.5,455C 466.667,455.833 465.833,456.667 465,457.5C 464.333,478.167 464.333,498.833 465,519.5C 465.266,525.604 466.099,531.604 467.5,537.5C 464.347,532.01 463.014,526.01 463.5,519.5C 463.333,498.497 463.5,477.497 464,456.5C 465.045,455.627 465.878,454.627 466.5,453.5C 466.833,453.5 467.167,453.5 467.5,453.5C 483.051,455.034 496.884,451.034 509,441.5C 510.29,439.208 511.957,437.208 514,435.5C 513.76,431.78 515.26,429.113 518.5,427.5 Z"></path></g><g><path style="opacity:1" fill="#167fb3" d="M 449.5,457.5 C 450.332,480.663 450.832,503.996 451,527.5C 451.608,529.066 452.442,530.4 453.5,531.5C 454.209,537.001 455.542,542.335 457.5,547.5C 455.926,547.063 454.759,546.063 454,544.5C 453.667,541.5 453.333,538.5 453,535.5C 450.672,531.512 449.338,527.179 449,522.5C 448.223,500.813 448.389,479.147 449.5,457.5 Z"></path></g><g><path style="opacity:1" fill="#1874a2" d="M 412.5,448.5 C 424.645,454.752 437.645,457.418 451.5,456.5C 451.333,477.836 451.5,499.169 452,520.5C 452.548,524.17 453.048,527.837 453.5,531.5C 452.442,530.4 451.608,529.066 451,527.5C 450.832,503.996 450.332,480.663 449.5,457.5C 441.578,456.698 433.578,456.198 425.5,456C 421.729,453.781 417.729,452.115 413.5,451C 412.748,450.329 412.414,449.496 412.5,448.5 Z"></path></g><g><path style="opacity:1" fill="#1e4961" d="M 427.5,452.5 C 436.221,452.225 444.887,452.558 453.5,453.5C 454.234,454.708 454.567,456.041 454.5,457.5C 454.298,481.845 454.631,506.178 455.5,530.5C 454.691,528.708 454.191,526.708 454,524.5C 453.667,502.167 453.333,479.833 453,457.5C 452.617,456.944 452.117,456.611 451.5,456.5C 451.047,455.542 450.381,454.708 449.5,454C 441.989,453.829 434.655,453.329 427.5,452.5 Z"></path></g><g><path style="opacity:1" fill="#196b95" d="M 488.5,454.5 C 481.833,455.167 475.167,455.833 468.5,456.5C 467.833,456.5 467.5,456.833 467.5,457.5C 466.833,467.661 466.5,477.995 466.5,488.5C 466.294,503.034 466.961,517.367 468.5,531.5C 468.704,534.518 469.037,537.518 469.5,540.5C 468.094,540.027 467.427,539.027 467.5,537.5C 466.099,531.604 465.266,525.604 465,519.5C 464.333,498.833 464.333,478.167 465,457.5C 465.833,456.667 466.667,455.833 467.5,455C 474.492,454.5 481.492,454.334 488.5,454.5 Z"></path></g><g><path style="opacity:1" fill="#1680b4" d="M 467.5,457.5 C 468.441,482.148 468.774,506.814 468.5,531.5C 466.961,517.367 466.294,503.034 466.5,488.5C 466.5,477.995 466.833,467.661 467.5,457.5 Z"></path></g><g><path style="opacity:1" fill="#1d4e69" d="M 457.5,541.5 C 459.492,544.415 461.492,547.415 463.5,550.5C 465.167,553.167 466.833,555.833 468.5,558.5C 468.5,559.167 468.5,559.833 468.5,560.5C 465.854,558.521 463.521,556.188 461.5,553.5C 460.364,549.426 459.031,545.426 457.5,541.5 Z"></path></g><g><path style="opacity:1" fill="#1f3a4a" d="M 638.5,537.5 C 638.5,539.5 638.5,541.5 638.5,543.5C 635.31,546.863 633.144,550.863 632,555.5C 627.605,560.064 623.105,564.398 618.5,568.5C 616.436,568.762 615.103,569.929 614.5,572C 613.552,572.483 612.552,572.649 611.5,572.5C 616.461,568.554 621.295,564.221 626,559.5C 628.057,556.279 629.891,552.946 631.5,549.5C 635.4,546.36 637.734,542.36 638.5,537.5 Z"></path></g><g><path style="opacity:1" fill="#1c5472" d="M 641.5,553.5 C 640.833,555.5 640.167,557.5 639.5,559.5C 635.365,563.806 631.365,568.306 627.5,573C 623.678,575.33 620.012,577.83 616.5,580.5C 616.5,580.167 616.5,579.833 616.5,579.5C 618.808,577.529 621.142,575.529 623.5,573.5C 626.414,572.094 628.914,570.094 631,567.5C 634.363,562.65 637.863,557.983 641.5,553.5 Z"></path></g><g><path style="opacity:1" fill="#1b6185" d="M 631.5,549.5 C 629.891,552.946 628.057,556.279 626,559.5C 621.295,564.221 616.461,568.554 611.5,572.5C 610.391,572.557 609.391,572.89 608.5,573.5C 605.903,575.594 602.903,576.927 599.5,577.5C 611.279,569.74 621.945,560.407 631.5,549.5 Z"></path></g><g><path style="opacity:1" fill="#1b5e82" d="M 469.5,540.5 C 470.496,540.414 471.329,540.748 472,541.5C 476.5,554.159 484.667,563.493 496.5,569.5C 499.111,570.111 500.778,571.777 501.5,574.5C 497.372,572.236 493.039,570.57 488.5,569.5C 485.168,565.336 481.335,561.669 477,558.5C 474.134,554.102 471.801,549.435 470,544.5C 469.51,543.207 469.343,541.873 469.5,540.5 Z"></path></g><g><path style="opacity:1" fill="#203d4f" d="M 468.5,558.5 C 470.436,559.429 472.103,560.763 473.5,562.5C 475.726,567.062 478.726,571.062 482.5,574.5C 477.792,571.959 474.292,568.292 472,563.5C 470.961,562.29 469.794,561.29 468.5,560.5C 468.5,559.833 468.5,559.167 468.5,558.5 Z"></path></g><g><path style="opacity:1" fill="#1f3b4b" d="M 644.5,544.5 C 643.828,547.644 642.828,550.644 641.5,553.5C 637.863,557.983 634.363,562.65 631,567.5C 628.914,570.094 626.414,572.094 623.5,573.5C 627.899,569.432 631.565,564.765 634.5,559.5C 635.263,556.985 636.763,554.985 639,553.5C 639.771,550.81 640.604,548.144 641.5,545.5C 642.417,544.873 643.417,544.539 644.5,544.5 Z"></path></g><g><path style="opacity:1" fill="#1a678e" d="M 461.5,553.5 C 463.521,556.188 465.854,558.521 468.5,560.5C 469.794,561.29 470.961,562.29 472,563.5C 474.292,568.292 477.792,571.959 482.5,574.5C 483.625,576.129 484.959,577.629 486.5,579C 492.037,581.538 497.037,584.705 501.5,588.5C 500.127,588.657 498.793,588.49 497.5,588C 496.211,586.198 494.544,585.031 492.5,584.5C 480.024,578.195 469.857,569.195 462,557.5C 461.51,556.207 461.343,554.873 461.5,553.5 Z"></path></g><g><path style="opacity:1" fill="#1681b7" d="M 496.5,569.5 C 500.021,569.83 503.021,571.33 505.5,574C 512.172,573.475 518.172,575.142 523.5,579C 541.497,579.5 559.497,579.667 577.5,579.5C 557.671,580.662 537.671,580.829 517.5,580C 512.268,577.641 506.935,575.807 501.5,574.5C 500.778,571.777 499.111,570.111 496.5,569.5 Z"></path></g><g><path style="opacity:1" fill="#1b6083" d="M 599.5,577.5 C 595.909,578.829 592.242,580.163 588.5,581.5C 567.342,582.728 546.342,582.728 525.5,581.5C 543.17,581.667 560.836,581.5 578.5,581C 585.563,580.144 592.563,578.977 599.5,577.5 Z"></path></g><g><path style="opacity:1" fill="#1d4b64" d="M 488.5,569.5 C 493.039,570.57 497.372,572.236 501.5,574.5C 501.856,575.87 502.69,576.87 504,577.5C 507.815,577.878 511.315,579.045 514.5,581C 518.152,581.499 521.818,581.665 525.5,581.5C 546.342,582.728 567.342,582.728 588.5,581.5C 587.048,582.302 585.382,582.802 583.5,583C 560.833,583.667 538.167,583.667 515.5,583C 513.846,582.392 512.179,581.892 510.5,581.5C 505.172,580.004 500.172,577.671 495.5,574.5C 492.897,573.256 490.564,571.589 488.5,569.5 Z"></path></g><g><path style="opacity:1" fill="#203847" d="M 608.5,573.5 C 607.71,574.794 606.71,575.961 605.5,577C 600.125,578.568 595.125,580.901 590.5,584C 565.167,584.667 539.833,584.667 514.5,584C 512.68,583.8 511.347,582.966 510.5,581.5C 512.179,581.892 513.846,582.392 515.5,583C 538.167,583.667 560.833,583.667 583.5,583C 585.382,582.802 587.048,582.302 588.5,581.5C 592.242,580.163 595.909,578.829 599.5,577.5C 602.903,576.927 605.903,575.594 608.5,573.5 Z"></path></g><g><path style="opacity:1" fill="#221f20" d="M 589.5,588.5 C 587.883,589.038 586.216,589.371 584.5,589.5C 563.524,590.621 542.524,590.788 521.5,590C 518.077,590.145 516.077,588.645 515.5,585.5C 541.169,585.333 566.835,585.5 592.5,586C 591.058,586.377 590.058,587.21 589.5,588.5 Z"></path></g><g><path style="opacity:1" fill="#1776a7" d="M 492.5,584.5 C 494.544,585.031 496.211,586.198 497.5,588C 498.793,588.49 500.127,588.657 501.5,588.5C 504.216,588.678 506.883,589.178 509.5,590C 510.337,591.011 510.67,592.178 510.5,593.5C 506.833,593.5 503.167,593.5 499.5,593.5C 499.5,592.5 499.5,591.5 499.5,590.5C 498.448,590.649 497.448,590.483 496.5,590C 495.335,588.008 494.002,586.175 492.5,584.5 Z"></path></g><g><path style="opacity:1" fill="#1f455a" d="M 482.5,574.5 C 483.873,574.343 485.207,574.51 486.5,575C 489.168,578.33 492.502,580.663 496.5,582C 497.743,583.154 498.743,584.488 499.5,586C 504.237,586.937 508.904,588.104 513.5,589.5C 514.246,590.736 514.579,592.07 514.5,593.5C 513.167,593.5 511.833,593.5 510.5,593.5C 510.67,592.178 510.337,591.011 509.5,590C 506.883,589.178 504.216,588.678 501.5,588.5C 497.037,584.705 492.037,581.538 486.5,579C 484.959,577.629 483.625,576.129 482.5,574.5 Z"></path></g><g><path style="opacity:1" fill="#203746" d="M 616.5,579.5 C 616.5,579.833 616.5,580.167 616.5,580.5C 615.833,580.833 615.167,581.167 614.5,581.5C 611.153,581.783 608.487,583.283 606.5,586C 601.236,587.344 596.07,588.844 591,590.5C 590.517,591.448 590.351,592.448 590.5,593.5C 587.5,593.5 584.5,593.5 581.5,593.5C 581.5,592.5 581.5,591.5 581.5,590.5C 582.791,590.737 583.791,590.404 584.5,589.5C 586.216,589.371 587.883,589.038 589.5,588.5C 594.595,586.394 599.929,585.227 605.5,585C 608.516,581.935 612.183,580.101 616.5,579.5 Z"></path></g><g><path style="opacity:1" fill="#1d5371" d="M 614.5,581.5 C 611.423,583.387 608.423,585.554 605.5,588C 602.211,588.882 598.877,589.548 595.5,590C 594.663,591.011 594.33,592.178 594.5,593.5C 593.167,593.5 591.833,593.5 590.5,593.5C 590.351,592.448 590.517,591.448 591,590.5C 596.07,588.844 601.236,587.344 606.5,586C 608.487,583.283 611.153,581.783 614.5,581.5 Z"></path></g><g><path style="opacity:1" fill="#186f9c" d="M 639.5,559.5 C 639.736,562.226 638.903,564.559 637,566.5C 631.506,570.995 626.339,575.828 621.5,581C 618.326,582.725 614.993,584.058 611.5,585C 608.86,588.755 605.194,590.588 600.5,590.5C 600.5,591.5 600.5,592.5 600.5,593.5C 598.5,593.5 596.5,593.5 594.5,593.5C 594.33,592.178 594.663,591.011 595.5,590C 598.877,589.548 602.211,588.882 605.5,588C 608.423,585.554 611.423,583.387 614.5,581.5C 615.167,581.167 615.833,580.833 616.5,580.5C 620.012,577.83 623.678,575.33 627.5,573C 631.365,568.306 635.365,563.806 639.5,559.5 Z"></path></g></svg>