<svg xmlns="http://www.w3.org/2000/svg" width="80" height="81"><path style="fill:#feffff; stroke:none;" d="M0 0L0 81L80 81L80 0L0 0z"></path><path style="fill:#010101; stroke:none;" d="M7 6L7 32L8 32C11.0801 19.0389 22.5112 8.18511 36 7L7 6z"></path><path style="fill:#018fcf; stroke:none;" d="M36 6.43904C-8.10377 13.3813 1.87192 81.5099 46 74.561C89.8644 67.6535 79.8846 -0.468712 36 6.43904z"></path><path style="fill:#010101; stroke:none;" d="M46 6L46 7C59.4228 8.17931 71.6424 19.7743 74 33L75 33L72 6L46 6z"></path><path style="fill:#018fcf; stroke:none;" d="M72 6L75 11L75 6L72 6z"></path><path style="fill:#51b2de; stroke:none;" d="M12 27L12 28L16 28L12 27M68.6667 27.3333L69.3333 27.6667L68.6667 27.3333z"></path><path style="fill:#9ed4ed; stroke:none;" d="M10 28L11 29L10 28z"></path><path style="fill:#feffff; stroke:none;" d="M11 28L11 29L33 40L33 41L23 45L31 44L36 67C47.2239 67.7843 50.078 54.2491 51 44L59 45L50 41L50 40L71 29L51 35.0926L29 34.787L11 28z"></path><path style="fill:#9ed4ed; stroke:none;" d="M17 28L18 29L17 28z"></path><path style="fill:#51b2de; stroke:none;" d="M18 28L19 29L18 28M65 28L66 29L65 28z"></path><path style="fill:#9ed4ed; stroke:none;" d="M66 28L67 29L66 28M71 28L72 29L71 28M12 29L13 30L12 29M19 29L20 30L19 29z"></path><path style="fill:#51b2de; stroke:none;" d="M62 29L63 30L62 29z"></path><path style="fill:#9ed4ed; stroke:none;" d="M63 29L64 30L63 29M68 29L69 30L68 29z"></path><path style="fill:#51b2de; stroke:none;" d="M69 29L70 30L69 29M14 30L15 31L14 30M21 30L22 31L21 30z"></path><path style="fill:#9ed4ed; stroke:none;" d="M61 30L62 31L61 30M66 30L67 31L66 30M16 31L17 32L16 31z"></path><path style="fill:#51b2de; stroke:none;" d="M22 31L23 32L22 31z"></path><path style="fill:#9ed4ed; stroke:none;" d="M59 31L60 32L59 31z"></path><path style="fill:#51b2de; stroke:none;" d="M65 31L66 32L65 31M17 32L18 33L17 32z"></path><path style="fill:#9ed4ed; stroke:none;" d="M23 32L24 33L23 32z"></path><path style="fill:#51b2de; stroke:none;" d="M64 32L65 33L64 32M18 33L19 34L18 33M25 33L26 34L25 33M44 33L45 34L44 33M56 33L57 34L56 33M63 33L64 34L63 33M19 34L20 35L19 34z"></path><path style="fill:#9ed4ed; stroke:none;" d="M27 34L28 35L27 34z"></path><path style="fill:#51b2de; stroke:none;" d="M28 34L29 35L28 34z"></path><path style="fill:#9ed4ed; stroke:none;" d="M34 34L35 35L34 34M40.6667 34.3333L41.3333 34.6667L40.6667 34.3333M47 34L48 35L47 34z"></path><path style="fill:#51b2de; stroke:none;" d="M53 34L54 35L53 34z"></path><path style="fill:#9ed4ed; stroke:none;" d="M54 34L55 35L54 34z"></path><path style="fill:#51b2de; stroke:none;" d="M62 34L63 35L62 34z"></path><path style="fill:#9ed4ed; stroke:none;" d="M30 35L30 36L33 36L30 35z"></path><path style="fill:#51b2de; stroke:none;" d="M49 35L50 36L49 35z"></path><path style="fill:#9ed4ed; stroke:none;" d="M50.6667 35.3333L51.3333 35.6667L50.6667 35.3333z"></path><path style="fill:#51b2de; stroke:none;" d="M61 35L62 36L61 35M22 36L23 37L22 36z"></path><path style="fill:#9ed4ed; stroke:none;" d="M24 37L25 38L24 37z"></path><path style="fill:#51b2de; stroke:none;" d="M58 37L59 38L58 37M26 38L27 39L26 38z"></path><path style="fill:#9ed4ed; stroke:none;" d="M56 38L57 39L56 38z"></path><path style="fill:#51b2de; stroke:none;" d="M29 39L30 40L29 39z"></path><path style="fill:#9ed4ed; stroke:none;" d="M30.6667 39.3333L31.3333 39.6667L30.6667 39.3333M51 39L51 40L54 40L51 39z"></path><path style="fill:#51b2de; stroke:none;" d="M54 39L55 40L54 39z"></path><path style="fill:#9ed4ed; stroke:none;" d="M32 40L33 41L32 40z"></path><path style="fill:#51b2de; stroke:none;" d="M50 40L51 41L50 40M28 41L28 42L31 42L28 41M51.6667 41.3333L52.3333 41.6667L51.6667 41.3333M25 42L26 43L25 42z"></path><path style="fill:#9ed4ed; stroke:none;" d="M26 42L27 43L26 42M55 42L56 43L55 42z"></path><path style="fill:#51b2de; stroke:none;" d="M56 42L57 43L56 42z"></path><path style="fill:#9ed4ed; stroke:none;" d="M24 43L25 44L24 43M57 43L58 44L57 43z"></path><path style="fill:#51b2de; stroke:none;" d="M58 43L59 44L58 43z"></path><path style="fill:#9ed4ed; stroke:none;" d="M30 44L31 45L30 44M51.6667 44.3333L52.3333 44.6667L51.6667 44.3333z"></path><path style="fill:#51b2de; stroke:none;" d="M59.3333 44.6667L59.6667 45.3333L59.3333 44.6667M23 45L24 46L23 45z"></path><path style="fill:#9ed4ed; stroke:none;" d="M28 45L29 46L28 45M31 45L31 49L32 49L31 45M53 45L54 46L53 45M58 45L59 46L58 45z"></path><path style="fill:#51b2de; stroke:none;" d="M26 46L27 47L26 46M55 46L55 47L58 47L55 46z"></path><path style="fill:#9ed4ed; stroke:none;" d="M50 48L51 49L50 48z"></path><path style="fill:#010101; stroke:none;" d="M74 48C71.6314 61.2874 59.4991 72.814 46 74L46 75C52.8247 75 64.4959 77.2737 70.7222 74.3966C77.1098 71.445 76.2258 53.3044 74 48M7 49L7 75L35 75L35 74C19.6642 71.7013 14.3682 60.6511 7 49z"></path><path style="fill:#51b2de; stroke:none;" d="M31 49L32 50L31 49M50 49L51 50L50 49M32 51L33 52L32 51M49 51L50 52L49 51z"></path><path style="fill:#9ed4ed; stroke:none;" d="M48 52L49 53L48 52z"></path><path style="fill:#51b2de; stroke:none;" d="M33 53L34 54L33 53M48 53L49 54L48 53z"></path><path style="fill:#9ed4ed; stroke:none;" d="M34 55L35 56L34 55z"></path><path style="fill:#51b2de; stroke:none;" d="M47 55L48 56L47 55M34 56L35 57L34 56z"></path><path style="fill:#9ed4ed; stroke:none;" d="M35 58L35 65L36 65L35 58M46 58L46 63L47 63L46 58z"></path><path style="fill:#51b2de; stroke:none;" d="M46.3333 63.6667L46.6667 64.3333L46.3333 63.6667M35 65L36 66L35 65z"></path><path style="fill:#9ed4ed; stroke:none;" d="M45 66L46 67L45 66z"></path><path style="fill:#51b2de; stroke:none;" d="M37 67L38 68L37 67z"></path><path style="fill:#9ed4ed; stroke:none;" d="M38 67L38 68L41 68L38 67M43.6667 67.3333L44.3333 67.6667L43.6667 67.3333z"></path><path style="fill:#018fcf; stroke:none;" d="M74 68L72 75C75.6016 74.2282 75.6591 70.8795 74 68z"></path></svg>