<svg xmlns="http://www.w3.org/2000/svg" width="129" height="109"><path style="fill:#ffffff; stroke:none;" d="M0 0L0 109L129 109L129 0L0 0z"></path><path style="fill:#1d1d1b; stroke:none;" d="M53 19C53.0015 32.9493 65.4922 32.618 73.2392 43.0008C83.1524 56.2867 81.9566 75.1268 69.9066 86.8264C65.1743 91.4211 59.0773 93.1574 54 97C70.628 103.367 79.718 100.271 96 95.7855C101.053 94.3936 107.102 96.152 111.772 93.4275C116.316 90.7757 117.268 76.6145 116 72C126.016 68.3948 117.279 61.2662 115.255 55C111.557 43.5456 113.257 33.5359 102.91 24.3287C91.5321 14.2045 67.3176 19 53 19z"></path><path style="fill:#010101; stroke:none;" d="M95 19L95 20C114.91 29.4735 111.279 50.1734 121 66L122 66L122 19L95 19M53 29L53 34C70.1474 38.9512 80.7108 57.9272 74.8958 75C72.3426 82.4964 66.7634 87.0692 62 93C91.7213 78.1951 81.7453 37.3349 53 29z"></path><path style="fill:#018fcf; stroke:none;" d="M53 34L53 96C84.1229 90.4487 84.1278 39.5522 53 34z"></path><path style="fill:#010101; stroke:none;" d="M53 59L53 71L54 71L53 59M121 68L116 72C117.038 77.3422 116.165 90.5944 110.891 93.4275C106.04 96.0337 100.159 94.3643 95 95.7855C89.1634 97.3933 84.1279 100.462 78 101L78 102L122 102L121 68M60 93L61 94L60 93M58 94L59 95L58 94M53 96L53 102L70 102L70 101L53 96z"></path></svg>