<svg xmlns="http://www.w3.org/2000/svg" width="300.000000pt" height="299.000000pt" viewBox="0 0 300.000000 299.000000" preserveAspectRatio="xMidYMid meet"><metadata>
Created by potrace 1.10, written by Peter Selinger 2001-2011
</metadata><g transform="translate(0.000000,299.000000) scale(0.100000,-0.100000)" fill="#000000" stroke="none"><path d="M1326 2840 c-182 -23 -340 -73 -504 -158 l-43 -23 108 -113 c99 -104 109 -112 128 -100 40 26 206 75 307 90 321 49 667 -66 902 -301 409 -409 419 -1068 24 -1491 -131 -140 -312 -248 -505 -301 -89 -25 -114 -28 -268 -28 -191 0 -276 16 -428 81 -534 229 -787 859 -561 1396 l26 61 -110 110 -110 110 -42 -82 c-161 -321 -188 -709 -74 -1050 67 -200 176 -374 334 -531 315 -315 755 -456 1192 -380 777 134 1281 900 1098 1669 -125 521 -563 935 -1089 1026 -108 19 -295 26 -385 15z m349 -34 c122 -21 188 -37 214 -50 16 -9 38 -16 47 -16 19 0 187 -83 255 -125 207 -130 385 -332 494 -560 91 -192 125 -344 125 -570 0 -170 -13 -272 -51 -390 -12 -38 -24 -76 -25 -83 -6 -31 -137 -284 -150 -289 -8 -3 -14 -9 -14 -15 0 -33 -208 -250 -301 -313 -24 -16 -45 -33 -47 -37 -2 -5 -10 -8 -18 -8 -8 0 -14 -4 -14 -9 0 -10 -207 -113 -271 -134 -343 -116 -709 -95 -1034 59 -68 32 -168 93 -173 106 -2 4 -8 8 -14 8 -9 0 -73 51 -156 125 -46 40 -150 166 -198 240 -57 86 -127 236 -158 334 -26 84 -57 249 -56 299 1 15 1 76 1 136 0 60 2 119 4 130 6 26 15 74 19 101 8 54 49 191 72 242 49 110 66 143 72 143 4 0 47 -40 96 -90 l88 -90 -36 -100 c-19 -56 -40 -131 -46 -168 -6 -37 -13 -78 -16 -92 -6 -30 -5 -195 1 -230 2 -14 8 -50 14 -80 54 -320 282 -629 566 -769 23 -11 44 -23 48 -27 4 -5 15 -9 24 -10 10 -2 26 -7 38 -13 37 -18 149 -50 215 -61 61 -11 260 -15 305 -6 11 2 43 7 70 10 101 14 251 72 372 142 164 96 354 308 424 474 13 30 25 57 28 60 4 3 8 12 10 20 2 8 10 38 18 65 32 114 43 192 43 310 0 286 -110 559 -306 761 -318 327 -772 420 -1215 249 l-46 -18 -84 87 c-46 48 -85 91 -87 95 -4 11 162 87 251 115 85 27 245 54 342 58 61 3 205 -6 260 -16z"></path><path d="M460 2783 c-19 -25 -21 -37 -18 -150 l3 -123 -128 0 c-71 0 -137 -4 -147 -10 -29 -15 -42 -67 -26 -98 8 -15 122 -134 253 -264 l239 -238 150 0 149 0 215 -216 c118 -118 227 -222 242 -230 53 -28 108 8 108 70 0 26 -33 63 -225 256 l-225 226 0 147 0 148 -96 102 c-53 56 -165 171 -248 255 -140 140 -155 152 -188 152 -28 0 -42 -7 -58 -27z m260 -171 c89 -92 195 -201 236 -243 l74 -77 0 -149 0 -149 215 -214 c118 -118 220 -225 226 -237 18 -34 -5 -73 -42 -73 -23 0 -67 39 -246 218 -120 121 -227 222 -238 226 -11 4 -78 7 -148 7 -78 -1 -137 3 -150 10 -12 7 -127 116 -254 244 -184 184 -233 238 -233 259 0 42 31 53 159 55 63 1 123 7 133 12 12 6 18 21 18 42 -2 206 -1 226 15 234 42 24 71 3 235 -165z"></path><path d="M1410 2313 c-67 -5 -180 -31 -247 -57 l-58 -22 -3 -107 -3 -107 64 35 c88 48 199 75 311 75 177 0 331 -64 456 -189 318 -320 233 -848 -170 -1051 -179 -90 -389 -90 -578 0 -72 35 -102 58 -172 129 -144 145 -196 283 -187 491 6 125 24 192 77 287 l31 54 -108 -3 -108 -3 -32 -95 c-228 -674 421 -1304 1086 -1054 248 93 442 310 512 574 31 115 31 298 0 415 -45 173 -162 351 -297 454 -162 123 -379 188 -574 174z m243 -42 c31 -5 63 -13 70 -18 6 -4 19 -9 28 -10 22 -3 169 -82 187 -99 7 -8 17 -14 22 -14 17 0 138 -128 180 -190 316 -466 84 -1104 -454 -1246 -82 -22 -97 -24 -201 -29 -221 -9 -428 77 -599 250 -83 84 -147 190 -189 313 -25 74 -30 106 -33 217 -4 143 10 239 50 329 l23 51 66 -1 c37 0 69 -3 72 -6 3 -3 -8 -34 -24 -69 -60 -133 -73 -304 -34 -440 13 -46 31 -99 40 -119 44 -95 134 -200 230 -269 52 -37 177 -97 223 -106 54 -11 283 -15 295 -5 6 5 33 14 59 20 117 26 240 109 330 221 81 101 118 183 145 317 48 235 -80 533 -288 671 -57 37 -144 80 -171 84 -8 2 -19 5 -25 9 -5 3 -49 11 -97 18 -138 19 -316 -14 -416 -78 l-23 -15 3 78 3 78 37 19 c20 11 47 21 60 22 13 2 30 6 38 9 69 27 263 31 393 8z"></path><path d="M1330 1941 c-30 -9 -66 -23 -79 -30 l-23 -13 37 -38 38 -39 41 17 c28 12 69 17 131 17 76 0 99 -5 148 -27 80 -37 158 -114 193 -191 26 -55 29 -73 29 -162 0 -87 -4 -107 -27 -157 -34 -74 -112 -152 -186 -186 -50 -24 -69 -27 -162 -27 -95 0 -111 3 -162 28 -165 81 -250 267 -204 446 l16 63 -35 39 -35 39 -14 -28 c-50 -97 -61 -258 -25 -364 75 -224 298 -364 526 -331 185 27 345 165 400 343 24 79 21 218 -5 292 -55 154 -183 273 -337 314 -70 19 -198 17 -265 -5z m269 -21 c143 -40 255 -145 307 -289 20 -54 23 -80 21 -170 -3 -92 -7 -114 -31 -168 -16 -35 -33 -63 -37 -63 -5 0 -9 -6 -9 -12 -1 -28 -102 -119 -170 -152 -112 -56 -239 -66 -350 -28 -128 44 -214 120 -273 242 -39 81 -41 88 -41 185 -1 100 6 151 25 186 12 23 17 23 40 3 16 -15 16 -19 2 -67 -10 -33 -14 -79 -11 -132 2 -67 9 -92 36 -148 61 -124 169 -206 297 -227 67 -11 118 -6 203 21 73 23 77 25 150 99 78 78 104 141 110 260 3 79 1 104 -17 149 -29 76 -74 140 -129 181 -26 19 -49 38 -52 41 -3 3 -32 15 -65 26 -75 25 -178 29 -243 9 -44 -13 -52 -13 -71 0 -28 20 -26 30 7 42 101 37 195 41 301 12z"></path></g></svg>