<svg xmlns="http://www.w3.org/2000/svg" viewBox="0 0 48 48"><g data-name="Layer 2"><path fill="#938993" d="M33,40H21a3,3,0,0,1,0-6H34.5a1.5,1.5,0,0,0,0-3h-13a13.5,13.5,0,0,1,0-27H22a1,1,0,0,1,0,2h-.5a11.5,11.5,0,0,0,0,23h13a3.5,3.5,0,0,1,0,7H21a1,1,0,0,0,0,2H33a1,1,0,0,1,0,2Z"></path><path fill="#92d9f7" d="M31,44H23a1,1,0,0,1,0-2h8a1,1,0,0,1,0,2Z"></path><path fill="#92d9f7" d="M27,44a1,1,0,0,1-1-1V26a1,1,0,0,1,2,0V43A1,1,0,0,1,27,44Z"></path><path fill="#938993" d="M29,4H22a1,1,0,0,0-1,1,5,5,0,0,0,5,5h5a1,1,0,0,0,1-1V7A3,3,0,0,0,29,4Z"></path><rect width="2" height="2" x="26" y="29" fill="#938993"></rect><rect width="2" height="2" x="26" y="38" fill="#938993"></rect><path fill="#92d9f7" d="M39,13v2A11,11,0,0,1,28,26H26A11,11,0,0,1,15,15V13Z"></path><path fill="#ec7bb0" d="M29,22H25a1,1,0,0,1,0-2h4a1,1,0,0,1,0,2Z"></path><path fill="#ec7bb0" d="M27,24a1,1,0,0,1-1-1V19a1,1,0,0,1,2,0v4A1,1,0,0,1,27,24Z"></path><path fill="#66bad8" d="M36,16a1,1,0,0,1-1,1H15.18A11,11,0,0,1,15,15H35A1,1,0,0,1,36,16Z"></path></g></svg>