<svg xmlns="http://www.w3.org/2000/svg" width="576" height="480"><path style="fill:#ffffff; stroke:none;" d="M0 0L0 480L576 480L576 0L0 0z"></path><path style="fill:#9ecfec; stroke:none;" d="M430.667 45.3333L431.333 45.6667L430.667 45.3333M424.667 46.3333L425.333 46.6667L424.667 46.3333z"></path><path style="fill:#59aadc; stroke:none;" d="M426 46L427 47L426 46z"></path><path style="fill:#3980ad; stroke:none;" d="M424 47L424 48L442 52C437.207 45.9343 431.149 45.6736 424 47z"></path><path style="fill:#59aadc; stroke:none;" d="M434 46L435 47L434 46z"></path><path style="fill:#9ecfec; stroke:none;" d="M435.667 46.3333L436.333 46.6667L435.667 46.3333M422 47L421 49L422 47z"></path><path style="fill:#59aadc; stroke:none;" d="M423 47L424 48L423 47M437 47L438 48L437 47z"></path><path style="fill:#9ecfec; stroke:none;" d="M438 47L439 48L438 47z"></path><path style="fill:#3980ad; stroke:none;" d="M422 48L415 62L416 62L422 48z"></path><path style="fill:#2187cb; stroke:none;" d="M418 72C423.766 72.961 428.215 83.6938 433 88C446.985 100.586 460.596 117.358 475 126C478.253 127.952 479.733 132.185 483 134C490.851 138.362 501.684 128.559 504 123C508.68 111.767 489.718 105.127 491 100L475 84L459 68L443 52C432.42 49.2853 416.377 43.5893 415.681 62C415.553 65.3848 417.413 68.6919 418 72z"></path><path style="fill:#59aadc; stroke:none;" d="M439 48L440 49L439 48z"></path><path style="fill:#9ecfec; stroke:none;" d="M419 49L416 54L417 54L419 49z"></path><path style="fill:#59aadc; stroke:none;" d="M420 49L421 50L420 49M440 49L441 50L440 49M419 50L420 51L419 50M441 50L442 51L441 50M418 51L419 52L418 51M442 51L443 52L442 51M443 52L447 56L443 52M417 53L418 54L417 53z"></path><path style="fill:#3980ad; stroke:none;" d="M442.667 53.3333L443.333 53.6667L442.667 53.3333z"></path><path style="fill:#59aadc; stroke:none;" d="M416 54L417 55L416 54z"></path><path style="fill:#3980ad; stroke:none;" d="M444 54L444 56L446 56L444 54z"></path><path style="fill:#59aadc; stroke:none;" d="M415.333 56.6667L415.667 57.3333L415.333 56.6667z"></path><path style="fill:#3980ad; stroke:none;" d="M447 56L450 60L447 56z"></path><path style="fill:#59aadc; stroke:none;" d="M448 57L449 58L448 57z"></path><path style="fill:#9ecfec; stroke:none;" d="M414 58L414 65L415 65L414 58z"></path><path style="fill:#59aadc; stroke:none;" d="M449 58L450 59L449 58M450 59L451 60L450 59M451 60L455 64L451 60z"></path><path style="fill:#3980ad; stroke:none;" d="M451 61L452 62L451 61M452 62L452 64L454 64L452 62M415 64L417 70L418 70L415 64M455 64L458 68L455 64z"></path><path style="fill:#59aadc; stroke:none;" d="M456 65L457 66L456 65M415 66L416 67L415 66M457 66L458 67L457 66z"></path><path style="fill:#9ecfec; stroke:none;" d="M415 67L416 68L415 67z"></path><path style="fill:#59aadc; stroke:none;" d="M458 67L459 68L458 67M459 68L463 72L459 68M416 69L417 70L416 69z"></path><path style="fill:#3980ad; stroke:none;" d="M458.667 69.3333L459.333 69.6667L458.667 69.3333z"></path><path style="fill:#59aadc; stroke:none;" d="M417 70L418 71L417 70z"></path><path style="fill:#3980ad; stroke:none;" d="M460 70L460 72L462 72L460 70z"></path><path style="fill:#9ecfec; stroke:none;" d="M417 71L418 72L417 71M418 72L424 78L418 72z"></path><path style="fill:#3980ad; stroke:none;" d="M419 72L421 74L421 72L419 72M463 72L466 76L463 72z"></path><path style="fill:#59aadc; stroke:none;" d="M464 73L465 74L464 73z"></path><path style="fill:#3980ad; stroke:none;" d="M421 74L423 76L423 74L421 74z"></path><path style="fill:#59aadc; stroke:none;" d="M465 74L466 75L465 74M466 75L467 76L466 75z"></path><path style="fill:#3980ad; stroke:none;" d="M423 76L424 77L423 76z"></path><path style="fill:#59aadc; stroke:none;" d="M467 76L471 80L467 76z"></path><path style="fill:#3980ad; stroke:none;" d="M467 77L468 78L467 77z"></path><path style="fill:#9ecfec; stroke:none;" d="M424 78L425 79L424 78z"></path><path style="fill:#3980ad; stroke:none;" d="M468 78L468 80L470 80L468 78z"></path><path style="fill:#59aadc; stroke:none;" d="M425 79L391.576 113.285L346 158L346 159C375.49 156.396 408.419 157.247 438 159L447 148L471 125L425 79z"></path><path style="fill:#9ecfec; stroke:none;" d="M424 80L425 81L424 80z"></path><path style="fill:#3980ad; stroke:none;" d="M426 80L427 81L426 80M471 80L474 84L471 80z"></path><path style="fill:#9ecfec; stroke:none;" d="M423 81L424 82L423 81z"></path><path style="fill:#59aadc; stroke:none;" d="M472 81L473 82L472 81z"></path><path style="fill:#9ecfec; stroke:none;" d="M422 82L423 83L422 82z"></path><path style="fill:#59aadc; stroke:none;" d="M473 82L474 83L473 82z"></path><path style="fill:#9ecfec; stroke:none;" d="M421 83L422 84L421 83z"></path><path style="fill:#59aadc; stroke:none;" d="M474 83L475 84L474 83z"></path><path style="fill:#9ecfec; stroke:none;" d="M420 84L421 85L420 84z"></path><path style="fill:#59aadc; stroke:none;" d="M475 84L479 88L475 84z"></path><path style="fill:#9ecfec; stroke:none;" d="M419 85L420 86L419 85z"></path><path style="fill:#3980ad; stroke:none;" d="M421 85L422 86L421 85M474.667 85.3333L475.333 85.6667L474.667 85.3333z"></path><path style="fill:#9ecfec; stroke:none;" d="M418 86L419 87L418 86z"></path><path style="fill:#3980ad; stroke:none;" d="M476 86L476 88L478 88L476 86z"></path><path style="fill:#9ecfec; stroke:none;" d="M417 87L418 88L417 87M416 88L417 89L416 88z"></path><path style="fill:#3980ad; stroke:none;" d="M479 88L482 92L479 88z"></path><path style="fill:#9ecfec; stroke:none;" d="M415 89L416 90L415 89z"></path><path style="fill:#59aadc; stroke:none;" d="M480 89L481 90L480 89z"></path><path style="fill:#9ecfec; stroke:none;" d="M414 90L415 91L414 90z"></path><path style="fill:#59aadc; stroke:none;" d="M481 90L482 91L481 90z"></path><path style="fill:#9ecfec; stroke:none;" d="M413 91L414 92L413 91z"></path><path style="fill:#59aadc; stroke:none;" d="M482 91L483 92L482 91z"></path><path style="fill:#9ecfec; stroke:none;" d="M412 92L413 93L412 92z"></path><path style="fill:#59aadc; stroke:none;" d="M483 92L487 96L483 92z"></path><path style="fill:#9ecfec; stroke:none;" d="M411 93L412 94L411 93z"></path><path style="fill:#3980ad; stroke:none;" d="M413 93L414 94L413 93M483 93L484 94L483 93z"></path><path style="fill:#9ecfec; stroke:none;" d="M410 94L411 95L410 94z"></path><path style="fill:#3980ad; stroke:none;" d="M484 94L484 96L486 96L484 94z"></path><path style="fill:#9ecfec; stroke:none;" d="M409 95L410 96L409 95z"></path><path style="fill:#3980ad; stroke:none;" d="M487 96L490 100L487 96z"></path><path style="fill:#9ecfec; stroke:none;" d="M407 97L408 98L407 97z"></path><path style="fill:#59aadc; stroke:none;" d="M488 97L489 98L488 97z"></path><path style="fill:#9ecfec; stroke:none;" d="M406 98L407 99L406 98z"></path><path style="fill:#59aadc; stroke:none;" d="M489 98L490 99L489 98z"></path><path style="fill:#9ecfec; stroke:none;" d="M405 99L406 100L405 99z"></path><path style="fill:#59aadc; stroke:none;" d="M490 99L491 100L490 99z"></path><path style="fill:#9ecfec; stroke:none;" d="M404 100L405 101L404 100z"></path><path style="fill:#59aadc; stroke:none;" d="M491 100L495 104L491 100z"></path><path style="fill:#9ecfec; stroke:none;" d="M403 101L404 102L403 101z"></path><path style="fill:#3980ad; stroke:none;" d="M405 101L406 102L405 101M490.667 101.333L491.333 101.667L490.667 101.333z"></path><path style="fill:#9ecfec; stroke:none;" d="M402 102L403 103L402 102z"></path><path style="fill:#3980ad; stroke:none;" d="M492 102L492 104L494 104L492 102z"></path><path style="fill:#9ecfec; stroke:none;" d="M401 103L402 104L401 103M400 104L401 105L400 104z"></path><path style="fill:#3980ad; stroke:none;" d="M495 104L498 108L495 104z"></path><path style="fill:#9ecfec; stroke:none;" d="M399 105L400 106L399 105z"></path><path style="fill:#59aadc; stroke:none;" d="M496 105L501 110L496 105z"></path><path style="fill:#9ecfec; stroke:none;" d="M497 105L498 106L497 105M398 106L399 107L398 106M498 106L499 107L498 106M397 107L398 108L397 107M499 107L500 108L499 107M396 108L397 109L396 108M500 108L501 109L500 108M395 109L396 110L395 109z"></path><path style="fill:#3980ad; stroke:none;" d="M397 109L398 110L397 109M499 109L500 110L499 109z"></path><path style="fill:#9ecfec; stroke:none;" d="M394 110L395 111L394 110z"></path><path style="fill:#3980ad; stroke:none;" d="M500 110L503 114L500 110z"></path><path style="fill:#9ecfec; stroke:none;" d="M501 110L503 112L501 110M393 111L394 112L393 111z"></path><path style="fill:#59aadc; stroke:none;" d="M501 111L502 112L501 111M502 112L503 113L502 112z"></path><path style="fill:#9ecfec; stroke:none;" d="M391 113L392 114L391 113M503 113L504 114L503 113M390 114L391 115L390 114z"></path><path style="fill:#59aadc; stroke:none;" d="M503.333 114.667L503.667 115.333L503.333 114.667z"></path><path style="fill:#9ecfec; stroke:none;" d="M389 115L390 116L389 115M388 116L389 117L388 116M387 117L388 118L387 117z"></path><path style="fill:#3980ad; stroke:none;" d="M389 117L390 118L389 117z"></path><path style="fill:#9ecfec; stroke:none;" d="M386 118L387 119L386 118M385 119L386 120L385 119M504 119L505 120L504 119M384 120L385 121L384 120M383 121L384 122L383 121M382 122L383 123L382 122M381 123L382 124L381 123z"></path><path style="fill:#59aadc; stroke:none;" d="M503 123L504 124L503 123z"></path><path style="fill:#9ecfec; stroke:none;" d="M380 124L381 125L380 124z"></path><path style="fill:#3980ad; stroke:none;" d="M471 124L472 125L471 124M502 124L498 131L502 124z"></path><path style="fill:#9ecfec; stroke:none;" d="M503.333 124.667L503.667 125.333L503.333 124.667M379 125L380 126L379 125z"></path><path style="fill:#3980ad; stroke:none;" d="M381 125L382 126L381 125z"></path><path style="fill:#9ecfec; stroke:none;" d="M469 125L470 126L469 125M471 125L472 126L471 125M378 126L379 127L378 126M468 126L469 127L468 126M472 126L480 134L472 126z"></path><path style="fill:#59aadc; stroke:none;" d="M473 126L474 127L473 126z"></path><path style="fill:#3980ad; stroke:none;" d="M474 126L477 129L474 126z"></path><path style="fill:#59aadc; stroke:none;" d="M502 126L503 127L502 126z"></path><path style="fill:#9ecfec; stroke:none;" d="M377 127L378 128L377 127M467 127L468 128L467 127M502 127L503 128L502 127M466 128L467 129L466 128M501 128L502 129L501 128M375 129L376 130L375 129M465 129L466 130L465 129z"></path><path style="fill:#59aadc; stroke:none;" d="M476 129L477 130L476 129M500 129L497 133L500 129z"></path><path style="fill:#9ecfec; stroke:none;" d="M374 130L375 131L374 130M464 130L465 131L464 130z"></path><path style="fill:#3980ad; stroke:none;" d="M477.667 130.333L478.333 130.667L477.667 130.333z"></path><path style="fill:#9ecfec; stroke:none;" d="M500 130L501 131L500 130M373 131L374 132L373 131M463 131L464 132L463 131z"></path><path style="fill:#59aadc; stroke:none;" d="M478 131L479 132L478 131z"></path><path style="fill:#9ecfec; stroke:none;" d="M499 131L500 132L499 131M372 132L373 133L372 132M462 132L463 133L462 132z"></path><path style="fill:#59aadc; stroke:none;" d="M479 132L482 134L482 133L479 132z"></path><path style="fill:#3980ad; stroke:none;" d="M480 132L480 133L483 134L480 132M484 134L484 135L497 133L484 134z"></path><path style="fill:#9ecfec; stroke:none;" d="M498 132L499 133L498 132M371 133L372 134L371 133z"></path><path style="fill:#3980ad; stroke:none;" d="M373 133L374 134L373 133z"></path><path style="fill:#9ecfec; stroke:none;" d="M461 133L462 134L461 133z"></path><path style="fill:#59aadc; stroke:none;" d="M495 133L496 134L495 133z"></path><path style="fill:#9ecfec; stroke:none;" d="M496 133L497 134L496 133M370 134L371 135L370 134M460 134L461 135L460 134M482 134L483 135L482 134z"></path><path style="fill:#59aadc; stroke:none;" d="M483 134L484 135L483 134M493 134L494 135L493 134z"></path><path style="fill:#9ecfec; stroke:none;" d="M494 134L495 135L494 134M369 135L370 136L369 135M459 135L460 136L459 135M485.667 135.333L486.333 135.667L485.667 135.333z"></path><path style="fill:#59aadc; stroke:none;" d="M487 135L488 136L487 135z"></path><path style="fill:#9ecfec; stroke:none;" d="M488 135L488 136L492 136L488 135M368 136L369 137L368 136M458 136L459 137L458 136M367 137L368 138L367 137M457 137L458 138L457 137M366 138L367 139L366 138M456 138L457 139L456 138M365 139L366 140L365 139M455 139L456 140L455 139M364 140L365 141L364 140M454 140L455 141L454 140M363 141L364 142L363 141z"></path><path style="fill:#3980ad; stroke:none;" d="M365 141L366 142L365 141z"></path><path style="fill:#9ecfec; stroke:none;" d="M453 141L454 142L453 141M362 142L363 143L362 142M452 142L453 143L452 142M361 143L362 144L361 143M451 143L452 144L451 143M450 144L451 145L450 144M359 145L360 146L359 145M449 145L450 146L449 145M358 146L359 147L358 146M448 146L449 147L448 146M357 147L358 148L357 147M447 147L448 148L447 147M356 148L357 149L356 148M446 148L447 149L446 148M355 149L356 150L355 149z"></path><path style="fill:#3980ad; stroke:none;" d="M357 149L358 150L357 149z"></path><path style="fill:#9ecfec; stroke:none;" d="M445 149L446 150L445 149M354 150L355 151L354 150M444 150L445 151L444 150M353 151L354 152L353 151M443 151L444 152L443 151M352 152L353 153L352 152M442 152L443 153L442 152M351 153L352 154L351 153M441 153L442 154L441 153M350 154L351 155L350 154M440 154L441 155L440 154M349 155L350 156L349 155M439 155L440 156L439 155M348 156L349 157L348 156M438 156C438.675 161.371 455.313 159 460 159L530 159L530 171L531 171L531 158L466 158C457.527 158 445.573 160.212 438 156M347 157L348 158L347 157M47 158L47 159L346 159L319 158L258 158L47 158z"></path><path style="fill:#3980ad; stroke:none;" d="M47 159L47 166L49 166L49 160L350 160L326 159L267 159L47 159z"></path><path style="fill:#2187cb; stroke:none;" d="M49 160C47.942 184.64 54.8283 209.161 67.0201 230.725C72.7683 240.893 85.7189 252.863 88 264C94.9946 267.111 99.0754 275.236 104.336 280.559C113.232 289.56 123.278 297.886 133.425 305.421C137.765 308.643 147.676 312.954 149.486 318.189C153.265 329.118 150 346.434 150 358C150 361.905 148.492 369.857 151.894 372.682C155.683 375.83 165.352 374 170 374L218 374L361 374C381.271 374 408.893 378.824 428 372L427.961 332L429.005 316.313L445.29 304.865L476.169 276.674L489 260C494.884 258.09 499.341 249.947 500 244C507.008 241.692 511.685 229.293 514.505 222.91C523.348 202.899 529.889 182.129 529 160L49 160z"></path><path style="fill:#3980ad; stroke:none;" d="M433 159L433 160L529 160L529 166L530 166L530 159L464 159L433 159z"></path><path style="fill:#59aadc; stroke:none;" d="M47 166L47 170L48 170L47 166z"></path><path style="fill:#3980ad; stroke:none;" d="M437 166L437 168L440 168L440 166L437 166M529 168L529 172L530 172L529 168z"></path><path style="fill:#9ecfec; stroke:none;" d="M47 170L47 174L48 174L47 170z"></path><path style="fill:#3980ad; stroke:none;" d="M48 172L48 177L49 177L48 172z"></path><path style="fill:#59aadc; stroke:none;" d="M529 172L529 176L530 176L529 172z"></path><path style="fill:#3980ad; stroke:none;" d="M528 174L528 180L529 180L528 174z"></path><path style="fill:#9ecfec; stroke:none;" d="M529 176L529 179L530 179L529 176z"></path><path style="fill:#59aadc; stroke:none;" d="M48.3333 177.667L48.6667 178.333L48.3333 177.667z"></path><path style="fill:#3980ad; stroke:none;" d="M49 178L49 183L50 183L49 178z"></path><path style="fill:#9ecfec; stroke:none;" d="M48 179L48 182L49 182L48 179z"></path><path style="fill:#59aadc; stroke:none;" d="M528.333 180.667L528.667 181.333L528.333 180.667z"></path><path style="fill:#9ecfec; stroke:none;" d="M528.333 182.667L528.667 183.333L528.333 182.667z"></path><path style="fill:#59aadc; stroke:none;" d="M49.3333 183.667L49.6667 184.333L49.3333 183.667z"></path><path style="fill:#3980ad; stroke:none;" d="M50 184L50 189L51 189L50 184M527.333 184.667L527.667 185.333L527.333 184.667z"></path><path style="fill:#9ecfec; stroke:none;" d="M49.3333 185.667L49.6667 186.333L49.3333 185.667z"></path><path style="fill:#59aadc; stroke:none;" d="M527.333 186.667L527.667 187.333L527.333 186.667z"></path><path style="fill:#3980ad; stroke:none;" d="M526 188L524 198L525 198L526 188z"></path><path style="fill:#9ecfec; stroke:none;" d="M527.333 188.667L527.667 189.333L527.333 188.667z"></path><path style="fill:#59aadc; stroke:none;" d="M50 189L51 190L50 189z"></path><path style="fill:#9ecfec; stroke:none;" d="M50.3333 190.667L50.6667 191.333L50.3333 190.667z"></path><path style="fill:#3980ad; stroke:none;" d="M51 190L51 193L52 193L51 190M269 232L264 232L264 233L270 233C270 221.684 265.038 196.716 277 191C272.072 189.29 269.531 194.739 269.105 199.001C268.026 209.794 269 221.151 269 232z"></path><path style="fill:#59aadc; stroke:none;" d="M277 190L277 191L301 191L277 190z"></path><path style="fill:#3980ad; stroke:none;" d="M301 190L301 191L304 192L301 190z"></path><path style="fill:#59aadc; stroke:none;" d="M274 191L275 192L274 191z"></path><path style="fill:#9ecfec; stroke:none;" d="M275 191L276 192L275 191z"></path><path style="fill:#ffffff; stroke:none;" d="M271 234C260.745 234 241.181 230.238 232.189 235.457C225.424 239.383 225.193 265.079 232.109 268.972C240.838 273.886 261.022 270 271 270C271 280.128 267.173 299.998 272.179 308.891C276.016 315.708 301.734 315.658 305.543 308.891C310.715 299.703 307 280.402 307 270C316.872 270 337.233 273.898 345.786 268.821C353.225 264.405 352.397 239.148 344.956 235.179C335.938 230.369 317.138 234 307 234C307 223.768 310.783 204.035 305.427 195.133C301.369 188.389 275.873 188.145 272.09 195.329C267.273 204.476 271 223.725 271 234z"></path><path style="fill:#9ecfec; stroke:none;" d="M301 191L302 192L301 191z"></path><path style="fill:#59aadc; stroke:none;" d="M302 191L303 192L302 191z"></path><path style="fill:#9ecfec; stroke:none;" d="M273 192L272 194L274 194L273 192z"></path><path style="fill:#59aadc; stroke:none;" d="M304 192L306 194L304 192z"></path><path style="fill:#3980ad; stroke:none;" d="M305 192L306 193L305 192z"></path><path style="fill:#9ecfec; stroke:none;" d="M526.333 192.667L526.667 193.333L526.333 192.667z"></path><path style="fill:#59aadc; stroke:none;" d="M51 193L52 194L51 193z"></path><path style="fill:#9ecfec; stroke:none;" d="M304 193L305 194L304 193M51 194L52 195L51 194z"></path><path style="fill:#3980ad; stroke:none;" d="M52.3333 194.667L52.6667 195.333L52.3333 194.667z"></path><path style="fill:#59aadc; stroke:none;" d="M271 194L272 195L271 194z"></path><path style="fill:#9ecfec; stroke:none;" d="M305 194L306 195L305 194z"></path><path style="fill:#3980ad; stroke:none;" d="M306 194L307 233L312 233L312 232L308 232L308.001 205L306 194z"></path><path style="fill:#59aadc; stroke:none;" d="M525.333 194.667L525.667 195.333L525.333 194.667z"></path><path style="fill:#9ecfec; stroke:none;" d="M271 195L272 196L271 195z"></path><path style="fill:#59aadc; stroke:none;" d="M306 195L307 196L306 195M52.3333 196.667L52.6667 197.333L52.3333 196.667M270.333 196.667L270.667 197.333L270.333 196.667z"></path><path style="fill:#9ecfec; stroke:none;" d="M306 196L307 197L306 196M525.333 196.667L525.667 197.333L525.333 196.667M52 198L53 199L52 198M270 198L270 234L271 234C271 223.613 274.011 207.56 270 198z"></path><path style="fill:#59aadc; stroke:none;" d="M524.333 198.667L524.667 199.333L524.333 198.667M53 200L54 201L53 200z"></path><path style="fill:#3980ad; stroke:none;" d="M523 200L524 201L523 200z"></path><path style="fill:#9ecfec; stroke:none;" d="M524 200L525 201L524 200M53 201L54 202L53 201z"></path><path style="fill:#59aadc; stroke:none;" d="M523 201L524 202L523 201z"></path><path style="fill:#3980ad; stroke:none;" d="M54 202L55 203L54 202M522 202L522 205L523 205L522 202z"></path><path style="fill:#9ecfec; stroke:none;" d="M523.333 202.667L523.667 203.333L523.333 202.667z"></path><path style="fill:#59aadc; stroke:none;" d="M54 203L55 204L54 203z"></path><path style="fill:#9ecfec; stroke:none;" d="M54 204L55 205L54 204z"></path><path style="fill:#3980ad; stroke:none;" d="M55.3333 204.667L55.6667 205.333L55.3333 204.667z"></path><path style="fill:#59aadc; stroke:none;" d="M522 205L523 206L522 205M55 206L56 207L55 206z"></path><path style="fill:#3980ad; stroke:none;" d="M521 206L520 210L521 210L521 206z"></path><path style="fill:#9ecfec; stroke:none;" d="M522 206L523 207L522 206M55 207L56 208L55 207z"></path><path style="fill:#3980ad; stroke:none;" d="M56 208L57 209L56 208z"></path><path style="fill:#9ecfec; stroke:none;" d="M521.333 208.667L521.667 209.333L521.333 208.667z"></path><path style="fill:#59aadc; stroke:none;" d="M56 209L57 210L56 209z"></path><path style="fill:#9ecfec; stroke:none;" d="M56 210L57 211L56 210z"></path><path style="fill:#3980ad; stroke:none;" d="M57 210L62 222L63 222L57 210z"></path><path style="fill:#59aadc; stroke:none;" d="M520 210L521 211L520 210M57 211L58 212L57 211z"></path><path style="fill:#9ecfec; stroke:none;" d="M520 211L521 212L520 211M57 212L58 213L57 212z"></path><path style="fill:#59aadc; stroke:none;" d="M519 213L520 214L519 213M58 214L59 215L58 214z"></path><path style="fill:#9ecfec; stroke:none;" d="M519 214L518 217L519 214M58 215L59 216L58 215z"></path><path style="fill:#59aadc; stroke:none;" d="M518 215L519 216L518 215M59 216L60 217L59 216z"></path><path style="fill:#3980ad; stroke:none;" d="M517 216L518 217L517 216z"></path><path style="fill:#9ecfec; stroke:none;" d="M59 217L60 221L61 221L59 217z"></path><path style="fill:#59aadc; stroke:none;" d="M517 217L518 218L517 217M60 218L61 219L60 218z"></path><path style="fill:#3980ad; stroke:none;" d="M516 218L514 224L515 224L516 218z"></path><path style="fill:#9ecfec; stroke:none;" d="M517.333 218.667L517.667 219.333L517.333 218.667M516.333 220.667L516.667 221.333L516.333 220.667z"></path><path style="fill:#59aadc; stroke:none;" d="M61 221L62 224L63 224L61 221z"></path><path style="fill:#9ecfec; stroke:none;" d="M61 222L62 223L61 222z"></path><path style="fill:#59aadc; stroke:none;" d="M515 222L516 223L515 222z"></path><path style="fill:#9ecfec; stroke:none;" d="M515 223L516 224L515 223M62 224L63 225L62 224z"></path><path style="fill:#3980ad; stroke:none;" d="M63 224L64 225L63 224z"></path><path style="fill:#59aadc; stroke:none;" d="M514 224L515 225L514 224M63 225L64 226L63 225z"></path><path style="fill:#9ecfec; stroke:none;" d="M514 225L515 226L514 225M63 226L64 227L63 226z"></path><path style="fill:#3980ad; stroke:none;" d="M64 226L65 229L66 229L66 226L64 226M512 226L511 230L512 230L512 226z"></path><path style="fill:#59aadc; stroke:none;" d="M513 226L514 227L513 226M64 227L65 228L64 227z"></path><path style="fill:#9ecfec; stroke:none;" d="M513 227L514 228L513 227M64 228L65 229L64 228z"></path><path style="fill:#59aadc; stroke:none;" d="M512 228L513 229L512 228M65 229L66 232L67 232L65 229z"></path><path style="fill:#9ecfec; stroke:none;" d="M512 229L513 230L512 229M65 230L66 231L65 230z"></path><path style="fill:#59aadc; stroke:none;" d="M511 230L512 231L511 230z"></path><path style="fill:#9ecfec; stroke:none;" d="M511 231L512 232L511 231z"></path><path style="fill:#59aadc; stroke:none;" d="M67 232L68 233L67 232z"></path><path style="fill:#3980ad; stroke:none;" d="M68 232L76 247L77 247L68 232M344.333 232.667L344.667 233.333L344.333 232.667M509 232L510 233L509 232z"></path><path style="fill:#9ecfec; stroke:none;" d="M510 232L509 235L510 232M67 233L68 234L67 233z"></path><path style="fill:#59aadc; stroke:none;" d="M235 233L235 234L270 234L235 233M307 233L307 234L343 234C333.44 229.989 317.387 233 307 233M509 233L510 234L509 233M68 234L69 235L68 234z"></path><path style="fill:#3980ad; stroke:none;" d="M230 234L231 235L230 234z"></path><path style="fill:#59aadc; stroke:none;" d="M231 234L230 236L231 234z"></path><path style="fill:#9ecfec; stroke:none;" d="M232.667 234.333L233.333 234.667L232.667 234.333M344 234L345 235L344 234z"></path><path style="fill:#59aadc; stroke:none;" d="M345 234L346 235L345 234z"></path><path style="fill:#3980ad; stroke:none;" d="M346.667 234.333L347.333 234.667L346.667 234.333M508 234L509 235L508 234z"></path><path style="fill:#9ecfec; stroke:none;" d="M68 235L69 236L68 235M231 235L232 236L231 235M346 235L349 238L346 235z"></path><path style="fill:#59aadc; stroke:none;" d="M347 235L348 236L347 235M508 235L509 236L508 235z"></path><path style="fill:#9ecfec; stroke:none;" d="M69.3333 236.667L69.6667 237.333L69.3333 236.667z"></path><path style="fill:#3980ad; stroke:none;" d="M227 236L226 264L227 264L229 236L227 236z"></path><path style="fill:#9ecfec; stroke:none;" d="M229 236L228 239L229 236z"></path><path style="fill:#59aadc; stroke:none;" d="M348 236L349 237L348 236z"></path><path style="fill:#3980ad; stroke:none;" d="M349 236L350 240L351 240L349 236M506 236L506 238L508 236L506 236z"></path><path style="fill:#9ecfec; stroke:none;" d="M508 236L509 237L508 236z"></path><path style="fill:#59aadc; stroke:none;" d="M228 237L229 238L228 237M507 237L506 239L507 237z"></path><path style="fill:#9ecfec; stroke:none;" d="M70 238L71 239L70 238z"></path><path style="fill:#59aadc; stroke:none;" d="M349 238L350 239L349 238z"></path><path style="fill:#9ecfec; stroke:none;" d="M507 238L508 239L507 238z"></path><path style="fill:#59aadc; stroke:none;" d="M227 239L228 240L227 239z"></path><path style="fill:#9ecfec; stroke:none;" d="M349 239L350 240L349 239M506 239L507 240L506 239M71 240L72 241L71 240M227 240L227 264L228 264L227 240z"></path><path style="fill:#59aadc; stroke:none;" d="M350 240L350 265L351 265L350 240z"></path><path style="fill:#3980ad; stroke:none;" d="M504 240L505 241L504 240z"></path><path style="fill:#59aadc; stroke:none;" d="M505 240L504 242L505 240M72 241L74 243L72 241z"></path><path style="fill:#9ecfec; stroke:none;" d="M505 241L506 242L505 241M72 242L73 243L72 242z"></path><path style="fill:#3980ad; stroke:none;" d="M351 242L351 248L352 248L351 242M503 242L504 243L503 242z"></path><path style="fill:#9ecfec; stroke:none;" d="M504 242L505 243L504 242M73 243L74 244L73 243z"></path><path style="fill:#59aadc; stroke:none;" d="M503 243L504 244L503 243M74 244L76 246L74 244z"></path><path style="fill:#3980ad; stroke:none;" d="M500 244L499 249L500 249L503 244L500 244z"></path><path style="fill:#9ecfec; stroke:none;" d="M503 244L504 245L503 244M74 245L75 246L74 245z"></path><path style="fill:#59aadc; stroke:none;" d="M502 245L501 247L502 245z"></path><path style="fill:#9ecfec; stroke:none;" d="M75 246L76 247L75 246M502 246L503 247L502 246z"></path><path style="fill:#59aadc; stroke:none;" d="M76 247L77 248L76 247z"></path><path style="fill:#9ecfec; stroke:none;" d="M501 247L502 248L501 247z"></path><path style="fill:#59aadc; stroke:none;" d="M77 248L78 249L77 248z"></path><path style="fill:#3980ad; stroke:none;" d="M78 248L80 251L78 248z"></path><path style="fill:#59aadc; stroke:none;" d="M500 248L499 250L500 248z"></path><path style="fill:#9ecfec; stroke:none;" d="M77 249L78 250L77 249M500 249L501 250L500 249M78 250L80 253L78 250z"></path><path style="fill:#3980ad; stroke:none;" d="M497 250L495 255L496 255L499 250L497 250z"></path><path style="fill:#9ecfec; stroke:none;" d="M499 250L500 251L499 250z"></path><path style="fill:#59aadc; stroke:none;" d="M79 251L80 252L79 251z"></path><path style="fill:#9ecfec; stroke:none;" d="M498 251L499 252L498 251z"></path><path style="fill:#3980ad; stroke:none;" d="M80 252L81 253L80 252z"></path><path style="fill:#59aadc; stroke:none;" d="M497 252L498 253L497 252M80.6667 253.333L81.3333 253.667L80.6667 253.333z"></path><path style="fill:#9ecfec; stroke:none;" d="M497 253L498 254L497 253M81 254L84 258L81 254z"></path><path style="fill:#3980ad; stroke:none;" d="M82.3333 254.667L82.6667 255.333L82.3333 254.667z"></path><path style="fill:#9ecfec; stroke:none;" d="M496 254L497 255L496 254z"></path><path style="fill:#59aadc; stroke:none;" d="M495 255L496 256L495 255z"></path><path style="fill:#3980ad; stroke:none;" d="M83 256L84 257L83 256z"></path><path style="fill:#59aadc; stroke:none;" d="M494 256L493 258L494 256z"></path><path style="fill:#9ecfec; stroke:none;" d="M494 257L495 258L494 257z"></path><path style="fill:#59aadc; stroke:none;" d="M84 258L86 260L84 258z"></path><path style="fill:#3980ad; stroke:none;" d="M85 258L87 262L88 262L85 258M492 258L493 259L492 258z"></path><path style="fill:#9ecfec; stroke:none;" d="M493 258L494 259L493 258M84 259L85 260L84 259M492 259L493 260L492 259M85 260L86 261L85 260z"></path><path style="fill:#3980ad; stroke:none;" d="M489 260L489 262L491 260L489 260z"></path><path style="fill:#59aadc; stroke:none;" d="M491 260L492 261L491 260z"></path><path style="fill:#9ecfec; stroke:none;" d="M86 261L87 262L86 261z"></path><path style="fill:#59aadc; stroke:none;" d="M490 261L489 263L490 261z"></path><path style="fill:#9ecfec; stroke:none;" d="M87 262L88 263L87 262M490 262L491 263L490 262M489 263L490 264L489 263z"></path><path style="fill:#59aadc; stroke:none;" d="M89 264L91 266L89 264z"></path><path style="fill:#3980ad; stroke:none;" d="M90 264L91 265L90 264z"></path><path style="fill:#59aadc; stroke:none;" d="M227 264L228 265L227 264z"></path><path style="fill:#9ecfec; stroke:none;" d="M349 264L348 267L349 264M488 264L489 265L488 264M89 265L90 266L89 265z"></path><path style="fill:#3980ad; stroke:none;" d="M227 265C229.594 277.195 259.227 272 269 272L269 278L270 278L270 271C256.696 271 236.9 275.163 227 265z"></path><path style="fill:#9ecfec; stroke:none;" d="M228 265L229 266L228 265z"></path><path style="fill:#3980ad; stroke:none;" d="M350 265C342.205 275.706 319.087 271 307 271L307 308L308 308L308 272C319.303 272 330.691 272.408 341.985 271.981C346.172 271.823 351.363 269.977 350 265z"></path><path style="fill:#9ecfec; stroke:none;" d="M487 265L488 266L487 265M90 266L93 269L90 266z"></path><path style="fill:#3980ad; stroke:none;" d="M91 266L93 268L93 266L91 266z"></path><path style="fill:#59aadc; stroke:none;" d="M228 266L229 267L228 266M349 266L350 267L349 266z"></path><path style="fill:#3980ad; stroke:none;" d="M484 266L478 275L486 266L484 266z"></path><path style="fill:#59aadc; stroke:none;" d="M486 266L485 268L486 266z"></path><path style="fill:#9ecfec; stroke:none;" d="M229 267L231 269L229 267z"></path><path style="fill:#59aadc; stroke:none;" d="M348 267L349 268L348 267z"></path><path style="fill:#9ecfec; stroke:none;" d="M486 267L487 268L486 267z"></path><path style="fill:#3980ad; stroke:none;" d="M93 268L96 271L93 268z"></path><path style="fill:#59aadc; stroke:none;" d="M229 268L230 269L229 268M347 268L348 269L347 268z"></path><path style="fill:#9ecfec; stroke:none;" d="M485 268L486 269L485 268z"></path><path style="fill:#59aadc; stroke:none;" d="M93 269L94 270L93 269M231 269L232 270L231 269z"></path><path style="fill:#9ecfec; stroke:none;" d="M345 269L346 270L345 269z"></path><path style="fill:#59aadc; stroke:none;" d="M346 269L347 270L346 269z"></path><path style="fill:#9ecfec; stroke:none;" d="M484 269L485 270L484 269z"></path><path style="fill:#59aadc; stroke:none;" d="M94 270L96 272L94 270M233.667 270.333L234.333 270.667L233.667 270.333z"></path><path style="fill:#9ecfec; stroke:none;" d="M235 270L235 271L270 271L270 306L271 306L271 270L235 270M307 270L307 271L342 271L307 270z"></path><path style="fill:#59aadc; stroke:none;" d="M342 270L342 271L345 271L342 270z"></path><path style="fill:#2187cb; stroke:none;" d="M345 270L346 271L345 270z"></path><path style="fill:#9ecfec; stroke:none;" d="M483 270L484 271L483 270M94 271L95 272L94 271M482 271L483 272L482 271z"></path><path style="fill:#3980ad; stroke:none;" d="M96 272L98 274L98 272L96 272z"></path><path style="fill:#9ecfec; stroke:none;" d="M481 272L480 274L482 274L481 272M96 273L97 274L96 273M97 274L103 280L97 274z"></path><path style="fill:#59aadc; stroke:none;" d="M98 274L99 275L98 274z"></path><path style="fill:#3980ad; stroke:none;" d="M99.3333 274.667L99.6667 275.333L99.3333 274.667z"></path><path style="fill:#59aadc; stroke:none;" d="M479 274L480 275L479 274M478 275L474 280L478 275z"></path><path style="fill:#3980ad; stroke:none;" d="M100 276L102 278L102 276L100 276M475 276L475 278L477 276L475 276z"></path><path style="fill:#9ecfec; stroke:none;" d="M478 276L479 277L478 276z"></path><path style="fill:#3980ad; stroke:none;" d="M102 278L103 279L102 278M474 278L475 279L474 278z"></path><path style="fill:#9ecfec; stroke:none;" d="M476 278L477 279L476 278M475 279L476 280L475 279z"></path><path style="fill:#3980ad; stroke:none;" d="M269 280L269 296L270 296L269 280M472 280L473 281L472 280z"></path><path style="fill:#59aadc; stroke:none;" d="M473 280L472 282L473 280z"></path><path style="fill:#9ecfec; stroke:none;" d="M104 281L105 282L104 281M473 281L474 282L473 281M105 282L109 286L105 282z"></path><path style="fill:#3980ad; stroke:none;" d="M106 282L108 284L108 282L106 282M470 282L471 283L470 282z"></path><path style="fill:#59aadc; stroke:none;" d="M471 282L466 288L471 282z"></path><path style="fill:#9ecfec; stroke:none;" d="M471 283L472 284L471 283z"></path><path style="fill:#3980ad; stroke:none;" d="M108 284L109 285L108 284M468 284L469 285L468 284z"></path><path style="fill:#9ecfec; stroke:none;" d="M470 284L471 285L470 284M469 285L470 286L469 285M109 286L111 288L109 286z"></path><path style="fill:#3980ad; stroke:none;" d="M110 286L112 288L112 286L110 286M466 286L467 287L466 286z"></path><path style="fill:#9ecfec; stroke:none;" d="M468 286L469 287L468 286z"></path><path style="fill:#3980ad; stroke:none;" d="M112.667 288.333L113.333 288.667L112.667 288.333M463 288L459 292L459 293L465 288L463 288z"></path><path style="fill:#9ecfec; stroke:none;" d="M465 288L464 290L466 290L465 288M112 289L114 291L112 289z"></path><path style="fill:#59aadc; stroke:none;" d="M113 289L114 290L113 289M114 290L117 293L114 290z"></path><path style="fill:#3980ad; stroke:none;" d="M115 290L117 292L117 290L115 290z"></path><path style="fill:#59aadc; stroke:none;" d="M463 290L464 291L463 290z"></path><path style="fill:#9ecfec; stroke:none;" d="M462 291L463 292L462 291z"></path><path style="fill:#3980ad; stroke:none;" d="M117 292L118 293L117 292z"></path><path style="fill:#9ecfec; stroke:none;" d="M461 292L462 293L461 292M117 293L118 294L117 293z"></path><path style="fill:#59aadc; stroke:none;" d="M459 293L457 296L459 293z"></path><path style="fill:#9ecfec; stroke:none;" d="M460 293L461 294L460 293M118 294L120 296L118 294z"></path><path style="fill:#3980ad; stroke:none;" d="M119 294L120 295L119 294z"></path><path style="fill:#9ecfec; stroke:none;" d="M459 294L460 295L459 294M458 295L459 296L458 295M120 296L123 299L120 296z"></path><path style="fill:#59aadc; stroke:none;" d="M121 296L124 299L121 296z"></path><path style="fill:#3980ad; stroke:none;" d="M122 296L124 298L124 296L122 296M455 296L456 297L455 296z"></path><path style="fill:#9ecfec; stroke:none;" d="M456 296L457 297L456 296z"></path><path style="fill:#59aadc; stroke:none;" d="M455 297L456 298L455 297z"></path><path style="fill:#3980ad; stroke:none;" d="M124 298L125 299L124 298M452.667 298.333L453.333 298.667L452.667 298.333z"></path><path style="fill:#9ecfec; stroke:none;" d="M454 298L455 299L454 298M124 299L125 300L124 299z"></path><path style="fill:#59aadc; stroke:none;" d="M452 299L450 302L452 299z"></path><path style="fill:#9ecfec; stroke:none;" d="M453 299L454 300L453 299M125 300L128 303L125 300z"></path><path style="fill:#3980ad; stroke:none;" d="M126.667 300.333L127.333 300.667L126.667 300.333M269 300L269 306L270 306L269 300M450 300L451 301L450 300z"></path><path style="fill:#9ecfec; stroke:none;" d="M452 300L453 301L452 300z"></path><path style="fill:#59aadc; stroke:none;" d="M127 301L128 302L127 301z"></path><path style="fill:#9ecfec; stroke:none;" d="M451 301L452 302L451 301z"></path><path style="fill:#59aadc; stroke:none;" d="M128 302L130 304L128 302z"></path><path style="fill:#3980ad; stroke:none;" d="M129 302L133 305L133 304L129 302M447 302L447 304L449 302L447 302z"></path><path style="fill:#9ecfec; stroke:none;" d="M449 302L450 303L449 302M448 303L449 304L448 303M130 304L131 305L130 304z"></path><path style="fill:#3980ad; stroke:none;" d="M445 304L446 305L445 304z"></path><path style="fill:#59aadc; stroke:none;" d="M446 304L447 305L446 304z"></path><path style="fill:#9ecfec; stroke:none;" d="M447 304L448 305L447 304M131 305L133 307L131 305z"></path><path style="fill:#59aadc; stroke:none;" d="M132 305L133 306L132 305z"></path><path style="fill:#9ecfec; stroke:none;" d="M445 305L446 306L445 305z"></path><path style="fill:#59aadc; stroke:none;" d="M133 306L134 307L133 306z"></path><path style="fill:#3980ad; stroke:none;" d="M134 306L136 308L136 306L134 306z"></path><path style="fill:#59aadc; stroke:none;" d="M270.333 306.667L270.667 307.333L270.333 306.667z"></path><path style="fill:#3980ad; stroke:none;" d="M442 306L443 307L442 306z"></path><path style="fill:#59aadc; stroke:none;" d="M443 306L442 308L443 306z"></path><path style="fill:#9ecfec; stroke:none;" d="M444 306L445 307L444 306M134 307L135 308L134 307M306 307L305 310L306 307M443 307L444 308L443 307M135 308L135 309L140 312L135 308z"></path><path style="fill:#59aadc; stroke:none;" d="M136 308L137 309L136 308z"></path><path style="fill:#3980ad; stroke:none;" d="M137 308L137 309L141 311L137 308M270 308L276 314L276 313L270 308z"></path><path style="fill:#9ecfec; stroke:none;" d="M271 308L272 309L271 308z"></path><path style="fill:#3980ad; stroke:none;" d="M434 313L441 309C437.208 307.535 435.584 309.671 434 313z"></path><path style="fill:#9ecfec; stroke:none;" d="M441 308L442 309L441 308z"></path><path style="fill:#59aadc; stroke:none;" d="M271 309L272 310L271 309M306 309L305 311L306 309z"></path><path style="fill:#9ecfec; stroke:none;" d="M440 309L441 310L440 309z"></path><path style="fill:#59aadc; stroke:none;" d="M139 310L140 311L139 310z"></path><path style="fill:#9ecfec; stroke:none;" d="M272 310L273 311L272 310z"></path><path style="fill:#3980ad; stroke:none;" d="M306 310L302 313L302 314C304.724 313.536 306.448 312.975 306 310z"></path><path style="fill:#59aadc; stroke:none;" d="M437 310L437 312L439 310L437 310z"></path><path style="fill:#9ecfec; stroke:none;" d="M439 310L440 311L439 310z"></path><path style="fill:#59aadc; stroke:none;" d="M140 311L141 312L140 311z"></path><path style="fill:#9ecfec; stroke:none;" d="M273 311L274 312L273 311M304 311L305 312L304 311M438 311L439 312L438 311M141 312L143 314L141 312z"></path><path style="fill:#3980ad; stroke:none;" d="M142.667 312.333L143.333 312.667L142.667 312.333z"></path><path style="fill:#59aadc; stroke:none;" d="M274 312L275 313L274 312z"></path><path style="fill:#9ecfec; stroke:none;" d="M275 312L276 313L275 312M302 312L303 313L302 312z"></path><path style="fill:#59aadc; stroke:none;" d="M303 312L304 313L303 312M435 312L434 314L435 312z"></path><path style="fill:#9ecfec; stroke:none;" d="M436 312L437 313L436 312z"></path><path style="fill:#59aadc; stroke:none;" d="M143 313L144 314L143 313M276 313L277 314L276 313z"></path><path style="fill:#9ecfec; stroke:none;" d="M277 313L277 314L300 314L277 313z"></path><path style="fill:#59aadc; stroke:none;" d="M300.667 313.333L301.333 313.667L300.667 313.333z"></path><path style="fill:#9ecfec; stroke:none;" d="M435 313L436 314L435 313M144 314L146 316L144 314z"></path><path style="fill:#3980ad; stroke:none;" d="M145 314L145 315L148 316L145 314M277 314L277 316L280 316L280 314L277 314M428 317L432 315L428 317z"></path><path style="fill:#59aadc; stroke:none;" d="M432 314L433 315L432 314z"></path><path style="fill:#9ecfec; stroke:none;" d="M433 314L434 315L433 314z"></path><path style="fill:#59aadc; stroke:none;" d="M146 315L147 316L146 315M428 318L432 316L428 318z"></path><path style="fill:#9ecfec; stroke:none;" d="M147 316L149 318L147 316z"></path><path style="fill:#59aadc; stroke:none;" d="M148 316L149 317L148 316z"></path><path style="fill:#3980ad; stroke:none;" d="M149 316L149 360C149 364.189 147.037 372.936 152 374C145.162 356.154 156.235 333.242 149 316z"></path><path style="fill:#9ecfec; stroke:none;" d="M430 316L431 317L430 316M429 317L430 318L429 317z"></path><path style="fill:#3980ad; stroke:none;" d="M427 318L427 328L428 328L427 318z"></path><path style="fill:#9ecfec; stroke:none;" d="M428 318L428 374L149 374L149 375L355 375L408 375C412.705 375 423.561 377.01 427.397 373.972C430.478 371.532 429 363.476 429 360C429 348.056 432.607 328.98 428 318z"></path><path style="fill:#3980ad; stroke:none;" d="M427 360L427 370L428 370L427 360M425 372L425 374L428 374L428 372L425 372z"></path></svg>