<svg xmlns="http://www.w3.org/2000/svg" width="576.000000pt" height="480.000000pt" viewBox="0 0 576.000000 480.000000" preserveAspectRatio="xMidYMid meet"><g transform="translate(0.000000,480.000000) scale(0.100000,-0.100000)" fill="#000000" stroke="none"><path d="M4208 4268 c-32 -33 -58 -66 -58 -74 0 -20 40 -97 47 -91 8 9 53 -49 53 -69 0 -21 538 -557 551 -548 5 3 9 1 9 -4 0 -15 55 -34 86 -30 16 2 28 8 27 15 -2 7 4 10 13 6 23 -8 76 46 68 70 -4 12 -2 17 4 13 25 -15 31 84 6 108 -8 9 -20 13 -26 10 -7 -4 -8 -2 -4 4 4 6 -127 145 -313 332 l-320 320 -43 -1 c-39 -2 -49 -8 -100 -61z m782 -752 c0 -2 -7 -7 -16 -10 -8 -3 -12 -2 -9 4 6 10 25 14 25 6z"></path><path d="M494 3098 c5 -129 14 -199 27 -213 5 -5 9 -22 9 -37 0 -15 5 -28 10 -28 6 0 10 -11 10 -24 0 -14 5 -28 10 -31 6 -3 10 -17 10 -30 0 -13 5 -27 10 -30 6 -3 10 -15 10 -26 0 -12 4 -17 11 -13 7 4 9 -2 7 -17 -2 -16 2 -23 10 -21 8 1 12 -5 11 -15 -4 -26 11 -64 22 -58 8 6 10 1 13 -33 1 -7 7 -16 14 -21 7 -4 12 -14 10 -22 -2 -8 3 -13 11 -11 9 2 12 -4 9 -15 -3 -11 4 -26 18 -37 12 -11 20 -25 17 -32 -2 -7 7 -20 21 -30 15 -9 25 -22 24 -28 -3 -15 43 -67 54 -60 4 3 8 -6 8 -19 0 -15 11 -33 30 -47 17 -13 29 -29 26 -36 -5 -13 27 -47 37 -39 4 3 5 2 3 -1 -8 -11 44 -55 56 -48 6 4 8 3 5 -3 -4 -6 27 -43 67 -84 41 -40 72 -77 70 -81 -3 -4 2 -5 11 -2 10 4 15 2 13 -7 -2 -8 3 -13 9 -12 7 2 12 -3 10 -10 -1 -6 5 -11 14 -9 10 1 35 -19 60 -48 23 -27 51 -50 60 -50 10 0 30 -16 45 -35 15 -20 32 -34 38 -32 6 2 21 -7 34 -20 12 -13 27 -21 32 -18 6 3 13 -1 16 -9 3 -9 10 -13 15 -10 7 4 16 -529 10 -568 0 -5 620 -8 1379 -8 l1380 0 0 278 c1 259 2 278 20 300 11 13 24 21 30 17 5 -3 13 1 16 9 3 9 12 16 19 16 8 0 31 18 53 40 21 22 43 40 49 40 5 0 18 7 29 16 10 8 13 12 5 8 -9 -5 -12 -3 -7 4 4 7 13 12 20 12 18 0 67 65 58 75 -4 5 -2 5 4 2 7 -4 89 70 192 173 100 99 179 180 175 180 -3 0 1 8 9 18 9 9 25 38 37 65 20 45 38 67 24 30 -6 -16 -5 -16 10 -4 9 7 17 22 17 32 0 10 5 21 10 24 6 3 10 15 10 26 0 10 6 19 14 19 15 0 46 52 46 75 0 7 6 15 14 18 9 4 12 14 9 27 -4 14 -1 20 7 18 7 -2 15 3 18 11 3 9 0 11 -8 6 -8 -5 -11 -3 -9 4 3 7 8 11 12 9 11 -4 37 50 37 78 0 12 5 26 10 29 6 3 10 17 10 31 0 13 5 24 10 24 6 0 10 8 10 19 0 10 7 31 15 47 9 18 11 30 4 35 -6 3 -4 11 6 19 10 8 15 30 15 66 0 29 5 56 10 59 6 3 10 46 10 96 l0 89 -2401 0 -2400 0 5 -112z m2544 -218 l32 -20 0 -195 0 -195 191 0 191 0 29 -29 29 -29 0 -131 c0 -123 -1 -131 -24 -158 l-24 -28 -194 -5 -193 -5 -2 -190 -1 -189 -27 -23 c-24 -21 -35 -23 -158 -23 -128 0 -133 1 -160 25 l-27 26 0 189 0 189 -196 3 c-248 4 -234 -8 -234 187 0 76 3 141 8 145 4 4 7 17 7 29 0 11 7 22 15 24 13 4 13 3 0 -6 -22 -15 -6 -23 24 -11 15 5 106 10 202 10 l174 0 0 186 0 186 29 29 c29 29 30 29 153 29 105 0 128 -3 156 -20z"></path></g></svg>