<svg xmlns="http://www.w3.org/2000/svg" width="50" height="63"><path style="fill:#fcfeff; stroke:none;" d="M0 0L0 63L50 63L50 60L3 60L3 3L50 3L50 0L0 0z"></path><path style="fill:#1d1d1b; stroke:none;" d="M3 3L3 13C6.36799 13 10.6495 13.6747 13.8302 12.3974C18.9178 10.3543 23.3621 3.03521 28.0833 10.875C30.4057 14.7313 26.0962 20.1685 22.7137 21.9329C19.9828 23.3574 16.8803 21.757 14.044 22.7816C8.72593 24.7029 7.95286 32.1446 8.05401 37C8.14374 41.3068 9.04627 48.2648 12.4298 51.2971C17.2791 55.643 31.402 55.7126 34.929 49.4815C37.1021 45.6423 32.6163 41.6099 31.8835 38C31.0489 33.8886 33.6366 29.1623 34 25L50 19L50 3L3 3z"></path><path style="fill:#086d9e; stroke:none;" d="M21 6L21 7L24 7L21 6z"></path><path style="fill:#0191d2; stroke:none;" d="M3 13L3 60L46 60L49.8557 44L50 19C41.0036 21.258 32.666 25.8912 31.8333 36C31.1551 44.2334 40.5137 50.8396 27 54.5C10.7709 58.8959 -0.380131 33.0586 12.2245 23.7431C15.6383 21.2201 20.1437 22.6961 24 23C25.0659 20.7796 26.7565 19.02 27.8364 16.8287C30.03 12.3775 27.3456 6.8275 22.0116 7.20679C18.2052 7.47745 16.9768 11.0586 13.7909 12.3974C10.6697 13.7089 6.32252 13 3 13z"></path><path style="fill:#086d9e; stroke:none;" d="M16 10L17 11L16 10M28 10L29 11L28 10M15 12L16 13L15 12M29 12L30 13L29 12M28 16L29 17L28 16M25 19L26 20L25 19M46 19L47 20L46 19M24 20L25 21L24 20M45 20L46 21L45 20M44 21L45 22L44 21M13 22L14 23L13 22M18.6667 22.3333L19.3333 22.6667L18.6667 22.3333M40.6667 22.3333L41.3333 22.6667L40.6667 22.3333M11 23L12 24L11 23M38 23L39 24L38 23M10 24L11 25L10 24M37 24L38 25L37 24M34.6667 25.3333L35.3333 25.6667L34.6667 25.3333M9 26L10 27L9 26M8 29L8 32L9 32L8 29M33.3333 29.6667L33.6667 30.3333L33.3333 29.6667M32.3333 32.6667L32.6667 33.3333L32.3333 32.6667M35 33L35 34L39 35L39 34L35 33M43 33L44 34L43 33z"></path><path style="fill:#68b8e0; stroke:none;" d="M33 34L34 35L33 34z"></path><path style="fill:#fcfeff; stroke:none;" d="M34 34L34 35L40 42L44 36L44 35L34 34z"></path><path style="fill:#68b8e0; stroke:none;" d="M35 34L36 35L35 34z"></path><path style="fill:#086d9e; stroke:none;" d="M41 34L42 35L41 34z"></path><path style="fill:#68b8e0; stroke:none;" d="M43 34L43 35L46 35L43 34z"></path><path style="fill:#086d9e; stroke:none;" d="M31 35L32 36L31 35M33 35L34 36L33 35z"></path><path style="fill:#68b8e0; stroke:none;" d="M37 35L37 36L42 36L37 35M36 36L38 39L36 36M42 36L41 39L42 36z"></path><path style="fill:#086d9e; stroke:none;" d="M31 38L32 39L31 38M36 38L37 39L36 38M42 38L43 39L42 38M32 40L33 41L32 40M37.3333 40.6667L37.6667 41.3333L37.3333 40.6667z"></path><path style="fill:#68b8e0; stroke:none;" d="M38.3333 40.6667L38.6667 41.3333L38.3333 40.6667z"></path><path style="fill:#086d9e; stroke:none;" d="M8.33333 41.6667L8.66667 42.3333L8.33333 41.6667M33 41L34 42L33 41z"></path><path style="fill:#68b8e0; stroke:none;" d="M40 41L41 42L40 41z"></path><path style="fill:#086d9e; stroke:none;" d="M41 41L42 42L41 41z"></path><path style="fill:#68b8e0; stroke:none;" d="M39 42L40 43L39 42z"></path><path style="fill:#086d9e; stroke:none;" d="M34 43L35 44L34 43M39 43L40 44L39 43M9 45L9 48L10 48L9 45M35 45L36 46L35 45M36.3333 47.6667L36.6667 48.3333L36.3333 47.6667z"></path><path style="fill:#1d1d1b; stroke:none;" d="M49 47L47 60L50 60L49 47z"></path><path style="fill:#086d9e; stroke:none;" d="M48 48L49 49L48 48M10 49L11 50L10 49M47 49L48 50L47 49M34 50L35 51L34 50M11 51L12 52L11 51M33 51L34 52L33 51M46 51L46 60L47 60L46 51M13 52L14 53L13 52M31 52L32 53L31 52M16 53L17 54L16 53M19 54L19 55L29 55L19 54z"></path></svg>