<svg xmlns="http://www.w3.org/2000/svg" width="1200pt" height="1200pt" viewBox="0 0 1200 1200"><g fill="#00449e"><path d="m710.59 404.71c-23.531-18.824 4.707-51.766 28.234-32.941l42.352 37.648 56.469-75.293-80-65.883-418.82 498.82v14.117l70.59 56.469c4.707 0 9.4102 0 9.4102-4.707l65.883-70.59-42.352-37.648c-23.531-18.824 4.707-51.766 28.234-32.941l37.648 37.648 42.352-47.059-42.352-37.648c-18.824-18.824 4.707-51.766 28.234-32.941l42.352 37.648 37.648-51.766-42.352-32.941c-18.824-18.824 9.4102-51.766 28.234-32.941l42.352 37.648 42.352-51.766-42.352-32.941c-23.531-18.824 4.707-51.766 23.531-32.941l42.352 37.648 42.352-51.766-42.352-32.941zm-258.82 456.47c-9.4102 14.117-32.941 23.531-51.766 18.824l-42.352 47.059c-14.117 18.824-37.648 14.117-56.469 0l-221.18 263.53c-18.824 23.531-51.766-4.707-32.941-28.234l225.88-263.53c-18.824-14.117-28.234-32.941-14.117-56.469l42.352-47.059c-9.4102-18.824-4.707-42.352 4.707-56.469l418.82-498.82-28.234-28.234c-23.531-14.117 4.707-47.059 23.531-28.234 18.824 14.117 37.648 28.234 56.469 47.059l141.18-169.41-28.234-23.531c-18.824-18.824 4.707-51.766 28.234-32.941l150.59 127.06c23.531 18.824-4.707 51.766-23.531 32.941l-28.234-23.531-141.18 169.41c18.824 14.117 37.648 32.941 56.469 47.059 18.824 18.824-4.707 51.766-28.234 32.941l-32.941-28.234c-136.47 164.71-277.65 334.12-418.82 498.82zm390.59-578.82 141.18-164.71-32.941-28.234-141.18 164.71zm-512.94 611.77 32.941-37.648-32.941-32.941-32.941 42.352c14.117 9.4102 23.531 18.824 32.941 28.234z"></path><path d="m1063.5 555.29h-145.88c-28.234 0-51.766 18.824-51.766 47.059v136.47c-28.234 9.4102-42.352 32.941-42.352 61.176v334.12c0 37.648 28.234 65.883 61.176 65.883h207.06c37.648 0 65.883-28.234 65.883-65.883v-334.12c0-28.234-18.824-51.766-42.352-61.176v-136.47c0-28.234-23.531-47.059-51.766-47.059zm-160 136.47h169.41v42.352h-169.41zm192.94 84.707c14.117 0 23.531 9.4102 23.531 23.531v334.12c0 14.117-14.117 23.531-28.234 23.531h-207.06c-14.117 0-23.531-9.4102-23.531-23.531v-334.12c0-14.117 9.4102-23.531 23.531-23.531h211.77z"></path><path d="m1011.8 1007.1v-47.059h42.352v-42.352h-42.352v-42.355h-42.355v42.355h-42.352v42.352h42.352v47.059z"></path><path d="m715.29 917.65h-202.35c-84.707 0-80 131.77 0 131.77h202.35c84.707 0 84.707-131.77 0-131.77zm-98.824 94.117v-56.469h98.824c37.648 0 37.648 56.469 0 56.469z" fill-rule="evenodd"></path><path d="m447.06 1068.2h202.35c84.707 0 80 131.77 0 131.77h-202.35c-84.707 0-84.707-131.77 0-131.77zm103.53 94.117v-56.469h-103.53c-37.648 0-37.648 56.469 0 56.469z" fill-rule="evenodd"></path></g></svg>