<svg xmlns="http://www.w3.org/2000/svg" width="237" height="302"><path style="fill:#ffffff; stroke:none;" d="M0 0L0 302L237 302L237 0L0 0z"></path><path style="fill:#070707; stroke:none;" d="M15 32L15 159L16 159C17.2444 130.092 37.3508 99.6434 61 84L60 80C64.063 78.1008 70.6612 75.4496 73.2269 71.6211C75.5664 68.13 74.1834 61.2158 75.4398 57C79.5184 43.3151 91.6365 33.306 106 33L78 32L15 32z"></path><path style="fill:#018fcf; stroke:none;" d="M60 80L61 84C50.8139 88.5399 42.1598 99.2101 35.6296 108C12.4224 139.238 8.12603 183.658 24.3086 219C45.2665 264.771 94.6766 289.855 144 281.565C181.256 275.303 214.338 248.693 227.305 213C233.547 195.818 238.147 172.727 231.561 155C230.358 151.762 227.172 138.954 223.09 139.466C217.888 140.119 221.217 145.818 225 146C227.923 165.792 228.058 184.368 221.975 204C217.535 218.327 209.464 232.254 198.985 243C187.518 254.759 174.453 264.003 159 269.771C93.9163 294.064 24.6824 242.809 22.0401 175C21.3287 156.742 27.9301 137.632 36.8727 122C42.8072 111.626 52.0826 100.532 62 93.7593C67.7452 89.8356 74.9922 87.9753 81 84C88.7609 100.297 113.113 100.698 125.985 91.0725C139.253 81.1514 142.234 62.0812 134.12 48C131.238 42.9975 127.055 39.1264 122 36.3518C116.648 33.4145 110.058 32.1613 104 32.7685C96.6522 33.5051 89.6338 36.2228 84.1736 41.3256C74.3366 50.519 78.3777 60.3316 73.5478 70.4715C71.5239 74.7205 63.8137 77.4764 60 80z"></path><path style="fill:#070707; stroke:none;" d="M108 32L108 33C113.889 33.2568 119.107 34.8537 124 38.2207C128.174 41.0927 131.588 44.6005 134.12 49C153.392 82.4863 104.207 116.262 81 84C65.0714 91.4457 52.0114 99.2638 41.4282 114C-7.08929 181.557 43.9532 276.032 126 276C138.179 275.995 150.692 273.554 162 268.986C176.132 263.277 188.349 254.903 198.985 244C209.708 233.008 217.897 218.704 222.279 204C227.899 185.144 229.395 164.999 225 146C220.961 145.473 219.222 139.182 223.911 139.921C227.917 140.553 232.415 158.094 233 162L234 162L234 32L108 32M103.004 54.7431C89.8216 59.7793 97.2529 81.2041 109.996 75.5517C122.208 70.1348 116.007 49.7754 103.004 54.7431z"></path><path style="fill:#018fcf; stroke:none;" d="M184 141.439C139.896 148.381 149.872 216.51 194 209.561C237.865 202.654 227.885 134.531 184 141.439z"></path><path style="fill:#51b2de; stroke:none;" d="M160 162L160 163L164 163L160 162M216.667 162.333L217.333 162.667L216.667 162.333z"></path><path style="fill:#9ed4ed; stroke:none;" d="M158 163L159 164L158 163z"></path><path style="fill:#ffffff; stroke:none;" d="M159 163L159 164L181 175L181 176L171 180L179 179L184 202C195.224 202.784 198.078 189.249 199 179L207 180L198 176L198 175L219 164L199 170.093L177 169.787L159 163z"></path><path style="fill:#9ed4ed; stroke:none;" d="M165 163L166 164L165 163z"></path><path style="fill:#51b2de; stroke:none;" d="M166 163L167 164L166 163M213 163L214 164L213 163z"></path><path style="fill:#9ed4ed; stroke:none;" d="M214 163L215 164L214 163M219 163L220 164L219 163M160 164L161 165L160 164M167 164L168 165L167 164z"></path><path style="fill:#51b2de; stroke:none;" d="M210 164L211 165L210 164z"></path><path style="fill:#9ed4ed; stroke:none;" d="M211 164L212 165L211 164M216 164L217 165L216 164z"></path><path style="fill:#51b2de; stroke:none;" d="M217 164L218 165L217 164M162 165L163 166L162 165M169 165L170 166L169 165z"></path><path style="fill:#9ed4ed; stroke:none;" d="M209 165L210 166L209 165M214 165L215 166L214 165M164 166L165 167L164 166z"></path><path style="fill:#51b2de; stroke:none;" d="M170 166L171 167L170 166z"></path><path style="fill:#9ed4ed; stroke:none;" d="M207 166L208 167L207 166z"></path><path style="fill:#51b2de; stroke:none;" d="M213 166L214 167L213 166M165 167L166 168L165 167z"></path><path style="fill:#9ed4ed; stroke:none;" d="M171 167L172 168L171 167z"></path><path style="fill:#51b2de; stroke:none;" d="M212 167L213 168L212 167M166 168L167 169L166 168M173 168L174 169L173 168M192 168L193 169L192 168M204 168L205 169L204 168M211 168L212 169L211 168M167 169L168 170L167 169z"></path><path style="fill:#9ed4ed; stroke:none;" d="M175 169L176 170L175 169z"></path><path style="fill:#51b2de; stroke:none;" d="M176 169L177 170L176 169z"></path><path style="fill:#9ed4ed; stroke:none;" d="M182 169L183 170L182 169M188.667 169.333L189.333 169.667L188.667 169.333M195 169L196 170L195 169z"></path><path style="fill:#51b2de; stroke:none;" d="M201 169L202 170L201 169z"></path><path style="fill:#9ed4ed; stroke:none;" d="M202 169L203 170L202 169z"></path><path style="fill:#51b2de; stroke:none;" d="M210 169L211 170L210 169z"></path><path style="fill:#9ed4ed; stroke:none;" d="M178 170L178 171L181 171L178 170z"></path><path style="fill:#51b2de; stroke:none;" d="M197 170L198 171L197 170z"></path><path style="fill:#9ed4ed; stroke:none;" d="M198.667 170.333L199.333 170.667L198.667 170.333z"></path><path style="fill:#51b2de; stroke:none;" d="M209 170L210 171L209 170M170 171L171 172L170 171z"></path><path style="fill:#9ed4ed; stroke:none;" d="M172 172L173 173L172 172z"></path><path style="fill:#51b2de; stroke:none;" d="M206 172L207 173L206 172M174 173L175 174L174 173z"></path><path style="fill:#9ed4ed; stroke:none;" d="M204 173L205 174L204 173z"></path><path style="fill:#51b2de; stroke:none;" d="M177 174L178 175L177 174z"></path><path style="fill:#9ed4ed; stroke:none;" d="M178.667 174.333L179.333 174.667L178.667 174.333M199 174L199 175L202 175L199 174z"></path><path style="fill:#51b2de; stroke:none;" d="M202 174L203 175L202 174z"></path><path style="fill:#9ed4ed; stroke:none;" d="M180 175L181 176L180 175z"></path><path style="fill:#51b2de; stroke:none;" d="M198 175L199 176L198 175M176 176L176 177L179 177L176 176M199.667 176.333L200.333 176.667L199.667 176.333M173 177L174 178L173 177z"></path><path style="fill:#9ed4ed; stroke:none;" d="M174 177L175 178L174 177M203 177L204 178L203 177z"></path><path style="fill:#51b2de; stroke:none;" d="M204 177L205 178L204 177z"></path><path style="fill:#9ed4ed; stroke:none;" d="M172 178L173 179L172 178M205 178L206 179L205 178z"></path><path style="fill:#51b2de; stroke:none;" d="M206 178L207 179L206 178z"></path><path style="fill:#9ed4ed; stroke:none;" d="M178 179L179 180L178 179M199.667 179.333L200.333 179.667L199.667 179.333z"></path><path style="fill:#51b2de; stroke:none;" d="M207.333 179.667L207.667 180.333L207.333 179.667M171 180L172 181L171 180z"></path><path style="fill:#9ed4ed; stroke:none;" d="M176 180L177 181L176 180M179 180L179 184L180 184L179 180M201 180L202 181L201 180M206 180L207 181L206 180z"></path><path style="fill:#51b2de; stroke:none;" d="M174 181L175 182L174 181M203 181L203 182L206 182L203 181z"></path><path style="fill:#9ed4ed; stroke:none;" d="M198 183L199 184L198 183z"></path><path style="fill:#51b2de; stroke:none;" d="M179 184L180 185L179 184M198 184L199 185L198 184M180 186L181 187L180 186M197 186L198 187L197 186z"></path><path style="fill:#070707; stroke:none;" d="M15 187L15 283L112 283L112 282C76.9423 281.276 42.7345 253.999 27.2585 224C21.0836 212.03 20.1221 198.874 15 187z"></path><path style="fill:#9ed4ed; stroke:none;" d="M196 187L197 188L196 187z"></path><path style="fill:#51b2de; stroke:none;" d="M181 188L182 189L181 188M196 188L197 189L196 188z"></path><path style="fill:#070707; stroke:none;" d="M233 188C231.01 234.228 183.296 281.044 137 282L137 283L234 283L234 217L233 188z"></path><path style="fill:#9ed4ed; stroke:none;" d="M182 190L183 191L182 190z"></path><path style="fill:#51b2de; stroke:none;" d="M195 190L196 191L195 190M182 191L183 192L182 191z"></path><path style="fill:#9ed4ed; stroke:none;" d="M183 193L183 200L184 200L183 193M194 193L194 198L195 198L194 193z"></path><path style="fill:#51b2de; stroke:none;" d="M194.333 198.667L194.667 199.333L194.333 198.667M183 200L184 201L183 200z"></path><path style="fill:#9ed4ed; stroke:none;" d="M193 201L194 202L193 201z"></path><path style="fill:#51b2de; stroke:none;" d="M185 202L186 203L185 202z"></path><path style="fill:#9ed4ed; stroke:none;" d="M186 202L186 203L189 203L186 202M191.667 202.333L192.333 202.667L191.667 202.333z"></path></svg>