<svg xmlns="http://www.w3.org/2000/svg" width="624" height="576"><path style="fill:#feffff; stroke:none;" d="M0 0L0 576L624 576L624 0L0 0z"></path><path style="fill:#97cbe6; stroke:none;" d="M246 53L246 54L376 54C365.734 49.6923 348.158 53 337 53L246 53M377 53L377 54L380 54L377 53M238.667 54.3333L239.333 54.6667L238.667 54.3333z"></path><path style="fill:#57a9da; stroke:none;" d="M240 54L240 55L243 55L240 54z"></path><path style="fill:#2187cb; stroke:none;" d="M233 60C228.256 60.9782 221.606 62.4335 221 68C215.329 69.5636 214.362 74.13 211.562 78.7153C203.615 91.7292 203.957 115.523 208 130L180 132L181 144L127 144L125 136L125 135L125 134L127 132L116 130L116 131L120 131L120 132L94.1157 130.715L71 136L69 138L70 140L68 142C59.7796 143.413 58.4463 155.31 56.5586 162C50.7921 182.438 55 208.831 55 230L55 388C55 420.602 50.5535 456.773 55.3009 489C56.6264 497.998 61.8913 505.511 64 514L80.439 523.272L96 524L96 525L94 525L94 526L425 526L496 526C520.895 526 542.27 526.766 563 512C563.71 505.014 569.194 498.514 569.896 491C572.401 464.165 570 435.962 570 409L570 244L570 180C570 167.919 570.288 154.33 562.402 144.189C548.31 126.069 519.021 132 499 132C501.182 137.697 500.375 140.551 498 146L497 146L496 146L482 144L446 144L444 135L446 132L432 130L431 130L430 130L420 132C419.805 130.194 419.273 127.071 418 130L417 130L418.895 91L416 78C407.357 73.0022 405.041 60.3653 393 60C393.097 55.9555 388.161 56.3571 385 55.3889C376.821 52.8839 367.549 54 359 54L262 54C256.451 54 232.49 52.0107 233 60z"></path><path style="fill:#2987b7; stroke:none;" d="M383 54L383 55L389 56L389 55L383 54z"></path><path style="fill:#57a9da; stroke:none;" d="M384.667 54.3333L385.333 54.6667L384.667 54.3333z"></path><path style="fill:#97cbe6; stroke:none;" d="M386 54L387 55L386 54M235 55L236 56L235 55z"></path><path style="fill:#57a9da; stroke:none;" d="M236 55L237 56L236 55z"></path><path style="fill:#2987b7; stroke:none;" d="M237 55L237 56L240 56L237 55z"></path><path style="fill:#57a9da; stroke:none;" d="M389 55L390 56L389 55z"></path><path style="fill:#97cbe6; stroke:none;" d="M390 55L391 56L390 55M232 56L233 57L232 56z"></path><path style="fill:#57a9da; stroke:none;" d="M233 56L234 57L233 56z"></path><path style="fill:#2987b7; stroke:none;" d="M391 56L393 60L398 60L398 59L391 56z"></path><path style="fill:#57a9da; stroke:none;" d="M392 56L393 57L392 56z"></path><path style="fill:#97cbe6; stroke:none;" d="M393 56L394 57L393 56M230 57L231 58L230 57z"></path><path style="fill:#2987b7; stroke:none;" d="M208 84L209 84C211.946 78.1862 214.782 70.7663 221 68C220.817 62.8841 229.07 61.0343 233 60L234 58C222.568 54.9638 210.527 75.228 208 84z"></path><path style="fill:#57a9da; stroke:none;" d="M394 57L395 58L394 57z"></path><path style="fill:#97cbe6; stroke:none;" d="M395 57L396 58L395 57M228 58L229 59L228 58z"></path><path style="fill:#57a9da; stroke:none;" d="M396 58L397 59L396 58z"></path><path style="fill:#97cbe6; stroke:none;" d="M397 58L398 59L397 58M226 59L227 60L226 59z"></path><path style="fill:#57a9da; stroke:none;" d="M227 59L228 60L227 59M398 59L399 60L398 59z"></path><path style="fill:#97cbe6; stroke:none;" d="M399 59L400 60L399 59M224 60L225 61L224 60z"></path><path style="fill:#57a9da; stroke:none;" d="M225 60L226 61L225 60z"></path><path style="fill:#2987b7; stroke:none;" d="M399 60L416 78C412.017 70.5562 406.345 64.2458 399 60z"></path><path style="fill:#57a9da; stroke:none;" d="M400 60L402 62L400 60z"></path><path style="fill:#97cbe6; stroke:none;" d="M401 60L402 61L401 60M223 61L224 62L223 61M402 61L403 62L402 61M221 62L220 64L221 62z"></path><path style="fill:#57a9da; stroke:none;" d="M222 62L223 63L222 62z"></path><path style="fill:#97cbe6; stroke:none;" d="M403 62L404 63L403 62z"></path><path style="fill:#57a9da; stroke:none;" d="M221 63L222 64L221 63M404 63L411 70L404 63z"></path><path style="fill:#97cbe6; stroke:none;" d="M405 63L406 64L405 63M219 64L218 66L219 64M406 64L407 65L406 64z"></path><path style="fill:#57a9da; stroke:none;" d="M219 65L220 66L219 65z"></path><path style="fill:#97cbe6; stroke:none;" d="M407 65L408 66L407 65M217 66L215 69L217 66M408 66L409 67L408 66z"></path><path style="fill:#57a9da; stroke:none;" d="M217 67L218 68L217 67z"></path><path style="fill:#97cbe6; stroke:none;" d="M409 67L410 68L409 67z"></path><path style="fill:#57a9da; stroke:none;" d="M216 68L217 69L216 68z"></path><path style="fill:#97cbe6; stroke:none;" d="M410 68L411 69L410 68z"></path><path style="fill:#57a9da; stroke:none;" d="M215 69L216 70L215 69M214 70L215 71L214 70z"></path><path style="fill:#2987b7; stroke:none;" d="M221 70L224 72L221 70M397 70L397 72L400 72L400 70L397 70z"></path><path style="fill:#97cbe6; stroke:none;" d="M411 70L412 71L411 70M213 71L214 72L213 71z"></path><path style="fill:#2987b7; stroke:none;" d="M402.667 71.3333L403.333 71.6667L402.667 71.3333z"></path><path style="fill:#97cbe6; stroke:none;" d="M412 71L413 72L412 71M212 72L213 73L212 72z"></path><path style="fill:#2987b7; stroke:none;" d="M235 74L234 76L234 77C253.008 71.5767 272.223 73 292 73L379 73C368.02 68.3926 348.944 72 337 72C303.212 72 268.324 69.7572 235 74M381 72L381 74C387.933 74.714 392.813 78.6221 397 84C397.811 76.8444 386.862 72.3901 381 72z"></path><path style="fill:#57a9da; stroke:none;" d="M399 72L400 73L399 72z"></path><path style="fill:#97cbe6; stroke:none;" d="M413.333 72.6667L413.667 73.3333L413.333 72.6667z"></path><path style="fill:#57a9da; stroke:none;" d="M212 73L213 74L212 73M244 73L244 74L381 74C370.258 69.4925 351.682 73 340 73L244 73z"></path><path style="fill:#97cbe6; stroke:none;" d="M211 74L212 75L211 74z"></path><path style="fill:#57a9da; stroke:none;" d="M240 74L241 75L240 74z"></path><path style="fill:#97cbe6; stroke:none;" d="M241.667 74.3333L242.333 74.6667L241.667 74.3333z"></path><path style="fill:#feffff; stroke:none;" d="M226 129L400 129C400 114.512 404.712 90.5092 392.674 79.7608C383.161 71.2659 368.812 74 357 74L270 74C258.303 74 242.673 71.0478 233.326 79.6805C221.311 90.7763 226 114.229 226 129z"></path><path style="fill:#97cbe6; stroke:none;" d="M384 74L385 75L384 74z"></path><path style="fill:#57a9da; stroke:none;" d="M385 74L386 75L385 74z"></path><path style="fill:#97cbe6; stroke:none;" d="M414 74L415 75L414 74z"></path><path style="fill:#57a9da; stroke:none;" d="M211 75L212 76L211 75M238 75L239 76L238 75z"></path><path style="fill:#97cbe6; stroke:none;" d="M239 75L240 76L239 75M386 75L387 76L386 75z"></path><path style="fill:#57a9da; stroke:none;" d="M387 75L388 76L387 75M414 75L415 76L414 75z"></path><path style="fill:#97cbe6; stroke:none;" d="M210 76L211 77L210 76z"></path><path style="fill:#57a9da; stroke:none;" d="M236 76L237 77L236 76z"></path><path style="fill:#97cbe6; stroke:none;" d="M237 76L238 77L237 76M388 76L391 78L391 77L388 76z"></path><path style="fill:#57a9da; stroke:none;" d="M389 76L390 77L389 76z"></path><path style="fill:#97cbe6; stroke:none;" d="M415 76L416 77L415 76z"></path><path style="fill:#57a9da; stroke:none;" d="M210 77L211 78L210 77M234 77L230 82L234 77z"></path><path style="fill:#97cbe6; stroke:none;" d="M235 77L236 78L235 77M209 78L210 79L209 78z"></path><path style="fill:#2987b7; stroke:none;" d="M231 78L231 80L233 78L231 78z"></path><path style="fill:#97cbe6; stroke:none;" d="M234 78L235 79L234 78M391 78L393 80L391 78z"></path><path style="fill:#57a9da; stroke:none;" d="M392 78L393 79L392 78z"></path><path style="fill:#2987b7; stroke:none;" d="M404 78L404 82L406 82L406 78L404 78z"></path><path style="fill:#97cbe6; stroke:none;" d="M416 78L417 82L418 82L416 78z"></path><path style="fill:#57a9da; stroke:none;" d="M209 79L210 80L209 79z"></path><path style="fill:#97cbe6; stroke:none;" d="M233 79L234 80L233 79z"></path><path style="fill:#57a9da; stroke:none;" d="M393 79L394 80L393 79z"></path><path style="fill:#2987b7; stroke:none;" d="M415 79L416 80L415 79z"></path><path style="fill:#97cbe6; stroke:none;" d="M208 80L209 81L208 80z"></path><path style="fill:#2987b7; stroke:none;" d="M230 80L231 81L230 80z"></path><path style="fill:#57a9da; stroke:none;" d="M394 80L396 82L394 80M396 80L397 81L396 80z"></path><path style="fill:#2987b7; stroke:none;" d="M416 80L417 86L418 86L416 80z"></path><path style="fill:#57a9da; stroke:none;" d="M208 81L209 82L208 81z"></path><path style="fill:#97cbe6; stroke:none;" d="M231 81L232 82L231 81M394 81L395 82L394 81z"></path><path style="fill:#2987b7; stroke:none;" d="M228 82L226 89L227 89L230 82L228 82z"></path><path style="fill:#97cbe6; stroke:none;" d="M230 82L231 83L230 82M395 82L396 83L395 82z"></path><path style="fill:#57a9da; stroke:none;" d="M417 82L418 83L417 82z"></path><path style="fill:#97cbe6; stroke:none;" d="M207.333 83.6667L207.667 84.3333L207.333 83.6667M229 83L228 86L229 83z"></path><path style="fill:#57a9da; stroke:none;" d="M396 83L398 85L396 83z"></path><path style="fill:#97cbe6; stroke:none;" d="M418.333 83.6667L418.667 84.3333L418.333 83.6667z"></path><path style="fill:#57a9da; stroke:none;" d="M228 84L229 85L228 84z"></path><path style="fill:#97cbe6; stroke:none;" d="M396 84L397 85L396 84z"></path><path style="fill:#57a9da; stroke:none;" d="M207 85L208 86L207 85z"></path><path style="fill:#97cbe6; stroke:none;" d="M397 85L398 86L397 85z"></path><path style="fill:#2987b7; stroke:none;" d="M398 85L399 86L398 85z"></path><path style="fill:#57a9da; stroke:none;" d="M418.333 85.6667L418.667 86.3333L418.333 85.6667z"></path><path style="fill:#2987b7; stroke:none;" d="M207.333 86.6667L207.667 87.3333L207.333 86.6667z"></path><path style="fill:#57a9da; stroke:none;" d="M227 86L228 87L227 86M398.333 86.6667L398.667 87.3333L398.333 86.6667z"></path><path style="fill:#2987b7; stroke:none;" d="M411 86L411 88L415 88L415 86L411 86z"></path><path style="fill:#97cbe6; stroke:none;" d="M227 87L228 88L227 87z"></path><path style="fill:#2987b7; stroke:none;" d="M399.333 87.6667L399.667 88.3333L399.333 87.6667M418 87L419 88L418 87z"></path><path style="fill:#97cbe6; stroke:none;" d="M206 88L207 89L206 88M419.333 88.6667L419.667 89.3333L419.333 88.6667z"></path><path style="fill:#57a9da; stroke:none;" d="M206 89L206 92L207 92L206 89M226 89L227 90L226 89M399 89L400 90L399 89z"></path><path style="fill:#97cbe6; stroke:none;" d="M226.333 90.6667L226.667 91.3333L226.333 90.6667M399 90L399 93L400 93L399 90z"></path><path style="fill:#57a9da; stroke:none;" d="M419 90L419 94L420 94L419 90z"></path><path style="fill:#2987b7; stroke:none;" d="M206.333 92.6667L206.667 93.3333L206.333 92.6667M419 94L417 130L418 130L420 129L419 94M206 96L206 104L207 104L206 96z"></path><path style="fill:#97cbe6; stroke:none;" d="M128 116L128 117L132 116L128 116z"></path><path style="fill:#57a9da; stroke:none;" d="M127 144L180 144C180 137.232 181.88 122.867 177.258 117.434C174.61 114.322 169.641 115.001 166 115C157.818 114.997 134.591 111.04 128.858 117.653C124.091 123.151 127 137.212 127 144z"></path><path style="fill:#97cbe6; stroke:none;" d="M175.667 115.333L176.333 115.667L175.667 115.333M446 120L447 120L452 116C448.712 115.325 447.415 117.181 446 120z"></path><path style="fill:#57a9da; stroke:none;" d="M446 144L499 144C499 137.19 501.537 123.891 497.258 118.228C494.574 114.678 489.976 115.007 486 115C477.437 114.986 453.632 110.914 447.894 118.279C443.476 123.947 446 137.137 446 144z"></path><path style="fill:#97cbe6; stroke:none;" d="M494.667 115.333L495.333 115.667L494.667 115.333M177 116L178 117L177 116M496 116L497 117L496 116M178 117L179 129L180 129L178 117M497 117L498 118L497 117M127.333 118.667L127.667 119.333L127.333 118.667M498.333 118.667L498.667 119.333L498.333 118.667z"></path><path style="fill:#2987b7; stroke:none;" d="M206 124L208 128L206 124M225 124L224 128L225 124z"></path><path style="fill:#97cbe6; stroke:none;" d="M126 128L87 129L87 130L117 130L126 128z"></path><path style="fill:#57a9da; stroke:none;" d="M206 128L207 129L206 128M225 128L226 129L225 128z"></path><path style="fill:#97cbe6; stroke:none;" d="M499 128L510 130L539 130L539 129L499 128M180 129L180 130L206 130L180 129z"></path><path style="fill:#2987b7; stroke:none;" d="M206.667 129.333L207.333 129.667L206.667 129.333M224 129L224 130C236.973 136.662 261.525 132 276 132L400 132L400 130L284 130L224 129z"></path><path style="fill:#97cbe6; stroke:none;" d="M226 129L226 130L400 130L383 129L348 129L226 129M420 129L420 130L446 130L420 129M82 130L83 131L82 130z"></path><path style="fill:#57a9da; stroke:none;" d="M83 130L84 131L83 130z"></path><path style="fill:#2987b7; stroke:none;" d="M72 135L72 136L93 132L93 130L72 135M96 130L96 132L120 132L96 130M120 130L120 131L126 131L120 130M180 130L180 132L206 132L206 130L180 130M420 130L420 132L430 132L430 130L420 130M432 130L432 132L446 132L446 130L432 130M499 130L499 132C517.429 132 535.402 130.433 553 136C541.698 124.677 513.738 130 499 130z"></path><path style="fill:#57a9da; stroke:none;" d="M541.667 130.333L542.333 130.667L541.667 130.333z"></path><path style="fill:#97cbe6; stroke:none;" d="M543.667 130.333L544.333 130.667L543.667 130.333M78.6667 131.333L79.3333 131.667L78.6667 131.333z"></path><path style="fill:#2987b7; stroke:none;" d="M126 131L127 132L126 131z"></path><path style="fill:#57a9da; stroke:none;" d="M545 131L546 132L545 131z"></path><path style="fill:#97cbe6; stroke:none;" d="M546.667 131.333L547.333 131.667L546.667 131.333M76 132L77 133L76 132z"></path><path style="fill:#57a9da; stroke:none;" d="M77 132L78 133L77 132M548 132L549 133L548 132z"></path><path style="fill:#97cbe6; stroke:none;" d="M549 132L550 133L549 132M74 133L75 134L74 133z"></path><path style="fill:#57a9da; stroke:none;" d="M75 133L76 134L75 133M550 133L551 134L550 133z"></path><path style="fill:#97cbe6; stroke:none;" d="M551 133L552 134L551 133M72 134L73 135L72 134z"></path><path style="fill:#57a9da; stroke:none;" d="M73 134L74 135L73 134z"></path><path style="fill:#2987b7; stroke:none;" d="M91 134L91 135L96 136L91 134M125 134L125 136L127 136L127 134L125 134M180 134L180 144L181 144L180 134M203 135L203 136L207 135L203 135M226 134L229 136L226 134M416 134L418 136L418 134L416 134M430.667 134.333L431.333 134.667L430.667 134.333M445 134L444 136L446 136L445 134M499 134L499 144L500 144L501 134L499 134z"></path><path style="fill:#57a9da; stroke:none;" d="M552 134L554 136L552 134z"></path><path style="fill:#97cbe6; stroke:none;" d="M553 134L554 135L553 134M68 138L72 136L68 138z"></path><path style="fill:#2987b7; stroke:none;" d="M121.667 135.333L122.333 135.667L121.667 135.333z"></path><path style="fill:#97cbe6; stroke:none;" d="M554 135L555 136L554 135z"></path><path style="fill:#2987b7; stroke:none;" d="M70 136L70 138L72 138L70 136M554 136C555.638 140.163 559.781 141.531 562.402 145.094C565.951 149.92 567.796 156.253 569.24 162C571.354 170.411 570 180.368 570 189L570 240L570 406C570 438.624 577.648 481.713 562 511C569.753 506.747 570.987 496.028 571 488L571 427L571 212C571 187.933 578.766 150.317 554 136z"></path><path style="fill:#57a9da; stroke:none;" d="M555 136L557 138L555 136z"></path><path style="fill:#97cbe6; stroke:none;" d="M556 136L557 137L556 136z"></path><path style="fill:#57a9da; stroke:none;" d="M69 137L70 138L69 137z"></path><path style="fill:#97cbe6; stroke:none;" d="M557 137L558 138L557 137z"></path><path style="fill:#57a9da; stroke:none;" d="M67 138L64 142L67 138z"></path><path style="fill:#2987b7; stroke:none;" d="M67 140L70 140L69 138L67 140z"></path><path style="fill:#97cbe6; stroke:none;" d="M558 138L559 139L558 138z"></path><path style="fill:#57a9da; stroke:none;" d="M559 139L560 140L559 139z"></path><path style="fill:#97cbe6; stroke:none;" d="M64 140L65 141L64 140z"></path><path style="fill:#2987b7; stroke:none;" d="M65 142L68 142L67 140L65 142z"></path><path style="fill:#57a9da; stroke:none;" d="M560 140L562 142L560 140z"></path><path style="fill:#97cbe6; stroke:none;" d="M561 140L562 141L561 140M62 142L60 146L62 142z"></path><path style="fill:#57a9da; stroke:none;" d="M63 142L64 143L63 142M562 142L563 143L562 142z"></path><path style="fill:#2987b7; stroke:none;" d="M63 143L64 144L63 143z"></path><path style="fill:#97cbe6; stroke:none;" d="M563 143L564 144L563 143z"></path><path style="fill:#2987b7; stroke:none;" d="M62 144L59 150L62 144M70 148L76 144L70 148M496 144L496 146L498 146L498 144L496 144z"></path><path style="fill:#97cbe6; stroke:none;" d="M564 144L565 145L564 144z"></path><path style="fill:#57a9da; stroke:none;" d="M61 145L62 146L61 145M564 145L565 146L564 145M60 146L61 147L60 146z"></path><path style="fill:#2987b7; stroke:none;" d="M552 146C553.656 150.137 556.344 150.137 558 146L552 146z"></path><path style="fill:#97cbe6; stroke:none;" d="M565 146L566 147L565 146M59 147L57 152L58 152L59 147M566 147L567 148L566 147z"></path><path style="fill:#57a9da; stroke:none;" d="M59 148L60 149L59 148z"></path><path style="fill:#2987b7; stroke:none;" d="M544 148L544 152L546 152L546 148L544 148z"></path><path style="fill:#57a9da; stroke:none;" d="M566 148L567 149L566 148z"></path><path style="fill:#97cbe6; stroke:none;" d="M567 149L568 150L567 149z"></path><path style="fill:#57a9da; stroke:none;" d="M58 150L59 151L58 150M567 150L568 151L567 150z"></path><path style="fill:#2987b7; stroke:none;" d="M58 151L55 167L56 167L58 151z"></path><path style="fill:#97cbe6; stroke:none;" d="M568 151L569 152L568 151z"></path><path style="fill:#57a9da; stroke:none;" d="M57 152L58 153L57 152M568 152L569 153L568 152z"></path><path style="fill:#97cbe6; stroke:none;" d="M56 153L57 154L56 153M569.333 153.667L569.667 154.333L569.333 153.667z"></path><path style="fill:#57a9da; stroke:none;" d="M56 154L57 155L56 154M569 155L570 156L569 155z"></path><path style="fill:#97cbe6; stroke:none;" d="M55.3333 156.667L55.6667 157.333L55.3333 156.667M570 157L571 158L570 157z"></path><path style="fill:#57a9da; stroke:none;" d="M55 158L56 159L55 158M570 158L571 159L570 158z"></path><path style="fill:#97cbe6; stroke:none;" d="M54 160L54 165L55 165L54 160M571 162L571 494L572 494L572 259L572 192L571 162z"></path><path style="fill:#57a9da; stroke:none;" d="M54 165L54 490L55 490L55 260L55 194L54 165z"></path><path style="fill:#2987b7; stroke:none;" d="M59 168L59 488L60 488L60 262L60 197L59 168M272 200L272 202L274 202L274 200L272 200M280 204L280 206L286 206L286 204L280 204M304 206L304 208L336 208L336 206L304 206M287 210L288 212C279.066 212.704 277.013 222.499 277 230L277 292L274 290C258.89 295.79 237.113 292 221 292C211.762 292 203.227 289.034 199 299C219.443 286.441 254.363 293 278 293L278 242C278 234.09 276.631 224.813 281.649 218.043C286.668 211.271 295.314 211.003 303 211C317.57 210.994 330.02 211.011 344 215L338 212L339 210L287 210z"></path><path style="fill:#57a9da; stroke:none;" d="M293 211L293 212L334 212C323.25 207.489 304.696 211 293 211M288 212L289 213L288 212z"></path><path style="fill:#97cbe6; stroke:none;" d="M289.667 212.333L290.333 212.667L289.667 212.333z"></path><path style="fill:#feffff; stroke:none;" d="M279 362L279 413C279 420.085 277.349 429.557 280.92 435.957C287.852 448.38 321.82 446.286 334 443.471C338.453 442.441 342.397 439.945 344.772 435.985C348.613 429.579 347 420.168 347 413L347 362L398 362C405.082 362 414.622 363.638 420.985 359.91C425.244 357.415 427.832 352.776 428.671 348C430.908 335.273 433.453 303.528 420.996 296.009C416.056 293.027 409.526 294 404 294L367 294C362.41 294 352.112 295.905 348.603 292.397C345.095 288.888 347 278.59 347 274C347 256.839 355.627 212.352 330 212.004C317.7 211.837 292.999 207.394 283.479 216.532C278.271 221.532 279 228.394 279 235L279 274C279 278.59 280.905 288.888 277.397 292.397C273.888 295.905 263.59 294 259 294L222 294C216.474 294 209.944 293.027 205.004 296.009C192.57 303.514 194.603 337.321 197.684 350C198.801 354.593 201.744 358.404 206.001 360.543C212.345 363.732 222.077 362 229 362L279 362z"></path><path style="fill:#97cbe6; stroke:none;" d="M336 212L337 213L336 212z"></path><path style="fill:#57a9da; stroke:none;" d="M337 212L338 213L337 212M286 213L287 214L286 213z"></path><path style="fill:#97cbe6; stroke:none;" d="M287 213L288 214L287 213M338 213L339 214L338 213z"></path><path style="fill:#57a9da; stroke:none;" d="M339 213L340 214L339 213z"></path><path style="fill:#2987b7; stroke:none;" d="M272 214L272 219L273 219L274 214L272 214z"></path><path style="fill:#57a9da; stroke:none;" d="M284 214L283 216L284 214z"></path><path style="fill:#97cbe6; stroke:none;" d="M285 214L286 215L285 214M340 214L345 219L340 214z"></path><path style="fill:#57a9da; stroke:none;" d="M341 214L342 215L341 214z"></path><path style="fill:#97cbe6; stroke:none;" d="M284 215L285 216L284 215z"></path><path style="fill:#57a9da; stroke:none;" d="M342 215L343 216L342 215M282 216L281 218L282 216M343 216L345 218L343 216z"></path><path style="fill:#2987b7; stroke:none;" d="M344 216L345 219L346 219L346 216L344 216z"></path><path style="fill:#97cbe6; stroke:none;" d="M282 217L283 218L282 217M281 218L282 219L281 218M280 219L281 220L280 219z"></path><path style="fill:#57a9da; stroke:none;" d="M345 219L346 220L345 219z"></path><path style="fill:#97cbe6; stroke:none;" d="M345 220L346 221L345 220z"></path><path style="fill:#2987b7; stroke:none;" d="M346 220L348 232L349 232C349 227.614 350.033 222.615 346 220z"></path><path style="fill:#57a9da; stroke:none;" d="M279 221L280 222L279 221M346 221L347 222L346 221z"></path><path style="fill:#97cbe6; stroke:none;" d="M279 222L280 223L279 222M346 222L347 223L346 222z"></path><path style="fill:#57a9da; stroke:none;" d="M347 223L347 226L348 226L347 223M278 224L279 225L278 224z"></path><path style="fill:#97cbe6; stroke:none;" d="M278 225L278 293L279 293L279 246L278 225M347 226L347 274L348.028 292.397L365 294L416 294L416 293L348 293L348 247L347 226z"></path><path style="fill:#2987b7; stroke:none;" d="M273 228L272 232L273 228M348 280L348 293L421 293L421 292L371 292L351.573 290.682L348 280M416 280L416 282L418 282L418 280L416 280M420 286L420 288L425 288L425 286L420 286M192 288L195 292L192 288M430 290L430 298L432 298L432 290L430 290z"></path><path style="fill:#57a9da; stroke:none;" d="M208.667 293.333L209.333 293.667L208.667 293.333z"></path><path style="fill:#97cbe6; stroke:none;" d="M210 293L210 294L278 294L257 293L210 293z"></path><path style="fill:#57a9da; stroke:none;" d="M416.667 293.333L417.333 293.667L416.667 293.333M205 294L206 295L205 294z"></path><path style="fill:#97cbe6; stroke:none;" d="M206.667 294.333L207.333 294.667L206.667 294.333M418 294L418 295L421 296L418 294z"></path><path style="fill:#57a9da; stroke:none;" d="M420 294L422 296L420 294z"></path><path style="fill:#2987b7; stroke:none;" d="M421 294L423 296L423 294L421 294z"></path><path style="fill:#97cbe6; stroke:none;" d="M204.667 295.333L205.333 295.667L204.667 295.333z"></path><path style="fill:#57a9da; stroke:none;" d="M202 296L199 300L202 296z"></path><path style="fill:#97cbe6; stroke:none;" d="M203 296L204 297L203 296M422 296L427 301L422 296z"></path><path style="fill:#57a9da; stroke:none;" d="M423 296L427 300L423 296z"></path><path style="fill:#2987b7; stroke:none;" d="M424 296L426 298L426 296L424 296z"></path><path style="fill:#97cbe6; stroke:none;" d="M202 297L203 298L202 297M201 298L202 299L201 298z"></path><path style="fill:#2987b7; stroke:none;" d="M426 298L427 299L426 298z"></path><path style="fill:#97cbe6; stroke:none;" d="M200 299L201 300L200 299z"></path><path style="fill:#2987b7; stroke:none;" d="M197 300L197 303L198 303L199 300L197 300z"></path><path style="fill:#97cbe6; stroke:none;" d="M199 300L200 301L199 300z"></path><path style="fill:#2987b7; stroke:none;" d="M427 300C431.131 313.031 431.69 336.575 428.606 350C427.566 354.526 424.032 358.656 419.999 360.86C413.429 364.452 404.207 363 397 363L348 363L350 376L349 364L404 364C412.922 364 421.517 365.416 427.295 357.156C432.637 349.519 430 336.784 430 328C430 320.452 433.565 305.304 427 300z"></path><path style="fill:#57a9da; stroke:none;" d="M198 301L199 302L198 301M427 301L428 302L427 301z"></path><path style="fill:#97cbe6; stroke:none;" d="M198 302L199 303L198 302M427 302L428 303L427 302z"></path><path style="fill:#57a9da; stroke:none;" d="M197 303L198 304L197 303z"></path><path style="fill:#2987b7; stroke:none;" d="M196 304L196 352L197 352L196 319L196 304z"></path><path style="fill:#97cbe6; stroke:none;" d="M197.333 304.667L197.667 305.333L197.333 304.667M428 304L428 307L429 307L428 304z"></path><path style="fill:#57a9da; stroke:none;" d="M196 308L196 348L197 348C197 336.566 200.411 318.512 196 308z"></path><path style="fill:#97cbe6; stroke:none;" d="M197 349L197 352L198 352L197 349M428.333 349.667L428.667 350.333L428.333 349.667z"></path><path style="fill:#57a9da; stroke:none;" d="M428 351L429 352L428 351M197 352L198 353L197 352z"></path><path style="fill:#97cbe6; stroke:none;" d="M427.333 352.667L427.667 353.333L427.333 352.667z"></path><path style="fill:#2987b7; stroke:none;" d="M197 353L199 356L197 353z"></path><path style="fill:#97cbe6; stroke:none;" d="M198 353L199 354L198 353z"></path><path style="fill:#57a9da; stroke:none;" d="M198 354L199 355L198 354z"></path><path style="fill:#97cbe6; stroke:none;" d="M426.333 354.667L426.667 355.333L426.333 354.667M199 355L204 360L199 355z"></path><path style="fill:#57a9da; stroke:none;" d="M199 356L202 359L199 356z"></path><path style="fill:#97cbe6; stroke:none;" d="M425 356L426 357L425 356z"></path><path style="fill:#2987b7; stroke:none;" d="M199 357L200 358L199 357z"></path><path style="fill:#97cbe6; stroke:none;" d="M424 357L425 358L424 357z"></path><path style="fill:#2987b7; stroke:none;" d="M200 358C203.093 368.191 211.577 364 220 364L277 364C276.986 384.635 276.965 405.325 277 426C277.014 434.181 279.41 443.682 289 444L289 443C278.376 438.489 278 429.168 278 419L278 363C253.939 363 221.852 368.629 200 358z"></path><path style="fill:#97cbe6; stroke:none;" d="M423 358L424 359L423 358z"></path><path style="fill:#2987b7; stroke:none;" d="M431 358L430 360L431 358z"></path><path style="fill:#97cbe6; stroke:none;" d="M422 359L423 360L422 359z"></path><path style="fill:#57a9da; stroke:none;" d="M204 360L204 361L208 362L208 361L204 360z"></path><path style="fill:#97cbe6; stroke:none;" d="M205 360L206 361L205 360M420 360L421 361L420 360z"></path><path style="fill:#57a9da; stroke:none;" d="M421 360L422 361L421 360z"></path><path style="fill:#97cbe6; stroke:none;" d="M417.667 361.333L418.333 361.667L417.667 361.333z"></path><path style="fill:#57a9da; stroke:none;" d="M419 361L420 362L419 361M210 362L210 363L278 363L257 362L210 362z"></path><path style="fill:#97cbe6; stroke:none;" d="M278 362L278 431L279 431L279 384L278 362M347 362L347 429L348 429L348 383L347 362z"></path><path style="fill:#57a9da; stroke:none;" d="M348 362L348 363L416 363L395 362L348 362z"></path><path style="fill:#2987b7; stroke:none;" d="M429 362L429 366L432 366L432 362L429 362M272 368L272 370L274 370L274 368L272 368M426 370L426 372L428 372L428 370L426 370M348 424L346 436L350 424L348 424z"></path><path style="fill:#57a9da; stroke:none;" d="M347 429L347 433L348 433L347 429M278 431L279 432L278 431z"></path><path style="fill:#97cbe6; stroke:none;" d="M346.333 432.667L346.667 433.333L346.333 432.667M279 433L280 434L279 433z"></path><path style="fill:#57a9da; stroke:none;" d="M279 434L280 435L279 434M346 434L347 435L346 434z"></path><path style="fill:#97cbe6; stroke:none;" d="M280.333 435.667L280.667 436.333L280.333 435.667M345 435L341 441L345 435z"></path><path style="fill:#2987b7; stroke:none;" d="M272 436L274 440L272 436z"></path><path style="fill:#57a9da; stroke:none;" d="M345 436L346 437L345 436z"></path><path style="fill:#97cbe6; stroke:none;" d="M281 437L283 439L281 437z"></path><path style="fill:#2987b7; stroke:none;" d="M345 437L346 438L345 437z"></path><path style="fill:#57a9da; stroke:none;" d="M281 438L282 439L281 438z"></path><path style="fill:#2987b7; stroke:none;" d="M343 440L346 440L345 438L343 440z"></path><path style="fill:#57a9da; stroke:none;" d="M282 439L283 440L282 439z"></path><path style="fill:#97cbe6; stroke:none;" d="M284 440L285 441L284 440z"></path><path style="fill:#2987b7; stroke:none;" d="M342 440L338 443L338 444L343 444L344 441L342 440z"></path><path style="fill:#97cbe6; stroke:none;" d="M285 441L285 442L288 443L285 441M339 441L340 442L339 441z"></path><path style="fill:#57a9da; stroke:none;" d="M340 441L341 442L340 441M286 442L287 443L286 442z"></path><path style="fill:#97cbe6; stroke:none;" d="M337 442L338 443L337 442z"></path><path style="fill:#57a9da; stroke:none;" d="M338.667 442.333L339.333 442.667L338.667 442.333M289 443L290 444L289 443z"></path><path style="fill:#97cbe6; stroke:none;" d="M290.667 443.333L291.333 443.667L290.667 443.333M334.667 443.333L335.333 443.667L334.667 443.333z"></path><path style="fill:#57a9da; stroke:none;" d="M336.667 443.333L337.333 443.667L336.667 443.333z"></path><path style="fill:#2987b7; stroke:none;" d="M304 444L304 446L320 446L320 444L304 444M336.667 445.333L337.333 445.667L336.667 445.333M288 448L288 450L304 450L304 448L288 448M281 450L281 452L285 452L285 450L281 450M272 454L272 456L274 456L274 454L272 454M564 488L564 490L566 490L566 488L564 488z"></path><path style="fill:#97cbe6; stroke:none;" d="M54 490L54 494L55 494L54 490z"></path><path style="fill:#2987b7; stroke:none;" d="M55 490C55.182 498.772 58.4946 505.639 63 513L64 513L55 490z"></path><path style="fill:#57a9da; stroke:none;" d="M55.3333 496.667L55.6667 497.333L55.3333 496.667M570 496L571 497L570 496z"></path><path style="fill:#97cbe6; stroke:none;" d="M570.333 497.667L570.667 498.333L570.333 497.667M55.3333 498.667L55.6667 499.333L55.3333 498.667z"></path><path style="fill:#57a9da; stroke:none;" d="M56 500L57 501L56 500M569 500L570 501L569 500z"></path><path style="fill:#97cbe6; stroke:none;" d="M56.3333 501.667L56.6667 502.333L56.3333 501.667M569 501L570 502L569 501z"></path><path style="fill:#57a9da; stroke:none;" d="M57 503L58 504L57 503M568 503L569 504L568 503z"></path><path style="fill:#97cbe6; stroke:none;" d="M57 504L58 505L57 504z"></path><path style="fill:#2987b7; stroke:none;" d="M544 504L544 508L547 504L544 504z"></path><path style="fill:#57a9da; stroke:none;" d="M58 505L59 506L58 505M567 505L568 506L567 505z"></path><path style="fill:#97cbe6; stroke:none;" d="M58 506L59 507L58 506M567 506L568 507L567 506z"></path><path style="fill:#57a9da; stroke:none;" d="M59 507L61 509L59 507M566 507L565 509L566 507z"></path><path style="fill:#97cbe6; stroke:none;" d="M59 508L60 509L59 508z"></path><path style="fill:#2987b7; stroke:none;" d="M551 508L551 510L554 510L554 508L551 508z"></path><path style="fill:#97cbe6; stroke:none;" d="M566 508L567 509L566 508M60 509L61 510L60 509M565 509L566 510L565 509z"></path><path style="fill:#57a9da; stroke:none;" d="M61 510L62 511L61 510z"></path><path style="fill:#97cbe6; stroke:none;" d="M564 510L560 516L564 510M61 511L62 512L61 511z"></path><path style="fill:#57a9da; stroke:none;" d="M563 511L564 512L563 511z"></path><path style="fill:#97cbe6; stroke:none;" d="M62 512L63 513L62 512z"></path><path style="fill:#2987b7; stroke:none;" d="M561.333 512.667L561.667 513.333L561.333 512.667z"></path><path style="fill:#57a9da; stroke:none;" d="M562 512L563 513L562 512z"></path><path style="fill:#97cbe6; stroke:none;" d="M63 513L64 514L63 513z"></path><path style="fill:#57a9da; stroke:none;" d="M64 514L65 515L64 514z"></path><path style="fill:#2987b7; stroke:none;" d="M65 514L76 522L65 514M559 514L559 516L561 514L559 514z"></path><path style="fill:#97cbe6; stroke:none;" d="M65 515L66 516L65 515M66 516L67 517L66 516z"></path><path style="fill:#2987b7; stroke:none;" d="M556 516L554 520L558 516L556 516z"></path><path style="fill:#57a9da; stroke:none;" d="M555 520L560 517L555 520z"></path><path style="fill:#97cbe6; stroke:none;" d="M67 517L68 518L67 517M558 517L559 518L558 517M68 518L70 520L68 518z"></path><path style="fill:#57a9da; stroke:none;" d="M69 518L70 519L69 518z"></path><path style="fill:#97cbe6; stroke:none;" d="M557 518L558 519L557 518z"></path><path style="fill:#57a9da; stroke:none;" d="M70 519L71 520L70 519z"></path><path style="fill:#97cbe6; stroke:none;" d="M556 519L557 520L556 519M71 520L72 521L71 520z"></path><path style="fill:#2987b7; stroke:none;" d="M528 524L528 526C536.951 526 544.937 525.249 553 521L528 524z"></path><path style="fill:#57a9da; stroke:none;" d="M553 520L554 521L553 520z"></path><path style="fill:#97cbe6; stroke:none;" d="M554 520L555 521L554 520M73 521L74 522L73 521M552.667 521.333L553.333 521.667L552.667 521.333M74 522L74 523L78 524L78 523L74 522z"></path><path style="fill:#57a9da; stroke:none;" d="M76 522L77 523L76 522z"></path><path style="fill:#2987b7; stroke:none;" d="M77 522L77 523L80 524L77 522z"></path><path style="fill:#97cbe6; stroke:none;" d="M550 522L551 523L550 522z"></path><path style="fill:#57a9da; stroke:none;" d="M78 523L79 524L78 523M547 523L548 524L547 523z"></path><path style="fill:#97cbe6; stroke:none;" d="M548 523L549 524L548 523M79 524L80 525L79 524z"></path><path style="fill:#57a9da; stroke:none;" d="M80.6667 524.333L81.3333 524.667L80.6667 524.333z"></path><path style="fill:#2987b7; stroke:none;" d="M82 524L82 525L96 525L82 524z"></path><path style="fill:#57a9da; stroke:none;" d="M544 524L545 525L544 524z"></path><path style="fill:#97cbe6; stroke:none;" d="M545.667 524.333L546.333 524.667L545.667 524.333M82.6667 525.333L83.3333 525.667L82.6667 525.333z"></path><path style="fill:#57a9da; stroke:none;" d="M84.6667 525.333L85.3333 525.667L84.6667 525.333M540 525L541 526L540 525z"></path><path style="fill:#97cbe6; stroke:none;" d="M541 525L541 526L544 526L541 525M88 526L88 527L536 527C525.496 522.592 507.42 526 496 526L405 526L88 526z"></path></svg>