<svg xmlns="http://www.w3.org/2000/svg" width="800" height="600"><g><title>Layer 1</title><g><path stroke="#000" fill="#fff" d="m384.19,155.82165l31.61,0c5.9,0 10.74,4.83 10.74,10.74l0,34.38l34.38,0c5.9,0 10.74,4.83 10.74,10.74l0,31.61c0,5.91 -4.84,10.74 -10.74,10.74l-34.38,0l0,33.45c0,5.91 -4.84,10.75 -10.74,10.75l-31.61,0c-5.91,0 -10.74,-4.84 -10.74,-10.75l0,-33.45l-34.37,0c-5.9,0 -10.74,-4.83 -10.74,-10.74l0,-31.62c0,-5.91 4.84,-10.75 10.74,-10.75l34.38,0l0,-34.36c0,-5.91 4.82,-10.74 10.73,-10.74zm37.5,304.84a31.082,31.082 0 0 1 -17.82,5.72c-5.76,0.01 -11.54,-1.55 -16.63,-4.78l-0.08,-0.09c-15.89,-10.11 -30.56,-21.25 -43.86,-33.11c-13.77,-12.2 -26.17,-25.35 -37.07,-39.07c-14.75,-18.49 -26.83,-38.07 -36.07,-57.99c-9.43,-20.39 -15.92,-41.33 -19.24,-62.03c-3.47,-21.51 -3.53,-42.6 -0.01,-62.49c3.54,-19.95 10.62,-38.79 21.41,-55.76c4.34,-6.74 9.35,-13.34 15.03,-19.63c5.39,-6.09 11.48,-11.83 18.15,-17.13c15.02,-11.96 31.22,-21.16 47.96,-27.33c16.96,-6.26 34.62,-9.42 52.32,-9.3c17.63,0.13 35.04,3.5 51.62,10.25c16.04,6.65 31.33,16.23 45.27,28.95c4.91,4.45 9.6,9.43 13.99,14.79c4.47,5.43 8.43,11.04 11.91,16.75c11.48,18.99 18.55,40.3 21.5,62.78c3.01,22.78 1.83,46.88 -3.15,70.99c-7.51,36.48 -23.21,71.7 -44.95,102.49c-21.4,30.31 -48.86,56.64 -80.28,75.99zm-13.54,-22.14c-2.46,1.8 -5.8,2.04 -8.53,0.29c-29.52,-18.79 -54.35,-41.36 -73.82,-65.85c-26.89,-33.74 -43.84,-71.15 -49.63,-107.18c-5.9,-36.53 -0.39,-71.66 17.79,-100.24c7.17,-11.3 16.32,-21.59 27.48,-30.46c25.66,-20.46 54.97,-31.24 84.13,-31.03c28.12,0.2 55.86,10.7 79.83,32.57c8.43,7.65 15.52,16.43 21.31,25.95c19.55,32.19 23.76,73.25 15.15,114.87c-13.4,65.2 -56.46,126.33 -113.71,161.08zm208.57,55.65l-36.95,-108.46c-1.61,-4.74 -4.32,-9.19 -9.18,-9.19l-20.68,0l13.86,-28.15l6.82,0c11.58,0 20.32,4.92 26.92,12.49c4.29,4.91 7.05,10.47 8.88,15.83l49.61,145.64l-512,0l44.38,-144.87c2.03,-6.49 5.46,-13.25 10.69,-18.48l0.11,0c6.47,-6.44 14.74,-10.61 25.22,-10.61l13.74,0l15.09,28.15l-28.83,0c-4.87,0 -7.77,4.57 -9.18,9.19l-33.24,108.46l434.74,0z"></path></g></g></svg>