<svg xmlns="http://www.w3.org/2000/svg" xmlns:xlink="http://www.w3.org/1999/xlink" width="500" height="500" viewBox="0 0 500 500" xml:space="preserve">
<desc>Created with Fabric.js 4.6.0</desc>
<defs>
</defs>
<g transform="matrix(3.44 0 0 3.44 250 250)" id="nikxeT1sOqDjysBegAzCU">
<path style="stroke: rgb(37,85,182); stroke-width: 0; stroke-dasharray: none; stroke-linecap: butt; stroke-dashoffset: 0; stroke-linejoin: miter; stroke-miterlimit: 4; fill: rgb(0,0,0); fill-rule: nonzero; opacity: 1;" transform=" translate(0, 0)" d="M 0 -67.70284 C 37.37197 -67.70284 67.70284 -37.37196999999999 67.70284 0 C 67.70284 37.37197 37.37196999999999 67.70284 0 67.70284 C -37.37197 67.70284 -67.70284 37.37196999999999 -67.70284 0 C -67.70284 -37.37197 -37.37196999999999 -67.70284 0 -67.70284 z" stroke-linecap="round"></path>
</g>
<g transform="matrix(2.76 0 0 2.76 250 250)" id="u8Z60MLc6dd8Rt7kRI7xk">
<path style="stroke: rgb(37,85,182); stroke-width: 0; stroke-dasharray: none; stroke-linecap: butt; stroke-dashoffset: 0; stroke-linejoin: miter; stroke-miterlimit: 4; fill: rgb(255,255,255); fill-rule: nonzero; opacity: 1;" transform=" translate(0, 0)" d="M 0 -67.70284 C 37.37197 -67.70284 67.70284 -37.37196999999999 67.70284 0 C 67.70284 37.37197 37.37196999999999 67.70284 0 67.70284 C -37.37197 67.70284 -67.70284 37.37196999999999 -67.70284 0 C -67.70284 -37.37197 -37.37196999999999 -67.70284 0 -67.70284 z" stroke-linecap="round"></path>
</g>
<g transform="matrix(1.97 0 0 1.97 250 250)" id="IKHpLaBPbppLEVnH12UvL">
<path style="stroke: rgb(37,85,182); stroke-width: 0; stroke-dasharray: none; stroke-linecap: butt; stroke-dashoffset: 0; stroke-linejoin: miter; stroke-miterlimit: 4; fill: rgb(49,168,247); fill-rule: nonzero; opacity: 1;" transform=" translate(0, 0)" d="M 0 -67.70284 C 37.37197 -67.70284 67.70284 -37.37196999999999 67.70284 0 C 67.70284 37.37197 37.37196999999999 67.70284 0 67.70284 C -37.37197 67.70284 -67.70284 37.37196999999999 -67.70284 0 C -67.70284 -37.37197 -37.37196999999999 -67.70284 0 -67.70284 z" stroke-linecap="round"></path>
</g>
</svg>